<svg width="360" height="418" viewBox="0 0 360 418" fill="none" xmlns="http://www.w3.org/2000/svg">
<g clip-path="url(#clip0_470_1798)">
<path opacity="0.1" d="M26.0352 233.915C33.611 251.648 23.945 272.075 12.585 287.472C8.77534 292.626 4.5876 298.021 4.05323 304.508C3.41707 312.42 8.58631 319.695 14.7225 324.449C25.908 333.114 41.1903 335.793 54.5024 331.423C66.0078 327.655 75.681 319.115 87.2845 315.671C106.704 309.911 127.272 319.461 143.888 331.355C155.648 339.771 168.244 350.004 182.421 348.207C192.403 346.941 200.873 339.681 206.617 331.129C209.39 326.985 211.804 322.377 215.847 319.589C218.249 317.932 221.07 317.054 223.895 316.429C249.668 310.721 277.016 324.653 302.448 317.487C319.624 312.646 333.321 298.575 341.835 282.379C350.349 266.182 354.325 247.888 357.637 229.763C359.989 216.882 361.941 202.984 356.547 191.132C350.825 178.594 337.582 170.995 324.273 169.575C310.965 168.154 297.613 172.091 285.351 177.644C270.029 184.588 255.012 194.308 238.287 194.342C226.898 194.364 216.039 189.821 205.148 186.381C186.907 180.606 168.004 177.735 149.126 175.086C131.063 172.551 112.825 170.189 94.653 171.696C81.7954 172.754 70.4427 177.848 57.9667 180.202C49.8348 181.74 41.6629 180.579 33.6837 183.182C23.8686 186.366 13.7483 193.754 13.2066 205.376C12.6941 216.426 22.0147 224.5 26.0352 233.915Z" fill="#5D8BFF"/>
<g opacity="0.5">
<path d="M253.696 193.004C251.879 193.547 249.621 194.948 248.516 198.795C246.335 206.329 251.381 211.483 249.727 219.308C249.274 221.389 248.408 223.348 247.182 225.061C245.157 227.905 242.954 229.254 240.824 231.247C238.116 233.793 236.176 237.095 235.237 240.756C234.207 244.797 234.121 249.034 234.986 253.117C235.746 256.53 237.04 259.013 238.167 261.782C239.57 265.315 240.665 268.972 241.438 272.708C241.868 274.523 242.112 276.381 242.165 278.249C242.202 280.597 241.849 283.147 241.504 285.664L238.425 307.933C238.014 310.898 237.6 313.912 237.585 316.734C237.563 319.992 238.069 322.792 238.57 325.523C239.661 331.415 240.813 337.53 243.296 340.638C245.779 343.746 249.988 342.669 252.58 336.324C255.045 330.296 255.096 322.234 257.27 315.784C260.694 305.612 267.506 304.256 271.283 294.562C274.918 285.264 273.799 273.842 275.645 263.248C276.961 255.649 279.764 248.717 281.425 241.208C283.814 230.392 283.577 219.165 281.669 210.854C279.76 202.543 276.336 196.835 272.556 192.507C270.952 190.672 269.24 189.041 267.226 188.879C265.085 188.709 263.228 191.516 261.101 192.341C258.636 193.294 256.179 192.273 253.696 193.004Z" fill="#5D8BFF"/>
<path d="M265.289 189.406C265.289 189.406 261.654 285.581 246.411 342.296" stroke="#535461" stroke-width="2" stroke-miterlimit="10"/>
<path d="M248.422 199.266C248.422 199.266 264.7 214.64 261.628 243.936" stroke="#535461" stroke-width="2" stroke-miterlimit="10"/>
<path d="M234.746 243.013C234.746 243.013 261.501 248.588 259.516 265.173" stroke="#535461" stroke-width="2" stroke-miterlimit="10"/>
<path d="M281.702 210.624C281.702 210.624 270.88 220.446 261.232 248.265" stroke="#535461" stroke-width="2" stroke-miterlimit="10"/>
<path d="M271.12 294.702C271.12 294.702 263.733 300.73 257.804 279.704" stroke="#535461" stroke-width="2" stroke-miterlimit="10"/>
<path d="M239.254 306.965C239.254 306.965 254.318 304.927 255.706 295.146" stroke="#535461" stroke-width="2" stroke-miterlimit="10"/>
</g>
<path d="M290.11 128.498C286.38 129.071 281.894 130.86 280.051 136.387C276.434 147.222 287.434 155.424 284.901 166.745C284.141 170.136 282.269 172.894 280.295 174.905C276.427 178.846 272.025 180.557 267.844 183.231C263.664 185.906 259.323 190.103 257.364 196.549C255.477 202.75 256.295 209.603 258.255 214.723C260.214 219.843 263.18 223.66 265.83 227.872C269.057 233.057 271.756 238.576 273.882 244.339C274.831 246.874 275.7 249.549 276.009 252.586C276.351 256.048 275.918 259.774 275.489 263.421L271.665 295.821C271.156 300.134 270.643 304.523 270.938 308.679C271.269 313.475 272.635 317.657 273.984 321.741C276.892 330.549 280.004 339.7 285.482 344.579C290.96 349.457 299.569 348.391 304.2 339.365C308.609 330.771 307.799 318.923 311.557 309.692C317.483 295.146 331.424 293.971 338.131 280.163C344.569 266.917 340.966 249.971 343.551 234.578C345.405 223.547 350.418 213.687 353.002 202.833C356.71 187.195 354.94 170.637 350.032 158.163C345.125 145.689 337.389 136.862 329.072 130.024C325.546 127.127 321.801 124.509 317.628 124.026C313.179 123.514 309.631 127.394 305.345 128.37C300.365 129.527 295.166 127.722 290.11 128.498Z" fill="#5D8BFF"/>
<path d="M313.688 124.618C313.688 124.618 317.196 265.806 292.109 347.449" stroke="#535461" stroke-width="2" stroke-miterlimit="10"/>
<path d="M279.906 137.065C279.906 137.065 315.393 161.712 312.354 204.472" stroke="#535461" stroke-width="2" stroke-miterlimit="10"/>
<path d="M256.612 199.812C256.612 199.812 312.623 211.31 310.412 235.485" stroke="#535461" stroke-width="2" stroke-miterlimit="10"/>
<path d="M350.083 157.884C350.083 157.884 328.795 171.017 312.026 210.798" stroke="#535461" stroke-width="2" stroke-miterlimit="10"/>
<path d="M337.803 280.397C337.803 280.397 323.205 288.361 308.529 256.662" stroke="#535461" stroke-width="2" stroke-miterlimit="10"/>
<path d="M273.232 294.544C273.232 294.544 304.178 293.391 305.948 279.165" stroke="#535461" stroke-width="2" stroke-miterlimit="10"/>
<path d="M24.4466 325.862C24.4466 325.862 27.4929 330.006 23.0398 336.223C18.5867 342.439 14.9151 347.721 16.4165 351.605C16.4165 351.605 23.1343 340.028 28.6016 339.866C34.0689 339.704 30.4628 332.824 24.4466 325.862Z" fill="#5D8BFF"/>
<path opacity="0.1" d="M24.4467 325.862C24.7121 326.261 24.9214 326.698 25.0683 327.158C30.4047 333.653 33.2438 339.715 28.1182 339.869C23.3416 340.013 17.6125 348.862 16.2384 351.1C16.2837 351.273 16.3384 351.442 16.402 351.609C16.402 351.609 23.1198 340.031 28.5871 339.869C34.0545 339.707 30.4629 332.824 24.4467 325.862Z" fill="black"/>
<path d="M30.1102 331.125C30.1102 332.58 29.9539 333.762 29.7467 333.762C29.5395 333.762 29.3832 332.583 29.3832 331.125C29.3832 329.667 29.5795 330.372 29.7721 330.372C29.9648 330.372 30.1102 329.671 30.1102 331.125Z" fill="#FFD037"/>
<path d="M32.0478 332.858C30.8154 333.555 29.7431 333.988 29.6522 333.796C29.5613 333.604 30.481 332.911 31.7133 332.218C32.9457 331.525 32.4586 332.029 32.5531 332.218C32.6476 332.406 33.2837 332.157 32.0478 332.858Z" fill="#FFD037"/>
<path d="M8.35363 325.862C8.35363 325.862 5.30735 330.006 9.76045 336.223C14.2136 342.439 17.8706 347.721 16.4165 351.605C16.4165 351.605 9.69865 340.028 4.23133 339.866C-1.23599 339.704 2.34103 332.824 8.35363 325.862Z" fill="#5D8BFF"/>
<path opacity="0.1" d="M8.35361 325.862C8.08816 326.261 7.87885 326.698 7.732 327.158C2.39554 333.653 -0.443544 339.715 4.68207 339.869C9.45871 340.013 15.1878 348.862 16.5619 351.1C16.5165 351.273 16.4619 351.442 16.3983 351.609C16.3983 351.609 9.68046 340.031 4.21313 339.869C-1.25419 339.707 2.34101 332.824 8.35361 325.862Z" fill="black"/>
<path d="M2.69373 331.125C2.69373 332.58 2.85004 333.762 3.05724 333.762C3.26445 333.762 3.42076 332.583 3.42076 331.125C3.42076 329.667 3.22446 330.372 3.0318 330.372C2.83913 330.372 2.69373 329.671 2.69373 331.125Z" fill="#FFD037"/>
<path d="M0.748883 332.858C1.98121 333.555 3.05359 333.988 3.14447 333.796C3.23535 333.604 2.31565 332.911 1.08332 332.218C-0.149009 331.525 0.338107 332.029 0.243592 332.218C0.149077 332.406 -0.483446 332.157 0.748883 332.858Z" fill="#FFD037"/>
<path d="M3.66064 351.066C3.66064 351.066 12.1779 350.795 14.7443 348.9C17.3108 347.005 27.831 344.756 28.4817 347.77C29.1324 350.784 41.2812 362.881 31.6661 362.96C22.0511 363.039 9.32427 361.408 6.76146 359.792C4.19865 358.175 3.66064 351.066 3.66064 351.066Z" fill="#A8A8A8"/>
<path opacity="0.2" d="M31.8407 361.92C22.2256 361.999 9.49878 360.368 6.93598 358.752C4.98388 357.52 4.20595 353.101 3.94785 351.062H3.66431C3.66431 351.062 4.20231 358.183 6.76512 359.799C9.32793 361.415 22.0547 363.05 31.6843 362.971C34.4616 362.949 35.4177 361.924 35.3668 360.409C34.956 361.325 33.9054 361.897 31.8407 361.92Z" fill="black"/>
<path d="M114.519 293.892C114.519 293.892 157.142 265.67 186.609 265.67C186.609 265.67 222.085 259.944 260.672 269.622C299.26 279.301 313.513 291.85 324.212 288.165L279.266 289.529L114.519 293.892Z" fill="#8CD0F3"/>
<path opacity="0.1" d="M114.519 293.892C114.519 293.892 157.142 265.67 186.609 265.67C186.609 265.67 222.085 259.944 260.672 269.622C299.26 279.301 313.513 291.85 324.212 288.165L279.266 289.529L114.519 293.892Z" fill="#8CD0F3"/>
<path d="M315.418 337.085H55.473L62.6198 307.409L106.824 295.229L315.418 300.911V337.085Z" fill="#121C3F"/>
<path d="M329.101 318.542V328.013C329.101 328.013 321.383 333.815 320.682 338.359C320.682 338.359 309.631 341.267 306.475 341.267C306.188 341.267 305.876 341.267 305.548 341.301C306.041 339.93 306.427 338.52 306.701 337.085C307.475 333.058 307.377 328.903 306.415 324.92C305.453 320.937 303.651 317.224 301.138 314.049C298.625 310.875 295.464 308.318 291.882 306.562C288.3 304.806 284.388 303.895 280.426 303.895C276.464 303.895 272.551 304.806 268.969 306.562C265.388 308.318 262.226 310.875 259.713 314.049C257.2 317.224 255.398 320.937 254.436 324.92C253.474 328.903 253.376 333.058 254.151 337.085C254.522 339.027 255.094 340.921 255.855 342.736H240.871C240.871 342.736 240.733 342.785 240.508 342.887C239.704 343.264 237.81 344.258 237.538 345.822H113.356L110.811 345.799C111.352 344.858 111.838 343.885 112.265 342.883C113.063 341.028 113.656 339.086 114.032 337.093C114.771 333.287 114.733 329.362 113.919 325.573C113.105 321.783 111.534 318.212 109.307 315.09C107.08 311.968 104.246 309.365 100.989 307.447C97.7315 305.53 94.1226 304.341 90.3948 303.957C86.667 303.574 82.903 304.004 79.3454 305.221C75.7879 306.437 72.5157 308.412 69.74 311.02C66.9642 313.627 64.7464 316.808 63.2295 320.358C61.7126 323.908 60.9303 327.748 60.933 331.63C60.9329 333.46 61.1058 335.286 61.4492 337.081C62.035 340.121 63.109 343.038 64.6263 345.709C62.8524 345.261 58.9809 343.987 58.9809 343.987C58.9809 343.987 42.4953 342.171 38.2858 338.336L38.9219 337.88L41.6192 335.97L40.3905 331.072C40.2422 330.866 40.1201 330.641 40.027 330.402C39.6999 329.584 39.4127 328.066 40.5687 326.16C42.3208 323.251 41.4447 312.891 41.4447 312.891C41.4447 312.891 65.2989 295.806 112.305 291.985C112.305 291.985 113.429 292.89 115.748 293.078C117.318 293.21 119.438 293.01 122.131 291.985C122.131 291.985 125.988 293.801 142.488 283.987C142.488 283.987 170.556 263.99 207.391 265.813C207.391 265.813 245.277 263.447 277.55 276.362C291.458 281.923 302.04 284.888 309.583 286.455C316.549 287.905 320.922 288.173 322.925 288.195H322.968C323.623 288.195 324.012 288.195 324.15 288.195H324.208C324.208 288.195 324.208 292.524 324.43 297.637V297.663C324.51 299.441 324.619 301.314 324.771 303.133V303.246C325.193 308.313 325.92 312.917 327.181 313.829L329.101 318.542Z" fill="#2856B8"/>
<path d="M45.2363 312.477C45.2363 312.477 55.8038 303.932 68.9596 305.752C68.9596 305.752 56.9889 315.57 51.5943 314.933L50.6746 314.115L45.2218 314.432C45.2218 314.432 44.4075 313.113 45.2363 312.477Z" fill="#8CD0F3"/>
<path opacity="0.2" d="M55.4948 327.26V332.304C55.4948 332.304 55.1313 337.123 50.9326 337.304L38.9365 337.918L41.6302 336.008L40.4015 331.11C40.2525 330.905 40.1303 330.681 40.038 330.443C41.1285 329.404 43.6986 327.648 48.926 327.271L55.4948 327.26Z" fill="white"/>
<path opacity="0.2" d="M111.317 306.117L120.525 305.74C120.525 305.74 116.799 308.784 114.167 309.059C111.535 309.334 111.317 306.117 111.317 306.117Z" fill="white"/>
<path opacity="0.2" d="M130.7 335.066C130.7 335.066 213.971 323.067 234.099 326.883C234.099 326.883 240.017 327.294 242.256 329.746C244.496 332.199 242.256 330.609 242.256 330.609L130.7 335.066Z" fill="white"/>
<path opacity="0.5" d="M177.314 301.389C177.314 301.389 178.368 299.343 180.076 299.298L191.171 298.707C191.171 298.707 190.996 300.296 189.023 300.888L177.314 301.389Z" fill="#18218A"/>
<path opacity="0.5" d="M241.511 297.934C241.511 297.934 242.565 295.889 244.274 295.843L255.368 295.237C255.368 295.237 255.194 296.827 253.22 297.418L241.511 297.934Z" fill="#18218A"/>
<path d="M203.629 269.905L195.115 293.044L164.42 293.078H156.517H149.643H143.699H136.967C136.967 293.078 141.067 289.959 147.672 285.984C149.853 284.665 152.329 283.256 155.015 281.84C157.487 280.529 160.148 279.203 162.944 277.944C165.125 276.95 167.422 275.993 169.771 275.1C180.418 271.065 192.385 268.356 203.629 269.905Z" fill="#8CD0F3"/>
<path d="M251.86 286.802C251.86 286.802 239.036 288.772 226.796 290.23C222.117 290.787 217.526 291.27 213.767 291.537L213.244 291.575C211.79 291.673 210.441 291.737 209.296 291.759C207.478 291.793 206.119 291.71 205.439 291.484L208.976 269.351C208.976 269.351 213.338 269.4 219.791 269.728L221.201 269.807C222.543 269.886 223.957 269.976 225.433 270.082C227.541 270.232 229.762 270.413 232.052 270.632C243.111 271.683 255.637 273.57 263.569 276.969C280.448 284.21 251.86 286.802 251.86 286.802Z" fill="#8CD0F3"/>
<path d="M310.969 297.934V303.842C310.969 303.842 301.761 303.977 303.735 302.071C305.012 300.805 306.172 299.418 307.199 297.927L310.969 297.934Z" fill="#8CD0F3"/>
<path d="M324.764 303.239L317.286 303.845V296.744C317.286 296.744 320.751 291.699 324.215 297.29L324.415 297.618L324.764 303.239Z" fill="#8CD0F3"/>
<path d="M87.7498 353.809C99.5689 353.809 109.15 343.879 109.15 331.63C109.15 319.381 99.5689 309.451 87.7498 309.451C75.9308 309.451 66.3495 319.381 66.3495 331.63C66.3495 343.879 75.9308 353.809 87.7498 353.809Z" fill="#182A7C"/>
<path d="M104.915 331.611C104.923 336.188 103.234 340.593 100.198 343.916C97.1619 347.239 93.01 349.226 88.6003 349.468C84.1905 349.709 79.8597 348.186 76.5026 345.213C73.1454 342.24 71.0184 338.044 70.5609 333.492C70.1034 328.94 71.3503 324.38 74.0442 320.754C76.738 317.127 80.6729 314.712 85.036 314.006C89.3991 313.3 93.8571 314.358 97.4889 316.962C101.121 319.565 103.649 323.515 104.552 327.994C104.791 329.184 104.913 330.396 104.915 331.611Z" fill="#3F8FFE"/>
<path opacity="0.5" d="M87.7244 346.937C95.8734 346.937 102.48 340.074 102.48 331.607C102.48 323.141 95.8734 316.278 87.7244 316.278C79.5753 316.278 72.9691 323.141 72.9691 331.607C72.9691 340.074 79.5753 346.937 87.7244 346.937Z" fill="#18218A"/>
<path d="M92.661 314.496V315.144L87.7499 331.996L83.8093 314.217C86.7331 313.511 89.784 313.607 92.661 314.496V314.496Z" fill="#3F8FFE"/>
<path d="M92.6246 348.734C89.8117 349.597 86.8328 349.704 83.9692 349.043L87.7462 331.995L92.6246 348.734Z" fill="#3F8FFE"/>
<path d="M104.915 331.611C104.918 333.47 104.641 335.318 104.094 337.089H104.025L87.7644 331.999L104.581 327.998C104.81 329.188 104.922 330.398 104.915 331.611Z" fill="#3F8FFE"/>
<path d="M87.7499 331.995L71.4897 337.085H71.3624C70.4568 334.143 70.2954 331.009 70.8935 327.983L87.7499 331.995Z" fill="#3F8FFE"/>
<path d="M87.7243 333.563C88.7663 333.563 89.611 332.687 89.611 331.607C89.611 330.528 88.7663 329.652 87.7243 329.652C86.6823 329.652 85.8376 330.528 85.8376 331.607C85.8376 332.687 86.6823 333.563 87.7243 333.563Z" fill="#182A7C"/>
<path d="M280.295 353.809C292.114 353.809 301.695 343.879 301.695 331.63C301.695 319.381 292.114 309.451 280.295 309.451C268.476 309.451 258.895 319.381 258.895 331.63C258.895 343.879 268.476 353.809 280.295 353.809Z" fill="#182A7C"/>
<path d="M297.464 331.611C297.472 336.188 295.783 340.593 292.747 343.916C289.71 347.239 285.559 349.226 281.149 349.468C276.739 349.709 272.408 348.186 269.051 345.213C265.694 342.24 263.567 338.044 263.109 333.492C262.652 328.94 263.899 324.38 266.593 320.754C269.287 317.127 273.221 314.712 277.585 314.006C281.948 313.3 286.406 314.358 290.038 316.962C293.669 319.565 296.198 323.515 297.1 327.994C297.34 329.184 297.461 330.396 297.464 331.611Z" fill="#3F8FFE"/>
<path opacity="0.5" d="M280.273 346.937C288.422 346.937 295.028 340.074 295.028 331.607C295.028 323.141 288.422 316.278 280.273 316.278C272.124 316.278 265.518 323.141 265.518 331.607C265.518 340.074 272.124 346.937 280.273 346.937Z" fill="#18218A"/>
<path d="M285.206 314.496V315.144L280.295 331.996L276.354 314.217C279.278 313.511 282.329 313.607 285.206 314.496V314.496Z" fill="#3F8FFE"/>
<path d="M285.173 348.734C282.36 349.597 279.381 349.704 276.518 349.043L280.295 331.995L285.173 348.734Z" fill="#3F8FFE"/>
<path d="M297.464 331.611C297.466 333.47 297.189 335.318 296.642 337.089H296.559L280.295 331.996L297.111 327.995C297.346 329.185 297.464 330.396 297.464 331.611V331.611Z" fill="#3F8FFE"/>
<path d="M280.295 331.995L264.035 337.085H263.907C263.002 334.143 262.84 331.009 263.439 327.983L280.295 331.995Z" fill="#3F8FFE"/>
<path d="M280.273 333.563C281.315 333.563 282.16 332.687 282.16 331.607C282.16 330.528 281.315 329.652 280.273 329.652C279.231 329.652 278.386 330.528 278.386 331.607C278.386 332.687 279.231 333.563 280.273 333.563Z" fill="#182A7C"/>
<path opacity="0.2" d="M155.019 281.862L149.642 293.093H143.699L147.672 286.007C149.864 284.688 152.333 283.283 155.019 281.862Z" fill="white"/>
<path opacity="0.2" d="M169.771 275.123L164.416 293.082H156.513L162.947 277.959C165.143 276.972 167.426 276.023 169.771 275.123Z" fill="white"/>
<path opacity="0.2" d="M225.44 270.101L213.774 291.541L213.251 291.579C211.797 291.677 210.448 291.741 209.303 291.763L219.798 269.75L221.208 269.829C222.532 269.905 223.957 269.995 225.44 270.101Z" fill="white"/>
<path opacity="0.2" d="M137.17 293.018L130.51 340.559L186.133 339.297L195.264 293.225L137.17 293.018Z" stroke="white" stroke-miterlimit="10"/>
<path opacity="0.5" d="M240.511 342.872C239.708 343.249 237.814 344.243 237.541 345.807H113.356L110.812 345.784C111.352 344.843 111.838 343.87 112.266 342.868L240.511 342.872Z" fill="#18218A"/>
<path d="M133.146 377.227C133.993 376.41 134.789 375.445 135.036 374.274C135.284 373.102 134.8 371.693 133.717 371.26C132.506 370.777 131.209 371.636 130.227 372.529C129.246 373.422 128.119 374.413 126.835 374.225C127.496 373.603 127.991 372.815 128.27 371.937C128.55 371.059 128.605 370.121 128.431 369.214C128.375 368.839 128.222 368.488 127.988 368.197C127.315 367.443 126.094 367.771 125.29 368.359C122.746 370.242 122.019 373.833 122.001 377.08C121.742 375.909 121.961 374.688 121.953 373.486C121.946 372.284 121.63 370.954 120.652 370.306C120.043 369.967 119.358 369.801 118.667 369.824C117.515 369.779 116.232 369.9 115.446 370.774C114.468 371.859 114.719 373.678 115.574 374.873C116.428 376.067 117.718 376.817 118.907 377.642C119.861 378.231 120.675 379.036 121.288 379.996C121.361 380.13 121.42 380.272 121.466 380.418H128.686C130.305 379.568 131.805 378.494 133.146 377.227V377.227Z" fill="#5D8BFF"/>
<path d="M284.039 383.564C284.705 383.001 285.191 382.242 285.431 381.386C285.613 380.52 285.257 379.484 284.457 379.167C283.563 378.813 282.607 379.454 281.883 380.105C281.16 380.757 280.328 381.496 279.379 381.356C279.866 380.898 280.231 380.317 280.438 379.669C280.644 379.021 280.685 378.329 280.557 377.66C280.516 377.383 280.402 377.123 280.229 376.907C279.731 376.357 278.833 376.594 278.237 377.027C276.347 378.406 275.82 381.066 275.809 383.462C275.62 382.599 275.78 381.699 275.773 380.825C275.765 379.951 275.533 378.941 274.813 378.482C274.367 378.233 273.865 378.11 273.359 378.124C272.508 378.09 271.563 378.18 270.982 378.825C270.254 379.623 270.447 380.968 271.076 381.838C271.705 382.709 272.657 383.27 273.537 383.88C274.242 384.315 274.844 384.909 275.296 385.617C275.35 385.715 275.394 385.819 275.427 385.926H280.753C281.946 385.296 283.052 384.501 284.039 383.564V383.564Z" fill="#5D8BFF"/>
<path d="M307.668 395.548C308.334 394.985 308.82 394.226 309.06 393.371C309.242 392.504 308.886 391.468 308.086 391.152C307.192 390.797 306.236 391.438 305.512 392.09C304.789 392.741 303.956 393.48 303.008 393.34C303.495 392.882 303.86 392.301 304.066 391.653C304.273 391.006 304.314 390.314 304.185 389.645C304.144 389.367 304.031 389.107 303.858 388.891C303.36 388.341 302.462 388.578 301.866 389.012C299.976 390.391 299.449 393.05 299.438 395.446C299.249 394.584 299.409 393.683 299.401 392.809C299.394 391.935 299.162 390.926 298.442 390.466C297.995 390.217 297.494 390.094 296.988 390.108C296.137 390.074 295.192 390.165 294.61 390.809C293.883 391.607 294.076 392.952 294.705 393.823C295.334 394.693 296.286 395.254 297.166 395.865C297.871 396.299 298.472 396.893 298.925 397.601C298.979 397.7 299.022 397.803 299.056 397.91H304.382C305.575 397.28 306.68 396.486 307.668 395.548Z" fill="#5D8BFF"/>
<path opacity="0.1" d="M179.404 312.243C179.02 312.806 178.669 313.392 178.353 313.999C175.99 318.666 170.494 311.079 172.395 308.457L173.707 307.187C173.228 313.207 177.957 312.567 179.404 312.243Z" fill="black"/>
<path opacity="0.1" d="M188.488 322.867H188.361C188.361 322.867 192.541 321.699 188.488 322.867Z" fill="black"/>
<path opacity="0.1" d="M223.048 344.684V345.325C223 345.114 223 344.895 223.048 344.684V344.684Z" fill="black"/>
<path opacity="0.1" d="M234.495 355.139C232.102 355.902 229.547 355.926 227.141 355.207L226.538 353.549L233.855 351.914C233.855 351.914 234.121 353.255 234.495 355.139Z" fill="black"/>
</g>
<path d="M281.061 231.467L282.514 219.805C282.769 217.752 283.425 215.77 284.446 213.971C285.466 212.172 286.831 210.592 288.461 209.322C290.092 208.051 291.956 207.114 293.948 206.565C295.941 206.016 298.021 205.865 300.072 206.121C302.122 206.377 304.102 207.035 305.899 208.058C307.695 209.08 309.273 210.447 310.541 212.079C311.81 213.712 312.745 215.579 313.292 217.574C313.84 219.569 313.99 221.652 313.733 223.704L312.28 235.367C312.21 235.923 311.922 236.429 311.48 236.773C311.038 237.118 310.478 237.273 309.922 237.204L282.896 233.828C282.34 233.758 281.835 233.47 281.49 233.028C281.146 232.585 280.992 232.024 281.061 231.467V231.467Z" fill="#2F2E41"/>
<path d="M294.006 234.947C300.376 234.947 305.539 229.777 305.539 223.4C305.539 217.024 300.376 211.854 294.006 211.854C287.637 211.854 282.473 217.024 282.473 223.4C282.473 229.777 287.637 234.947 294.006 234.947Z" fill="#FFB8B8"/>
<path d="M278.705 220.277C279.117 217 280.811 214.02 283.414 211.992C286.018 209.964 289.319 209.052 292.593 209.457L294.923 209.748C298.197 210.161 301.173 211.857 303.199 214.463C305.225 217.07 306.135 220.375 305.731 223.652L305.702 223.886L300.778 223.271L299.685 218.353L298.763 223.019L296.218 222.701L295.667 220.22L295.201 222.574L278.676 220.51L278.705 220.277Z" fill="#2F2E41"/>
<path d="M237.598 264.588C237.95 265.281 238.45 265.888 239.062 266.366C239.675 266.845 240.384 267.183 241.141 267.357C241.898 267.532 242.684 267.538 243.443 267.375C244.203 267.212 244.917 266.885 245.537 266.416L256.012 272.559L261.294 267.096L246.379 258.629C245.523 257.639 244.334 256.999 243.037 256.828C241.741 256.658 240.427 256.969 239.344 257.704C238.262 258.438 237.486 259.545 237.164 260.813C236.842 262.082 236.997 263.425 237.598 264.588V264.588Z" fill="#FFB8B8"/>
<path d="M271.93 275.627C264.203 275.627 250.607 272.164 249.854 271.97L249.616 271.909L251.756 261.063L272.524 265.169L283.806 249.263L296.759 247.945L296.398 248.421C296.229 248.643 279.532 270.649 276.933 274.34C276.278 275.271 274.405 275.627 271.93 275.627Z" fill="#3F3D56"/>
<path d="M274.002 316.338L273.693 316.19C273.627 316.159 267.062 312.962 263.662 306.721C260.278 300.51 276.119 274.162 277.228 272.333L277.244 263.966L282.942 248.563L290.21 244.45L283.97 259.026L274.002 316.338Z" fill="#3F3D56"/>
<path d="M266.721 406.271L259.775 406.271L256.471 379.449L266.722 379.45L266.721 406.271Z" fill="#FFB8B8"/>
<path d="M268.492 413.012L246.095 413.011V412.727C246.095 410.413 247.014 408.193 248.649 406.556C250.284 404.92 252.501 404 254.813 404H254.813L268.493 404.001L268.492 413.012Z" fill="#2F2E41"/>
<path d="M341.329 400.177L334.728 402.342L323.245 377.884L332.988 374.689L341.329 400.177Z" fill="#FFB8B8"/>
<path d="M345.109 406.031L323.825 413.012L323.737 412.742C323.017 410.543 323.2 408.147 324.244 406.082C325.289 404.017 327.11 402.452 329.307 401.731L329.307 401.731L342.306 397.467L345.109 406.031Z" fill="#2F2E41"/>
<path d="M327.88 395.792L308.079 362.698L291.364 327.34L276.322 358.573L270.347 399.024L249.391 399.315L249.474 398.987L281.542 271.422L306.658 275.178L305.514 291.775L306.195 292.745C311.869 300.813 317.735 309.156 314.37 318.149L323.908 346.502L345.021 393.712L327.88 395.792Z" fill="#2F2E41"/>
<path d="M282.69 299.069C279.05 299.069 274.898 294.909 277.052 287.806L276.913 287.705L282.087 264.821C277.571 258.356 283.524 253.021 284.082 252.544L286.924 247.423L299.462 239.463L305.806 292.231L305.712 292.321C301.13 296.71 285.742 299.069 282.69 299.069Z" fill="#5D8BFF"/>
<path d="M308.367 310.976C307.869 310.984 307.371 310.931 306.886 310.819C306.398 310.697 305.609 310.075 304.389 306.099C299.539 290.292 293.814 242.73 297.973 238.075L298.069 237.969L304.899 239.108C305.466 238.689 308.446 236.607 311.195 236.969C311.761 237.04 312.306 237.227 312.797 237.517C313.288 237.808 313.715 238.196 314.05 238.658L314.097 238.72L316.273 269.71L324.244 306.179L324.053 306.266C323.589 306.477 313.636 310.976 308.367 310.976Z" fill="#3F3D56"/>
<path d="M303.773 298.864C304.55 298.838 305.311 298.642 306.003 298.289C306.696 297.937 307.302 297.437 307.781 296.825C308.259 296.212 308.598 295.502 308.773 294.745C308.948 293.987 308.954 293.2 308.792 292.44L318.791 285.546L316.088 278.441L302.105 288.375C300.847 288.732 299.763 289.539 299.059 290.642C298.355 291.745 298.08 293.069 298.286 294.361C298.492 295.654 299.164 296.827 300.175 297.656C301.187 298.486 302.467 298.916 303.773 298.864H303.773Z" fill="#FFB8B8"/>
<path d="M315.491 291.07L306.586 284.531L319.104 267.442L309.497 250.469L313.795 238.165L314.073 238.695C314.203 238.942 327.032 263.41 329.27 267.331C331.599 271.41 316.3 290.087 315.648 290.88L315.491 291.07Z" fill="#3F3D56"/>
<path d="M157.289 252.035C145.503 255.377 134.524 246.585 132.374 238.156L133.196 237.98C143.139 235.423 154.564 242.212 157.289 252.035Z" fill="#5D8BFF"/>
<path d="M69.6382 312.146C69.5996 311.332 69.3833 310.536 69.0043 309.814C68.6253 309.093 68.0929 308.464 67.4447 307.97C66.7964 307.477 66.0481 307.132 65.2523 306.96C64.4565 306.788 63.6327 306.792 62.8388 306.973L55.4741 296.583L48.0752 299.523L58.6816 314.051C59.0736 315.366 59.9339 316.491 61.0993 317.213C62.2648 317.936 63.6544 318.205 65.005 317.97C66.3555 317.735 67.5731 317.013 68.4271 315.939C69.281 314.866 69.7119 313.516 69.6382 312.146H69.6382Z" fill="#A0616A"/>
<path d="M55.2846 311.376L33 282.433L41.3498 256.162C41.9617 249.557 46.0903 247.712 46.2659 247.637L46.5339 247.522L53.7998 266.92L48.4649 281.162L61.5592 303.21L55.2846 311.376Z" fill="#3F3D56"/>
<path d="M132.675 222.156C131.867 222.258 131.092 222.535 130.403 222.969C129.713 223.403 129.128 223.983 128.687 224.668C128.246 225.353 127.96 226.127 127.85 226.935C127.74 227.742 127.808 228.564 128.05 229.343L118.271 237.497L121.772 244.655L135.419 232.945C136.699 232.452 137.753 231.506 138.382 230.287C139.012 229.068 139.172 227.66 138.834 226.33C138.496 225 137.682 223.841 136.547 223.072C135.412 222.302 134.034 221.977 132.675 222.156H132.675Z" fill="#A0616A"/>
<path d="M133.018 236.543L105.918 261.023L79.1087 254.72C72.4835 254.62 70.3275 250.642 70.2388 250.472L70.1035 250.214L88.86 241.462L103.456 245.685L124.401 230.911L133.018 236.543Z" fill="#3F3D56"/>
<path d="M86.0765 410.575H93.3578L96.8214 382.458L86.0748 382.459L86.0765 410.575Z" fill="#A0616A"/>
<path d="M107.4 417.343L84.5163 417.344L84.5159 408.493L99.5618 408.492C101.641 408.492 103.634 409.318 105.104 410.79C106.574 412.261 107.4 414.257 107.4 416.338L107.4 417.343Z" fill="#2F2E41"/>
<path d="M56.9746 410.575H64.2559L67.7194 382.458L56.9729 382.459L56.9746 410.575Z" fill="#A0616A"/>
<path d="M78.2983 417.343L55.4142 417.344L55.4138 408.493L70.4597 408.492C71.4891 408.492 72.5083 408.695 73.4593 409.089C74.4103 409.483 75.2744 410.061 76.0023 410.79C76.7302 411.519 77.3076 412.384 77.7015 413.336C78.0955 414.288 78.2982 415.308 78.2983 416.338L78.2983 417.343Z" fill="#2F2E41"/>
<path d="M54.3848 307.946L54.9788 349.567L55.5722 404.269L68.6387 403.08L75.1717 327.568L83.4867 403.08H96.9762L98.3347 326.973L93.5831 310.324L54.3848 307.946Z" fill="#2F2E41"/>
<path d="M79.9585 313.535C65.7417 313.536 52.6552 307.095 52.4786 307.006L52.3318 306.933L51.1388 278.269C50.7928 277.256 43.9803 257.269 42.8265 250.916C41.6576 244.479 58.6 238.831 60.6573 238.17L61.1242 232.992L80.1102 230.944L82.5166 237.569L89.328 240.126C90.1001 240.416 90.7392 240.98 91.1241 241.71C91.5089 242.441 91.6128 243.287 91.4161 244.089L87.6304 259.501L96.8763 310.492L94.8857 310.579C90.1759 312.613 85.0874 313.621 79.9585 313.535V313.535Z" fill="#3F3D56"/>
<path d="M71.3612 227.666C78.911 227.666 85.0313 221.538 85.0313 213.98C85.0313 206.422 78.911 200.295 71.3612 200.295C63.8115 200.295 57.6912 206.422 57.6912 213.98C57.6912 221.538 63.8115 227.666 71.3612 227.666Z" fill="#A0616A"/>
<path d="M60.2884 227.228C62.8936 230.006 67.7318 228.515 68.0712 224.719C68.0978 224.425 68.0959 224.128 68.0654 223.834C67.8902 222.153 66.92 220.626 67.1524 218.851C67.205 218.409 67.3694 217.988 67.63 217.628C69.706 214.845 74.5793 218.873 76.5386 216.353C77.7399 214.809 76.3277 212.376 77.2497 210.65C78.4664 208.371 82.0705 209.495 84.3306 208.247C86.8452 206.858 86.6948 202.996 85.0395 200.646C83.0208 197.781 79.4813 196.252 75.9859 196.032C72.4905 195.812 69.0192 196.758 65.756 198.031C62.0483 199.477 58.3715 201.476 56.0899 204.74C53.3151 208.71 53.0481 214.046 54.4358 218.687C55.28 221.51 58.161 224.959 60.2884 227.228Z" fill="#2F2E41"/>
<path d="M42.58 6.544V6.896C42.58 12.616 41.128 16.51 34.792 19.7L36.354 21.922C43.944 18.072 45.44 12.836 45.44 6.544H42.58ZM36.046 6.544V8.854H44.318V6.544H36.046ZM42.646 11.538L34.99 11.978L35.342 14.486L42.646 13.782V11.538ZM47.904 4.564V24.936H50.852V4.564H47.904ZM50.082 12.352V14.75H53.668V12.352H50.082ZM54.8983 6.038V8.392H65.8763V6.038H54.8983ZM54.6783 16.312C58.1983 16.312 62.7523 16.224 66.8443 15.564L66.6243 13.43C62.6863 13.892 57.9343 13.936 54.3703 13.936L54.6783 16.312ZM56.5043 7.908V14.728H59.2983V7.908H56.5043ZM61.4323 7.908V14.728H64.2703V7.908H61.4323ZM57.0543 17.874V20.206H68.0103V24.958H70.9583V17.874H57.0543ZM68.0103 4.586V17.038H70.9583V4.586H68.0103Z" fill="#5D8BFF"/>
<path d="M82.3746 5.598C78.0846 5.598 74.7626 7.952 74.7626 11.494C74.7626 15.058 78.0846 17.39 82.3746 17.39C86.6646 17.39 89.9866 15.058 89.9866 11.494C89.9866 7.952 86.6646 5.598 82.3746 5.598ZM82.3746 7.974C85.1466 7.974 87.1266 9.294 87.1266 11.494C87.1266 13.672 85.1466 14.992 82.3746 14.992C79.6026 14.992 77.6226 13.672 77.6226 11.494C77.6226 9.294 79.6026 7.974 82.3746 7.974ZM73.1786 20.118V22.516H91.6146V20.118H73.1786ZM92.3168 20.338V22.714H110.753V20.338H92.3168ZM100.039 16.488V21.306H102.965V16.488H100.039ZM94.3848 5.906V8.216H105.781V10.394H94.4288V16.114H97.3328V12.682H108.685V5.906H94.3848ZM94.4288 14.948V17.302H109.147V14.948H94.4288ZM48.85 33.564V54.002H51.798V33.564H48.85ZM40.82 34.994C37.74 34.994 35.474 37.81 35.474 42.254C35.474 46.742 37.74 49.558 40.82 49.558C43.9 49.558 46.166 46.742 46.166 42.254C46.166 37.81 43.9 34.994 40.82 34.994ZM40.82 37.656C42.338 37.656 43.35 39.262 43.35 42.254C43.35 45.29 42.338 46.918 40.82 46.918C39.302 46.918 38.268 45.29 38.268 42.254C38.268 39.262 39.302 37.656 40.82 37.656ZM54.0183 42.518V44.872H72.4543V42.518H54.0183ZM61.7403 43.552V46.786H64.6443V43.552H61.7403ZM61.6743 47.6V47.952C61.6743 49.514 59.6503 51.296 55.2063 51.692L56.1523 53.892C61.3883 53.408 64.1603 50.922 64.1603 47.952V47.6H61.6743ZM62.2023 47.6V47.952C62.2023 51.054 65.0183 53.408 70.2323 53.892L71.1563 51.692C66.6463 51.318 64.6883 49.624 64.6883 47.952V47.6H62.2023ZM63.2363 33.806C58.7263 33.806 55.8663 35.236 55.8663 37.656C55.8663 40.076 58.7263 41.506 63.2363 41.506C67.7463 41.506 70.6063 40.076 70.6063 37.656C70.6063 35.236 67.7463 33.806 63.2363 33.806ZM63.2363 35.984C66.0303 35.984 67.5923 36.534 67.5923 37.656C67.5923 38.734 66.0303 39.306 63.2363 39.306C60.4203 39.306 58.8803 38.734 58.8803 37.656C58.8803 36.534 60.4203 35.984 63.2363 35.984ZM79.7126 34.928C76.5226 34.928 74.0806 37.018 74.0806 39.944C74.0806 42.892 76.5226 44.982 79.7126 44.982C82.9246 44.982 85.3226 42.892 85.3226 39.944C85.3226 37.018 82.9246 34.928 79.7126 34.928ZM79.7126 37.436C81.2746 37.436 82.4626 38.36 82.4626 39.944C82.4626 41.55 81.2746 42.474 79.7126 42.474C78.1506 42.474 76.9626 41.55 76.9626 39.944C76.9626 38.36 78.1506 37.436 79.7126 37.436ZM87.2366 33.564V54.002H90.1626V33.564H87.2366ZM73.5966 49.866C77.1166 49.866 81.9126 49.822 86.3346 48.942L86.1146 46.83C81.8246 47.468 76.8306 47.512 73.2446 47.512L73.5966 49.866ZM100.645 38.866V39.922C100.645 42.98 99.1272 46.434 95.8052 47.952L97.3892 50.196C101.085 48.546 102.911 44.212 102.911 39.922V38.866H100.645ZM101.283 38.866V39.922C101.283 44.014 103.021 48.194 106.607 49.844L108.169 47.622C104.979 46.082 103.549 42.826 103.549 39.922V38.866H101.283ZM96.5092 36.908V39.218H107.597V36.908H96.5092ZM100.623 34.048V38.096H103.549V34.048H100.623ZM109.203 33.586V53.958H112.151V33.586H109.203ZM111.491 41.484V43.904H115.099V41.484H111.491ZM115.318 42.716V44.85H133.776V42.716H115.318ZM117.386 45.862V47.842H128.694V48.854H117.43V52.44H120.334V50.702H131.576V45.862H117.386ZM117.43 51.824V53.804H132.148V51.824H117.43ZM117.584 33.938V35.896H128.65V36.908H117.606V40.406H120.51V38.734H131.532V33.938H117.584ZM117.606 39.79V41.77H131.906V39.79H117.606ZM152.332 33.586V44.036H155.28V33.586H152.332ZM141.684 44.916V47.138H152.376V48.282H141.728V52.506H144.588V50.35H155.28V44.916H141.684ZM141.728 51.604V53.826H155.786V51.604H141.728ZM139.374 34.444V43.42H149.274V34.444H146.37V36.754H142.256V34.444H139.374ZM142.256 38.954H146.37V41.132H142.256V38.954ZM171.602 33.564V54.002H174.528V33.564H171.602ZM168.258 37.898V40.252H172.086V37.898H168.258ZM158.182 47.072V49.47H159.788C162.89 49.47 165.486 49.404 168.478 48.942L168.236 46.566C165.31 47.006 162.802 47.072 159.788 47.072H158.182ZM158.138 35.28V37.612H164.364V40.868H158.182V47.6H161.086V43.178H167.246V35.28H158.138ZM168.214 43.442V45.796H172.042V43.442H168.214ZM176.639 49.228V51.604H195.075V49.228H176.639ZM184.361 44.872V49.8H187.287V44.872H184.361ZM178.575 34.884V45.488H193.073V34.884H190.169V38.008H181.479V34.884H178.575ZM181.479 40.296H190.169V43.156H181.479V40.296ZM203.785 40.428V42.804H207.151V40.428H203.785ZM199.429 35.346V38.778C199.429 42.232 198.373 45.862 195.381 47.71L197.141 49.91C200.397 47.908 201.673 43.398 201.673 38.778V35.346H199.429ZM200.067 35.346V38.646C200.067 43.046 201.079 47.446 204.313 49.448L205.897 47.16C203.125 45.356 202.267 41.968 202.267 38.646V35.346H200.067ZM210.473 33.586V53.958H213.267V33.586H210.473ZM206.337 33.894V53.034H209.065V33.894H206.337ZM218.963 43.926V49.646H221.867V43.926H218.963ZM226.355 43.926V49.646H229.281V43.926H226.355ZM214.915 49.228V51.604H233.351V49.228H214.915ZM224.111 34.576C219.711 34.576 216.499 36.732 216.499 40.054C216.499 43.376 219.711 45.51 224.111 45.51C228.489 45.51 231.723 43.376 231.723 40.054C231.723 36.732 228.489 34.576 224.111 34.576ZM224.111 36.864C226.949 36.864 228.841 38.03 228.841 40.054C228.841 42.056 226.949 43.244 224.111 43.244C221.273 43.244 219.381 42.056 219.381 40.054C219.381 38.03 221.273 36.864 224.111 36.864Z" fill="black"/>
<defs>
<clipPath id="clip0_470_1798">
<rect width="360" height="273.903" fill="white" transform="translate(0 124)"/>
</clipPath>
</defs>
</svg>
