<svg width="360" height="448" viewBox="0 0 360 448" fill="none" xmlns="http://www.w3.org/2000/svg">
<path d="M56.7522 5.864V8.174H60.8002V5.864H56.7522ZM56.7522 9.692V12.024H60.8002V9.692H56.7522ZM45.5102 3.928V6.26H56.2682V3.928H45.5102ZM45.2902 14.29C48.5242 14.29 52.9022 14.224 56.6862 13.586L56.5322 11.452C52.8582 11.87 48.2822 11.914 45.0042 11.914L45.2902 14.29ZM47.1162 5.886V12.772H49.9322V5.886H47.1162ZM51.8462 5.886V12.772H54.6402V5.886H51.8462ZM59.1282 2.586V15.038H62.0542V2.586H59.1282ZM55.1462 15.346C50.8122 15.346 48.1722 16.732 48.1722 19.174C48.1722 21.572 50.8122 22.958 55.1462 22.958C59.4802 22.958 62.1202 21.572 62.1202 19.174C62.1202 16.732 59.4802 15.346 55.1462 15.346ZM55.1462 17.568C57.8302 17.568 59.2162 18.074 59.2162 19.174C59.2162 20.23 57.8302 20.758 55.1462 20.758C52.4842 20.758 51.0982 20.23 51.0982 19.174C51.0982 18.074 52.4842 17.568 55.1462 17.568ZM69.8845 3.18C66.7825 3.18 64.4505 5.116 64.4505 7.844C64.4505 10.55 66.7825 12.486 69.8845 12.486C72.9865 12.486 75.3185 10.55 75.3185 7.844C75.3185 5.116 72.9865 3.18 69.8845 3.18ZM69.8845 5.556C71.3805 5.556 72.4805 6.392 72.4805 7.844C72.4805 9.296 71.3805 10.132 69.8845 10.132C68.3885 10.132 67.2665 9.296 67.2665 7.844C67.2665 6.392 68.3885 5.556 69.8845 5.556ZM78.1345 2.586V12.772H81.0825V2.586H78.1345ZM67.4865 13.608V15.874H78.1785V17.084H67.5305V21.66H70.3905V19.196H81.0825V13.608H67.4865ZM67.5305 20.472V22.738H81.5885V20.472H67.5305ZM91.4208 10.088V12.442H94.7648V10.088H91.4208ZM97.9988 2.586V22.958H100.793V2.586H97.9988ZM93.8408 2.894V22.034H96.5908V2.894H93.8408ZM87.8568 4.016C85.1728 4.016 83.4568 6.81 83.4568 11.408C83.4568 16.028 85.1728 18.822 87.8568 18.822C90.5628 18.822 92.3008 16.028 92.3008 11.408C92.3008 6.81 90.5628 4.016 87.8568 4.016ZM87.8568 6.766C89.0008 6.766 89.6388 8.306 89.6388 11.408C89.6388 14.532 89.0008 16.05 87.8568 16.05C86.7568 16.05 86.1188 14.532 86.1188 11.408C86.1188 8.306 86.7568 6.766 87.8568 6.766ZM110.769 7.866V8.922C110.769 11.98 109.251 15.434 105.929 16.952L107.513 19.196C111.209 17.546 113.035 13.212 113.035 8.922V7.866H110.769ZM111.407 7.866V8.922C111.407 13.014 113.145 17.194 116.731 18.844L118.293 16.622C115.103 15.082 113.673 11.826 113.673 8.922V7.866H111.407ZM106.633 5.908V8.218H117.721V5.908H106.633ZM110.747 3.048V7.096H113.673V3.048H110.747ZM119.327 2.586V22.958H122.275V2.586H119.327ZM121.615 10.484V12.904H125.223V10.484H121.615ZM125.442 11.716V13.85H143.9V11.716H125.442ZM127.51 14.862V16.842H138.818V17.854H127.554V21.44H130.458V19.702H141.7V14.862H127.51ZM127.554 20.824V22.804H142.272V20.824H127.554ZM127.708 2.938V4.896H138.774V5.908H127.73V9.406H130.634V7.734H141.656V2.938H127.708ZM127.73 8.79V10.77H142.03V8.79H127.73ZM153.04 4.148V7.118C153.04 10.902 151.478 14.818 148.046 16.424L149.806 18.778C153.656 16.886 155.416 12.156 155.416 7.118V4.148H153.04ZM153.634 4.148V7.118C153.634 12.002 155.24 16.534 158.914 18.404L160.674 16.072C157.418 14.488 155.966 10.77 155.966 7.118V4.148H153.634ZM161.488 2.586V22.958H164.436V2.586H161.488ZM163.776 10.418V12.86H167.384V10.418H163.776ZM171.739 9.406V13.146H174.665V9.406H171.739ZM178.911 9.406V13.146H181.815V9.406H178.911ZM167.603 12.244V14.554H186.017V12.244H167.603ZM176.777 15.588C172.355 15.588 169.693 16.908 169.693 19.262C169.693 21.638 172.355 22.958 176.777 22.958C181.177 22.958 183.839 21.638 183.839 19.262C183.839 16.908 181.177 15.588 176.777 15.588ZM176.777 17.788C179.505 17.788 180.891 18.25 180.891 19.262C180.891 20.296 179.505 20.758 176.777 20.758C174.049 20.758 172.663 20.296 172.663 19.262C172.663 18.25 174.049 17.788 176.777 17.788ZM176.821 2.872C172.311 2.872 169.451 4.368 169.451 6.81C169.451 9.23 172.311 10.682 176.821 10.682C181.309 10.682 184.191 9.23 184.191 6.81C184.191 4.368 181.309 2.872 176.821 2.872ZM176.821 5.116C179.615 5.116 181.177 5.666 181.177 6.81C181.177 7.932 179.615 8.482 176.821 8.482C174.027 8.482 172.465 7.932 172.465 6.81C172.465 5.666 174.027 5.116 176.821 5.116ZM199.809 2.586V22.958H202.713V2.586H199.809ZM202.053 10.528V12.97H205.661V10.528H202.053ZM186.653 5.6V7.932H198.511V5.6H186.653ZM192.615 9.076C189.645 9.076 187.445 11.1 187.445 13.938C187.445 16.776 189.645 18.8 192.615 18.8C195.585 18.8 197.785 16.776 197.785 13.938C197.785 11.1 195.585 9.076 192.615 9.076ZM192.615 11.452C194.001 11.452 194.991 12.376 194.991 13.938C194.991 15.5 194.001 16.424 192.615 16.424C191.229 16.424 190.239 15.5 190.239 13.938C190.239 12.376 191.229 11.452 192.615 11.452ZM191.141 2.916V6.48H194.067V2.916H191.141ZM210.785 5.798V8.086C210.785 11.54 209.135 15.302 205.725 16.82L207.375 19.13C211.203 17.392 213.117 12.794 213.117 8.086V5.798H210.785ZM211.445 5.798V8.086C211.445 12.618 213.337 16.952 217.209 18.624L218.793 16.314C215.383 14.906 213.755 11.386 213.755 8.086V5.798H211.445ZM206.539 4.544V6.942H217.957V4.544H206.539ZM219.849 2.586V22.958H222.797V2.586H219.849ZM234.468 3.554C231.366 3.554 229.034 5.534 229.034 8.306C229.034 11.1 231.366 13.08 234.468 13.08C237.592 13.08 239.902 11.1 239.902 8.306C239.902 5.534 237.592 3.554 234.468 3.554ZM234.468 5.93C235.964 5.93 237.086 6.832 237.086 8.306C237.086 9.802 235.964 10.704 234.468 10.704C232.994 10.704 231.872 9.802 231.872 8.306C231.872 6.832 232.994 5.93 234.468 5.93ZM242.014 2.586V12.618H244.94V2.586H242.014ZM243.774 6.81V9.186H247.646V6.81H243.774ZM230.706 20.098V22.43H231.828C233.83 22.43 235.414 22.342 237.108 21.748L236.668 19.46C235.172 19.966 233.61 20.098 231.828 20.098H230.706ZM230.706 14.576V20.802H233.544V14.576H230.706ZM236.382 14.642V16.732H246.568V14.642H236.382ZM241.486 17.238C239.154 17.238 237.548 18.36 237.548 20.12C237.548 21.88 239.154 22.98 241.486 22.98C243.796 22.98 245.402 21.88 245.402 20.12C245.402 18.36 243.796 17.238 241.486 17.238ZM241.486 19.24C242.234 19.24 242.806 19.526 242.806 20.12C242.806 20.714 242.234 21 241.486 21C240.694 21 240.144 20.714 240.144 20.12C240.144 19.526 240.694 19.24 241.486 19.24ZM240.078 13.19V16.204H242.916V13.19H240.078ZM257.258 3.598C252.968 3.598 249.646 5.952 249.646 9.494C249.646 13.058 252.968 15.39 257.258 15.39C261.548 15.39 264.87 13.058 264.87 9.494C264.87 5.952 261.548 3.598 257.258 3.598ZM257.258 5.974C260.03 5.974 262.01 7.294 262.01 9.494C262.01 11.672 260.03 12.992 257.258 12.992C254.486 12.992 252.506 11.672 252.506 9.494C252.506 7.294 254.486 5.974 257.258 5.974ZM248.062 18.118V20.516H266.498V18.118H248.062ZM275.208 9.428V11.804H278.574V9.428H275.208ZM270.852 4.346V7.778C270.852 11.232 269.796 14.862 266.804 16.71L268.564 18.91C271.82 16.908 273.096 12.398 273.096 7.778V4.346H270.852ZM271.49 4.346V7.646C271.49 12.046 272.502 16.446 275.736 18.448L277.32 16.16C274.548 14.356 273.69 10.968 273.69 7.646V4.346H271.49ZM281.896 2.586V22.958H284.69V2.586H281.896ZM277.76 2.894V22.034H280.488V2.894H277.76ZM290.387 12.926V18.646H293.291V12.926H290.387ZM297.779 12.926V18.646H300.705V12.926H297.779ZM286.339 18.228V20.604H304.775V18.228H286.339ZM295.535 3.576C291.135 3.576 287.923 5.732 287.923 9.054C287.923 12.376 291.135 14.51 295.535 14.51C299.913 14.51 303.147 12.376 303.147 9.054C303.147 5.732 299.913 3.576 295.535 3.576ZM295.535 5.864C298.373 5.864 300.265 7.03 300.265 9.054C300.265 11.056 298.373 12.244 295.535 12.244C292.697 12.244 290.805 11.056 290.805 9.054C290.805 7.03 292.697 5.864 295.535 5.864ZM308.447 15.456H311.285C310.955 12.354 314.783 11.32 314.783 8.196C314.783 5.358 312.847 3.994 310.185 3.994C308.271 3.994 306.709 4.896 305.565 6.194L307.347 7.844C308.073 7.096 308.843 6.612 309.811 6.612C310.955 6.612 311.681 7.294 311.681 8.416C311.681 10.506 307.919 11.914 308.447 15.456ZM309.877 21.308C311.021 21.308 311.901 20.406 311.901 19.196C311.901 17.986 311.021 17.106 309.877 17.106C308.711 17.106 307.875 17.986 307.875 19.196C307.875 20.406 308.711 21.308 309.877 21.308Z" fill="#5D8BFF"/>
<path d="M44.7142 33.544V33.896C44.7142 39.616 43.2622 43.51 36.9262 46.7L38.4882 48.922C46.0782 45.072 47.5742 39.836 47.5742 33.544H44.7142ZM38.1802 33.544V35.854H46.4522V33.544H38.1802ZM44.7802 38.538L37.1242 38.978L37.4762 41.486L44.7802 40.782V38.538ZM50.0382 31.564V51.936H52.9862V31.564H50.0382ZM52.2162 39.352V41.75H55.8022V39.352H52.2162ZM57.0325 33.038V35.392H68.0105V33.038H57.0325ZM56.8125 43.312C60.3325 43.312 64.8865 43.224 68.9785 42.564L68.7585 40.43C64.8205 40.892 60.0685 40.936 56.5045 40.936L56.8125 43.312ZM58.6385 34.908V41.728H61.4325V34.908H58.6385ZM63.5665 34.908V41.728H66.4045V34.908H63.5665ZM59.1885 44.874V47.206H70.1445V51.958H73.0925V44.874H59.1885ZM70.1445 31.586V44.038H73.0925V31.586H70.1445ZM84.5087 32.598C80.2187 32.598 76.8967 34.952 76.8967 38.494C76.8967 42.058 80.2187 44.39 84.5087 44.39C88.7987 44.39 92.1207 42.058 92.1207 38.494C92.1207 34.952 88.7987 32.598 84.5087 32.598ZM84.5087 34.974C87.2807 34.974 89.2607 36.294 89.2607 38.494C89.2607 40.672 87.2807 41.992 84.5087 41.992C81.7367 41.992 79.7567 40.672 79.7567 38.494C79.7567 36.294 81.7367 34.974 84.5087 34.974ZM75.3127 47.118V49.516H93.7487V47.118H75.3127ZM94.451 47.338V49.714H112.887V47.338H94.451ZM102.173 43.488V48.306H105.099V43.488H102.173ZM96.519 32.906V35.216H107.915V37.394H96.563V43.114H99.467V39.682H110.819V32.906H96.519ZM96.563 41.948V44.302H111.281V41.948H96.563ZM119.674 49.274V51.606H133.798V49.274H119.674ZM119.674 45.71V50.066H122.6V45.71H119.674ZM117.452 42.146V44.478H135.888V42.146H117.452ZM125.174 39.308V43.048H128.078V39.308H125.174ZM125.13 32.158V32.774C125.13 35.15 122.952 37.614 118.398 38.252L119.52 40.54C124.69 39.726 127.638 36.624 127.638 32.774V32.158H125.13ZM125.614 32.158V32.774C125.614 36.734 128.562 39.682 133.732 40.54L134.854 38.252C130.256 37.636 128.122 35.26 128.122 32.774V32.158H125.614ZM142.178 41.112V44.588H145.082V41.112H142.178ZM139.626 44.192V51.738H153.574V44.192H150.67V45.864H142.53V44.192H139.626ZM142.53 48.064H150.67V49.45H142.53V48.064ZM150.648 31.586V43.334H153.574V31.586H150.648ZM136.964 42.476C140.638 42.476 145.368 42.432 149.746 41.662L149.57 39.594C145.28 40.144 140.374 40.166 136.634 40.166L136.964 42.476ZM141.936 32.114V32.906C141.936 34.732 140.55 36.47 137.316 37.152L138.57 39.352C142.442 38.516 144.268 35.986 144.268 32.906V32.114H141.936ZM142.618 32.114V32.906C142.618 35.854 144.488 38.252 148.294 39.044L149.504 36.822C146.38 36.25 144.972 34.622 144.972 32.906V32.114H142.618ZM170.49 31.586V51.958H173.284V31.586H170.49ZM162.416 39.396V41.706H166.772V39.396H162.416ZM166.2 32.026V51.056H168.928V32.026H166.2ZM161.756 33.984V34.578C161.756 39.506 160.106 42.894 155.464 45.688L157.114 47.734C162.834 44.412 164.572 39.792 164.572 33.984H161.756ZM156.608 33.984V36.316H162.68V33.984H156.608ZM186.495 43.048V47.69H189.421V43.048H186.495ZM187.969 32.62C183.613 32.62 180.357 34.842 180.357 38.23C180.357 41.662 183.613 43.862 187.969 43.862C192.325 43.862 195.581 41.662 195.581 38.23C195.581 34.842 192.325 32.62 187.969 32.62ZM187.969 34.93C190.763 34.93 192.699 36.162 192.699 38.23C192.699 40.342 190.763 41.552 187.969 41.552C185.175 41.552 183.239 40.342 183.239 38.23C183.239 36.162 185.175 34.93 187.969 34.93ZM178.773 47.228V49.604H197.209V47.228H178.773ZM212.079 31.586V52.024H215.005V31.586H212.079ZM206.601 37.878V40.232H212.915V37.878H206.601ZM198.945 33.764V46.414H201.849V33.764H198.945ZM198.945 44.808V47.228H200.661C203.653 47.228 206.777 47.052 210.055 46.392L209.747 43.972C206.579 44.61 203.565 44.808 200.661 44.808H198.945ZM217.049 40.892V43.268H235.485V40.892H217.049ZM219.271 37.174V39.484H233.395V37.174H219.271ZM219.271 32.136V38.318H222.175V34.468H233.285V32.136H219.271ZM226.201 44.478C221.801 44.478 219.117 45.82 219.117 48.218C219.117 50.616 221.801 51.958 226.201 51.958C230.601 51.958 233.263 50.616 233.263 48.218C233.263 45.82 230.601 44.478 226.201 44.478ZM226.201 46.678C228.929 46.678 230.315 47.184 230.315 48.218C230.315 49.274 228.929 49.736 226.201 49.736C223.473 49.736 222.087 49.274 222.087 48.218C222.087 47.184 223.473 46.678 226.201 46.678ZM236.166 42.498V44.83H254.624V42.498H236.166ZM238.432 31.982V34.204H249.498V35.436H238.454V39.704H241.358V37.504H252.38V31.982H238.432ZM238.454 38.824V41.046H252.776V38.824H238.454ZM243.932 39.902V43.774H246.858V39.902H243.932ZM238.212 45.974V48.284H249.586V51.892H252.512V45.974H238.212ZM272.256 31.586V51.958H275.16V31.586H272.256ZM274.5 39.528V41.97H278.108V39.528H274.5ZM259.1 34.6V36.932H270.958V34.6H259.1ZM265.062 38.076C262.092 38.076 259.892 40.1 259.892 42.938C259.892 45.776 262.092 47.8 265.062 47.8C268.032 47.8 270.232 45.776 270.232 42.938C270.232 40.1 268.032 38.076 265.062 38.076ZM265.062 40.452C266.448 40.452 267.438 41.376 267.438 42.938C267.438 44.5 266.448 45.424 265.062 45.424C263.676 45.424 262.686 44.5 262.686 42.938C262.686 41.376 263.676 40.452 265.062 40.452ZM263.588 31.916V35.48H266.514V31.916H263.588ZM286.357 38.428V40.804H289.723V38.428H286.357ZM282.001 33.346V36.778C282.001 40.232 280.945 43.862 277.953 45.71L279.713 47.91C282.969 45.908 284.245 41.398 284.245 36.778V33.346H282.001ZM282.639 33.346V36.646C282.639 41.046 283.651 45.446 286.885 47.448L288.469 45.16C285.697 43.356 284.839 39.968 284.839 36.646V33.346H282.639ZM293.045 31.586V51.958H295.839V31.586H293.045ZM288.909 31.894V51.034H291.637V31.894H288.909ZM301.535 41.926V47.646H304.439V41.926H301.535ZM308.927 41.926V47.646H311.853V41.926H308.927ZM297.487 47.228V49.604H315.923V47.228H297.487ZM306.683 32.576C302.283 32.576 299.071 34.732 299.071 38.054C299.071 41.376 302.283 43.51 306.683 43.51C311.061 43.51 314.295 41.376 314.295 38.054C314.295 34.732 311.061 32.576 306.683 32.576ZM306.683 34.864C309.521 34.864 311.413 36.03 311.413 38.054C311.413 40.056 309.521 41.244 306.683 41.244C303.845 41.244 301.953 40.056 301.953 38.054C301.953 36.03 303.845 34.864 306.683 34.864ZM318.737 44.456H320.849L321.311 36.338L321.399 33.28H318.165L318.253 36.338L318.737 44.456ZM319.771 50.308C320.937 50.308 321.795 49.406 321.795 48.196C321.795 46.986 320.937 46.106 319.771 46.106C318.627 46.106 317.769 46.986 317.769 48.196C317.769 49.406 318.627 50.308 319.771 50.308Z" fill="black"/>
<g clip-path="url(#clip0_470_1799)">
<path d="M0 342.238C0 342.561 0.260788 342.82 0.585539 342.82H359.414C359.739 342.82 360 342.561 360 342.238C360 341.916 359.739 341.657 359.414 341.657H0.585539C0.260788 341.657 0 341.916 0 342.238Z" fill="#3F3D56"/>
<path d="M229.768 218.868L231.651 242.783L258.937 231.466L243.545 207.143L229.768 218.868Z" fill="#A0616A"/>
<path d="M228.951 226.154C240.184 226.154 249.29 217.112 249.29 205.958C249.29 194.804 240.184 185.762 228.951 185.762C217.717 185.762 208.611 194.804 208.611 205.958C208.611 217.112 217.717 226.154 228.951 226.154Z" fill="#A0616A"/>
<path d="M190.898 394.255L194.342 424.929L170.233 421.613L178.105 393.277L190.898 394.255Z" fill="#A0616A"/>
<path d="M284.875 398.651L288.319 429.326L264.21 426.01L272.082 397.674L284.875 398.651Z" fill="#A0616A"/>
<path d="M227.554 306.073C227.225 306.073 200.913 307.385 183.529 308.253C175.301 308.664 169.038 315.735 169.676 323.891L175.891 403.293L193.604 403.781L194.036 339.782L229.03 341.736L227.554 306.073Z" fill="#2F2E41"/>
<path d="M304.802 305.584C304.802 305.584 309.23 339.294 305.786 342.713C302.342 346.133 194.342 340.026 194.342 340.026C194.342 340.026 218.035 306.055 222.303 305.087C226.57 304.119 294.469 300.699 294.469 300.699L304.802 305.584V305.584Z" fill="#2F2E41"/>
<path d="M164.891 263.143C160.778 257.432 160.412 250.695 164.073 248.097C167.734 245.498 174.035 248.022 178.149 253.736C179.823 255.997 180.929 258.622 181.372 261.393L198.49 285.811L188.748 292.508L171.146 268.651C168.648 267.337 166.503 265.449 164.891 263.143V263.143Z" fill="#A0616A"/>
<path d="M228.784 234.013L253.877 223.753L301.112 296.058C301.112 296.058 268.146 303.386 256.829 304.851C245.513 306.317 232.72 300.455 232.72 300.455L228.784 234.013V234.013Z" fill="#5D8BFF"/>
<path d="M259.29 246.226L250.187 218.033L261.996 226.929C261.996 226.929 295.453 248.913 295.453 258.196C295.453 267.478 305.786 295.813 305.786 295.813C305.786 295.813 317.349 305.34 313.412 314.134C309.476 322.927 318.579 321.706 319.563 328.057C320.547 334.408 305.54 342.958 305.54 342.958C305.54 342.958 301.85 307.05 290.041 307.05C278.233 307.05 259.29 246.226 259.29 246.226Z" fill="#3F3D56"/>
<path d="M230.547 233.292L218.206 238.165C218.206 238.165 220.174 272.363 222.142 275.295C224.11 278.226 230.998 293.859 230.998 293.859V298.954C230.998 298.954 217.222 303.141 217.714 305.584C218.206 308.027 250.187 314.866 250.187 314.866C250.187 314.866 243.791 295.325 239.855 288.974C235.918 282.623 230.547 233.292 230.547 233.292V233.292Z" fill="#3F3D56"/>
<path d="M222.634 238.165C222.634 238.165 208.365 236.211 205.905 252.822C203.445 269.432 205.008 271.631 205.008 271.631L200.985 281.157L187.7 266.501L174.907 274.806C174.907 274.806 198.033 311.935 207.381 310.958C216.729 309.981 230.506 283.111 230.506 283.111L222.634 238.165V238.165Z" fill="#3F3D56"/>
<path d="M293.898 310.977L286.597 413.552L267.654 412.819C267.654 412.819 263.472 315.844 263.472 314.378C263.472 312.912 265.44 304.607 277.741 304.119C290.041 303.63 293.898 310.977 293.898 310.977Z" fill="#2F2E41"/>
<path d="M266.424 415.506C266.424 415.506 276.265 412.575 277.741 414.529C279.217 416.483 287.581 417.46 287.581 417.46L290.041 441.399C290.041 441.399 283.153 446.284 282.169 447.261C281.185 448.238 255.107 449.216 254.615 443.353C254.123 437.491 261.504 430.162 261.504 430.162L266.424 415.506V415.506Z" fill="#2F2E41"/>
<path d="M194.096 408.667C194.096 408.667 197.048 406.224 198.033 413.063C199.017 419.903 202.461 431.139 197.54 432.605C192.62 434.071 143.418 434.559 143.418 430.162V425.766L147.846 422.346L156.704 420.944C156.704 420.944 173.923 405.247 175.891 405.247C177.859 405.247 184.256 411.598 184.256 411.598L194.096 408.667V408.667Z" fill="#2F2E41"/>
<path d="M248.957 216.914C248.957 216.914 239.117 205.189 235.18 206.166C231.244 207.143 233.704 208.609 233.704 208.609L223.864 197.861C223.864 197.861 215.991 194.929 208.611 204.212C208.611 204.212 204.183 196.395 208.611 191.998C213.039 187.601 214.515 188.09 215.499 185.647C216.483 183.204 223.372 181.25 223.372 181.25C223.372 181.25 222.977 177.734 225.142 179.492C227.308 181.25 232.716 181.25 232.716 181.25C232.716 181.25 232.747 179.296 234.948 181.25C237.148 183.204 239.609 182.227 239.609 182.227C239.609 182.227 239.609 185.609 241.331 185.628C243.053 185.647 246.005 183.204 246.497 185.159C246.989 187.113 250.433 188.09 250.925 193.952C251.417 199.815 248.957 216.914 248.957 216.914V216.914Z" fill="#2F2E41"/>
<path d="M224.491 365.53H156.201C153.845 365.53 151.927 363.626 151.927 361.286V333.621C151.927 331.281 153.845 329.377 156.201 329.377H224.491C226.847 329.377 228.765 331.281 228.765 333.621V361.286C228.765 363.626 226.847 365.53 224.491 365.53Z" fill="white"/>
<path d="M228.639 333.621V361.286C228.639 363.562 226.783 365.405 224.491 365.405H190.976C186.118 359.678 183.19 352.285 183.19 344.212C183.19 338.924 184.445 333.93 186.677 329.502H224.491C226.784 329.502 228.639 331.345 228.639 333.621L228.639 333.621Z" fill="#E6E6E6"/>
<path d="M224.491 366.018H156.201C153.573 366.018 151.435 363.896 151.435 361.286V333.621C151.435 331.012 153.573 328.889 156.201 328.889H224.491C227.119 328.889 229.257 331.012 229.257 333.621V361.286C229.257 363.896 227.119 366.018 224.491 366.018V366.018ZM156.201 329.866C154.116 329.866 152.419 331.55 152.419 333.621V361.286C152.419 363.357 154.116 365.041 156.201 365.041H224.491C226.576 365.041 228.273 363.357 228.273 361.286V333.621C228.273 331.55 226.576 329.866 224.491 329.866H156.201Z" fill="#3F3D56"/>
<path d="M160.339 356.055C158.609 356.055 157.201 357.453 157.201 359.172C157.201 360.89 158.609 362.288 160.339 362.288H167.37C169.101 362.288 170.509 360.89 170.509 359.172C170.509 357.453 169.101 356.055 167.37 356.055H160.339Z" fill="#5D8BFF"/>
<path d="M181.739 332.12C179.008 332.12 176.787 334.326 176.787 337.037C176.787 339.749 179.008 341.954 181.739 341.954H192.676C195.407 341.954 197.628 339.749 197.628 337.037C197.628 334.326 195.407 332.12 192.676 332.12H181.739Z" fill="#5D8BFF"/>
<path d="M229.123 340.716C222.851 343.958 216.082 343.374 214.005 339.41C211.927 335.446 215.327 329.606 221.602 326.363C224.09 325.033 226.863 324.315 229.689 324.267L256.438 310.861L261.75 321.378L235.492 335.338C233.832 337.61 231.648 339.454 229.123 340.716V340.716Z" fill="#A0616A"/>
<path d="M259.536 226.44C259.536 226.44 287.089 224.975 292.993 239.631C298.898 254.287 303.818 302.164 303.818 302.164L243.791 334.591L233.458 318.775L273.804 287.508L259.536 226.44V226.44Z" fill="#3F3D56"/>
</g>
<path d="M56.4617 267.142C55.4126 267.143 54.4069 267.562 53.6651 268.306C52.9234 269.05 52.5061 270.059 52.5049 271.112V280.399C52.5061 281.452 52.9234 282.461 53.6651 283.205C54.4069 283.95 55.4126 284.368 56.4617 284.369H61.4804C62.5294 284.368 63.5352 283.95 64.277 283.205C65.0187 282.461 65.436 281.452 65.4372 280.399V271.112C65.436 270.059 65.0187 269.05 64.277 268.306C63.5352 267.562 62.5294 267.143 61.4804 267.142H56.4617Z" fill="#3F3D56"/>
<path d="M149.235 284.678H144.216C143.085 284.677 142.001 284.226 141.202 283.424C140.402 282.622 139.953 281.534 139.951 280.399V271.112C139.953 269.977 140.402 268.89 141.202 268.087C142.001 267.285 143.085 266.834 144.216 266.833H149.235C150.365 266.834 151.449 267.285 152.249 268.087C153.048 268.89 153.498 269.977 153.499 271.112V280.399C153.498 281.534 153.048 282.622 152.249 283.424C151.449 284.226 150.365 284.677 149.235 284.678V284.678Z" fill="#3F3D56"/>
<path d="M145.905 277.242H59.4838C55.5508 277.242 52.351 274.916 52.351 272.056V255.383L56.6406 250.85H149.582L153.037 255.392V272.056C153.037 274.916 149.838 277.242 145.905 277.242Z" fill="#CCCCCC"/>
<path d="M149.179 259.191H57.1333L56.1979 244.801L56.7932 243.328L60.2531 234.786H145.436L150.115 244.486L149.179 259.191Z" fill="#CCCCCC"/>
<path d="M149.958 244.517L149.272 255.33H129.02V247.297L149.382 243.325L149.958 244.517Z" fill="white"/>
<path d="M76.984 247.297V255.33H57.0373L56.3537 244.826L56.9358 243.386L76.984 247.297Z" fill="white"/>
<path d="M144.923 237.257H60.7655L69.7415 207.238C70.1076 205.998 70.8615 204.909 71.8918 204.132C72.9221 203.356 74.1742 202.932 75.4629 202.924L131.197 202.391C132.544 202.378 133.856 202.818 134.925 203.64C135.994 204.462 136.758 205.619 137.096 206.927L144.923 237.257Z" fill="#CCCCCC"/>
<path d="M138.444 234.419L67.2304 233.571C67.1404 233.57 67.0519 233.548 66.972 233.506C66.8921 233.465 66.823 233.405 66.7704 233.332C66.7177 233.258 66.683 233.174 66.6689 233.084C66.6548 232.995 66.6618 232.904 66.6893 232.818L73.5162 211.447C73.5534 211.33 73.6266 211.229 73.725 211.157C73.8235 211.085 73.9423 211.046 74.0642 211.046H131.343C131.465 211.046 131.584 211.084 131.682 211.157C131.78 211.229 131.854 211.33 131.891 211.447L138.999 233.665C139.027 233.752 139.034 233.844 139.019 233.935C139.004 234.025 138.968 234.111 138.914 234.184C138.86 234.258 138.789 234.317 138.707 234.358C138.626 234.399 138.535 234.42 138.444 234.419V234.419Z" fill="white"/>
<path d="M112.442 206.055H93.2468C93.0851 206.055 92.9384 205.895 92.8639 205.638C92.7898 205.374 92.8005 205.094 92.8945 204.837L94.4774 200.821C94.5581 200.616 94.6898 200.494 94.8297 200.494H110.859C110.999 200.494 111.13 200.616 111.211 200.821L112.794 204.837C112.888 205.094 112.899 205.374 112.824 205.638C112.75 205.895 112.603 206.055 112.442 206.055Z" fill="#5D8BFF"/>
<path d="M60.8185 236.639H48.1942V233.855C48.1952 232.955 48.552 232.092 49.1863 231.456C49.8206 230.819 50.6806 230.461 51.5776 230.46H60.8185V236.639Z" fill="#CCCCCC"/>
<path d="M157.502 236.639H144.878V230.46H154.119C155.016 230.461 155.876 230.819 156.51 231.456C157.144 232.092 157.501 232.955 157.502 233.855V236.639Z" fill="#CCCCCC"/>
<path d="M121.841 167.261C121.841 172.369 119.813 177.269 116.205 180.881C112.596 184.493 107.701 186.522 102.598 186.522C97.494 186.522 92.5994 184.493 88.9906 180.881C85.3818 177.269 83.3544 172.369 83.3544 167.261C83.3544 166.651 83.3837 166.05 83.4391 165.456C83.9028 160.526 86.2458 155.964 89.9815 152.717C93.7172 149.471 98.5586 147.789 103.5 148.021C108.442 148.254 113.105 150.382 116.52 153.965C119.935 157.547 121.841 162.309 121.841 167.261Z" fill="#5D8BFF"/>
<path d="M108.328 168.541C107.862 167.927 107.248 167.441 106.544 167.127C105.676 166.761 104.779 166.466 103.863 166.246V161.003C105.271 161.215 106.592 161.818 107.676 162.743L108.739 160.474C108.128 159.929 107.426 159.494 106.665 159.191C105.821 158.849 104.936 158.622 104.033 158.515V155.858H101.57V158.541C100.619 158.648 99.7021 158.956 98.8795 159.446C98.1363 159.886 97.5107 160.5 97.0561 161.235C96.6223 161.952 96.3975 162.776 96.4072 163.614C96.3648 164.523 96.6277 165.419 97.1541 166.161C97.6385 166.803 98.2783 167.311 99.0131 167.636C99.8952 168.014 100.807 168.316 101.74 168.541V173.565C100.078 173.44 98.4946 172.807 97.203 171.753L96.1398 174.025C96.862 174.623 97.6833 175.089 98.5664 175.403C99.534 175.75 100.545 175.96 101.57 176.03V178.664H104.033V175.981C105.4 175.831 106.683 175.243 107.689 174.303C108.132 173.878 108.482 173.365 108.716 172.797C108.951 172.23 109.065 171.62 109.052 171.006C109.093 170.126 108.838 169.258 108.328 168.541V168.541ZM101.74 165.691C101.14 165.509 100.582 165.209 100.099 164.809C99.9078 164.639 99.7565 164.428 99.6561 164.192C99.5558 163.956 99.5088 163.701 99.5187 163.445C99.5009 162.863 99.7144 162.299 100.112 161.874C100.553 161.43 101.122 161.134 101.74 161.029V165.691ZM105.409 172.638C104.993 173.065 104.451 173.348 103.863 173.444V169.122C104.425 169.273 104.951 169.536 105.409 169.896C105.583 170.044 105.721 170.23 105.813 170.439C105.905 170.648 105.948 170.875 105.941 171.103C105.963 171.664 105.773 172.212 105.409 172.638V172.638Z" fill="white"/>
<defs>
<clipPath id="clip0_470_1799">
<rect width="360" height="269" fill="white" transform="translate(0 179)"/>
</clipPath>
</defs>
</svg>
