<svg width="236" height="165" viewBox="0 0 236 165" fill="none" xmlns="http://www.w3.org/2000/svg">
<g clip-path="url(#clip0_191_1319)">
<path d="M47.0214 165C72.9907 165 94.0429 163.393 94.0429 161.411C94.0429 159.429 72.9907 157.822 47.0214 157.822C21.0522 157.822 0 159.429 0 161.411C0 163.393 21.0522 165 47.0214 165Z" fill="#E6E6E6"/>
<path d="M35.9423 36.6111C44.1254 33.1135 54.3176 35.3295 64.2715 36.8675C64.3641 35.005 65.4868 32.7382 64.3107 31.4388C62.8819 29.8601 63.0134 28.2014 63.8732 26.5331C66.0719 22.267 62.9218 17.7277 59.7412 13.9533C59.0243 13.1045 58.1183 12.4375 57.0968 12.0067C56.0752 11.5758 54.9669 11.3932 53.8619 11.4736L47.9701 11.8965C46.5364 11.9994 45.1682 12.5398 44.0485 13.4455C42.9288 14.3512 42.1111 15.5789 41.7047 16.9643C40.2978 18.887 39.5449 20.8044 40.0189 22.7118C37.9117 24.1589 37.5577 25.9057 38.5046 27.8749C39.3075 29.1148 39.299 30.3217 38.4681 31.4952C37.3768 32.9913 36.541 34.6595 35.9949 36.4315L35.9423 36.6111Z" fill="#2F2E41"/>
<path d="M230.408 142.64H63.6251C62.142 142.64 60.7195 142.048 59.6708 140.994C58.622 139.94 58.0328 138.511 58.0328 137.02C118.491 129.959 177.814 129.959 236 137.02C236 138.511 235.411 139.94 234.362 140.994C233.313 142.048 231.891 142.64 230.408 142.64Z" fill="#2F2E41"/>
<path d="M236 137.35L58.0328 137.02L78.6586 102.145L78.7573 101.98V25.1195C78.7572 24.1866 78.94 23.2628 79.2953 22.4009C79.6505 21.539 80.1712 20.7558 80.8277 20.0961C81.4842 19.4365 82.2635 18.9132 83.1212 18.5562C83.979 18.1992 84.8983 18.0155 85.8266 18.0156H207.219C208.148 18.0155 209.067 18.1992 209.925 18.5562C210.782 18.9132 211.562 19.4365 212.218 20.0961C212.875 20.7558 213.395 21.539 213.751 22.4009C214.106 23.2628 214.289 24.1866 214.289 25.1195V102.509L236 137.35Z" fill="#3F3D56"/>
<path d="M85.6654 22.9746C85.0549 22.9753 84.4696 23.2193 84.0379 23.6531C83.6062 24.0869 83.3634 24.6751 83.3627 25.2886V95.3689C83.3634 95.9824 83.6062 96.5705 84.0379 97.0043C84.4696 97.4381 85.0549 97.6821 85.6654 97.6829H208.367C208.978 97.6821 209.563 97.4381 209.995 97.0043C210.426 96.5705 210.669 95.9824 210.67 95.3689V25.2886C210.669 24.6751 210.427 24.0869 209.995 23.6531C209.563 23.2194 208.978 22.9753 208.367 22.9746H85.6654Z" fill="white"/>
<path d="M86.1796 106.938C85.9909 106.939 85.8063 106.993 85.6474 107.096C85.4886 107.198 85.3621 107.344 85.283 107.516L78.9275 121.4C78.8583 121.551 78.8281 121.717 78.8395 121.883C78.851 122.049 78.9038 122.209 78.993 122.349C79.0823 122.489 79.2052 122.604 79.3504 122.684C79.4956 122.764 79.6585 122.806 79.824 122.806H213.476C213.644 122.806 213.809 122.763 213.956 122.68C214.103 122.598 214.227 122.479 214.315 122.335C214.403 122.192 214.454 122.027 214.461 121.859C214.469 121.69 214.433 121.522 214.358 121.37L207.45 107.487C207.368 107.322 207.243 107.183 207.087 107.086C206.931 106.989 206.751 106.938 206.567 106.938H86.1796Z" fill="#2F2E41"/>
<path d="M146.523 21.8179C147.34 21.8179 148.003 21.1519 148.003 20.3303C148.003 19.5088 147.34 18.8428 146.523 18.8428C145.705 18.8428 145.043 19.5088 145.043 20.3303C145.043 21.1519 145.705 21.8179 146.523 21.8179Z" fill="white"/>
<path d="M133.386 125.45C133.169 125.45 132.958 125.522 132.786 125.655C132.614 125.788 132.49 125.974 132.433 126.184L130.839 132.134C130.8 132.281 130.794 132.435 130.824 132.585C130.853 132.734 130.916 132.874 131.009 132.995C131.101 133.116 131.219 133.214 131.355 133.281C131.491 133.349 131.64 133.384 131.792 133.384H162.11C162.267 133.384 162.422 133.346 162.562 133.274C162.702 133.201 162.823 133.096 162.914 132.967C163.005 132.838 163.064 132.69 163.087 132.533C163.109 132.377 163.094 132.217 163.042 132.068L160.993 126.117C160.925 125.923 160.8 125.754 160.632 125.634C160.465 125.515 160.265 125.45 160.06 125.45H133.386Z" fill="#2F2E41"/>
<path d="M214.289 100.823V102.145H78.6586L78.7606 101.98V100.823H214.289Z" fill="#2F2E41"/>
<path d="M210.506 46.2794C223.223 46.2794 233.533 35.9194 233.533 23.1397C233.533 10.36 223.223 0 210.506 0C197.788 0 187.478 10.36 187.478 23.1397C187.478 35.9194 197.788 46.2794 210.506 46.2794Z" fill="#5D8BFF"/>
<path d="M220.045 33.2222H200.966C200.617 33.2219 200.282 33.0824 200.036 32.8345C199.789 32.5867 199.65 32.2505 199.65 31.8999V20.3301C199.65 19.9795 199.789 19.6434 200.036 19.3955C200.282 19.1476 200.617 19.0082 200.966 19.0078H220.045C220.394 19.0082 220.729 19.1476 220.975 19.3955C221.222 19.6434 221.361 19.9795 221.361 20.3301V31.8999C221.361 32.2505 221.222 32.5866 220.975 32.8345C220.729 33.0825 220.394 33.2219 220.045 33.2222ZM200.966 20.3301V31.8999H220.046L220.045 20.3301L200.966 20.3301Z" fill="white"/>
<path d="M216.427 20.3301H204.584V15.041C204.584 11.2101 207.075 8.42969 210.506 8.42969C213.937 8.42969 216.427 11.2101 216.427 15.041L216.427 20.3301ZM205.9 19.0079H215.111V15.041C215.111 11.9269 213.217 9.75196 210.506 9.75196C207.794 9.75196 205.9 11.927 205.9 15.041L205.9 19.0079Z" fill="white"/>
<path d="M210.506 27.1065C211.232 27.1065 211.821 26.5145 211.821 25.7842C211.821 25.0539 211.232 24.4619 210.506 24.4619C209.779 24.4619 209.19 25.0539 209.19 25.7842C209.19 26.5145 209.779 27.1065 210.506 27.1065Z" fill="white"/>
<path d="M194.431 73.9123H99.6021C99.1366 73.9118 98.6902 73.7257 98.361 73.3949C98.0318 73.064 97.8466 72.6155 97.8461 72.1477V48.5098C97.8466 48.0419 98.0318 47.5934 98.361 47.2626C98.6902 46.9318 99.1366 46.7457 99.6021 46.7451H194.431C194.896 46.7457 195.343 46.9318 195.672 47.2626C196.001 47.5934 196.186 48.0419 196.187 48.5098V72.1477C196.186 72.6155 196.001 73.064 195.672 73.3949C195.343 73.7257 194.896 73.9118 194.431 73.9123ZM99.6021 47.451C99.3228 47.4513 99.055 47.563 98.8574 47.7614C98.6599 47.9599 98.5488 48.2291 98.5485 48.5098V72.1477C98.5488 72.4284 98.6599 72.6975 98.8574 72.896C99.055 73.0945 99.3228 73.2061 99.6021 73.2065H194.431C194.71 73.2061 194.978 73.0945 195.175 72.896C195.373 72.6975 195.484 72.4284 195.484 72.1477V48.5098C195.484 48.2291 195.373 47.9599 195.175 47.7614C194.978 47.5629 194.71 47.4513 194.431 47.451L99.6021 47.451Z" fill="#E6E6E6"/>
<path d="M114.337 66.61C118.287 66.61 121.49 63.3917 121.49 59.4217C121.49 55.4517 118.287 52.2334 114.337 52.2334C110.386 52.2334 107.183 55.4517 107.183 59.4217C107.183 63.3917 110.386 66.61 114.337 66.61Z" fill="#E6E6E6"/>
<path d="M130.857 54.6289C130.701 54.6287 130.545 54.6595 130.401 54.7196C130.256 54.7796 130.124 54.8679 130.013 54.9791C129.902 55.0904 129.814 55.2226 129.754 55.368C129.694 55.5135 129.663 55.6695 129.663 55.827C129.663 55.9844 129.694 56.1404 129.754 56.2859C129.814 56.4313 129.902 56.5635 130.013 56.6748C130.124 56.7861 130.256 56.8743 130.401 56.9344C130.545 56.9945 130.701 57.0253 130.857 57.025H187.062C187.378 57.025 187.682 56.8988 187.905 56.6741C188.129 56.4494 188.254 56.1447 188.254 55.827C188.254 55.5092 188.129 55.2045 187.905 54.9798C187.682 54.7551 187.378 54.6289 187.062 54.6289H130.857Z" fill="#E6E6E6"/>
<path d="M130.857 61.8174C130.541 61.8174 130.238 61.9436 130.014 62.1683C129.791 62.393 129.665 62.6977 129.665 63.0154C129.665 63.3332 129.791 63.6379 130.014 63.8626C130.238 64.0873 130.541 64.2135 130.857 64.2135H155.042C155.359 64.2135 155.662 64.0873 155.885 63.8626C156.109 63.6379 156.235 63.3332 156.235 63.0154C156.235 62.6977 156.109 62.393 155.885 62.1683C155.662 61.9436 155.359 61.8174 155.042 61.8174H130.857Z" fill="#E6E6E6"/>
<path d="M78.4252 62.3024L60.8954 71.6676L60.6735 63.8633C66.3951 62.9035 71.8386 61.2324 76.8719 58.5118L78.7053 53.9601C78.905 53.4641 79.2297 53.0289 79.6475 52.6971C80.0652 52.3653 80.5616 52.1484 81.088 52.0676C81.6143 51.9868 82.1526 52.045 82.6498 52.2364C83.147 52.4278 83.5862 52.7458 83.9242 53.1593C84.4187 53.7642 84.6658 54.5354 84.6156 55.3166C84.5654 56.0978 84.2216 56.8307 83.6538 57.3667L78.4252 62.3024Z" fill="#FFB8B8"/>
<path d="M35.5929 116.374C35.465 115.903 35.4378 115.409 35.5132 114.927C35.5886 114.444 35.7647 113.983 36.0301 113.574L39.8809 107.635C40.7917 106.23 42.1893 105.216 43.8024 104.788C45.4156 104.361 47.1293 104.55 48.6111 105.321C46.9928 108.089 47.2184 110.517 49.1701 112.628C46.1403 114.114 43.3401 116.032 40.8562 118.323C40.4027 118.634 39.882 118.831 39.3373 118.899C38.7926 118.966 38.2397 118.902 37.7248 118.711C37.2099 118.52 36.7477 118.209 36.3769 117.802C36.006 117.396 35.7372 116.906 35.5929 116.374Z" fill="#2F2E41"/>
<path d="M79.2236 108.609C78.6409 109.585 77.8184 110.394 76.8349 110.958C75.8515 111.523 74.7402 111.824 73.6076 111.832L48.0255 112.027L46.916 105.561L58.2327 102.216L48.6912 94.8577L59.1203 82.5938L78.0628 100.335C79.1699 101.372 79.8893 102.76 80.1006 104.266C80.3119 105.772 80.0023 107.305 79.2236 108.609Z" fill="#2F2E41"/>
<path d="M44.0313 152.832H38.0401C32.6608 115.78 27.1853 78.6233 43.3656 64.7549L62.4486 67.8766L60.0078 84.1542L49.3568 96.4181L44.0313 152.832Z" fill="#2F2E41"/>
<path d="M49.2979 161.226C48.8289 161.354 48.3381 161.382 47.8579 161.306C47.3776 161.23 46.9187 161.053 46.5114 160.787L40.0062 159.908C38.6083 158.993 37.5986 157.589 37.1729 155.968C36.7473 154.347 36.936 152.624 37.7024 151.135C40.4573 152.761 42.8739 152.535 44.974 150.573C46.4578 153.584 48.9026 153.4 51.2375 155.937C51.5467 156.392 51.743 156.916 51.8102 157.463C51.8773 158.01 51.8133 158.566 51.6236 159.083C51.4338 159.601 51.1238 160.065 50.7192 160.438C50.3147 160.811 49.8274 161.081 49.2979 161.226Z" fill="#2F2E41"/>
<path d="M58.2326 40.0038L47.1378 37.3281C48.9805 33.5378 49.1322 29.3204 48.2473 24.8411L55.7917 24.6182C56.0282 30.1882 56.7433 35.3921 58.2326 40.0038Z" fill="#FFB8B8"/>
<path d="M61.2818 74.5906C53.2052 80.1211 47.4985 74.7798 43.1437 66.5389C43.7488 61.4962 42.769 55.4616 40.9543 48.9045C40.1472 46.0124 40.4485 42.9213 41.7987 40.2415C43.1489 37.5617 45.4498 35.4879 48.2473 34.4297L57.7888 38.4433C65.8907 45.0796 67.4853 52.2679 64.4457 59.8495L61.2818 74.5906Z" fill="#5D8BFF"/>
<path d="M38.0402 45.5787L29.1643 50.2613L44.9189 59.6265L47.1111 65.0602C47.2574 65.4229 47.3287 65.8117 47.3206 66.203C47.3125 66.5942 47.2252 66.9797 47.064 67.336C46.9027 67.6922 46.671 68.0117 46.3829 68.275C46.0948 68.5384 45.7564 68.7399 45.3882 68.8675C44.9697 69.0125 44.5235 69.0582 44.0844 69.001C43.6454 68.9438 43.2255 68.7852 42.8577 68.5377C42.4898 68.2902 42.184 67.9605 41.9641 67.5744C41.7442 67.1883 41.6163 66.7563 41.5903 66.3122L41.3686 62.5252L21.3447 55.885C20.67 55.6613 20.0549 55.2862 19.5458 54.7882C19.0368 54.2902 18.6472 53.6824 18.4065 53.0107C18.0558 52.0315 18.0379 50.9632 18.3558 49.9728C18.6736 48.9824 19.3092 48.1258 20.1632 47.5371L36.265 36.4365L38.0402 45.5787Z" fill="#FFB8B8"/>
<path d="M46.916 46.4702C43.2142 44.84 39.8481 46.6109 35.5993 48.0311L34.9336 36.2131C39.1525 33.9535 43.1749 33.3443 46.916 35.0982L46.916 46.4702Z" fill="#5D8BFF"/>
<path d="M51.3441 30.4728C55.2563 30.4728 58.4277 27.2858 58.4277 23.3545C58.4277 19.4233 55.2563 16.2363 51.3441 16.2363C47.4319 16.2363 44.2605 19.4233 44.2605 23.3545C44.2605 27.2858 47.4319 30.4728 51.3441 30.4728Z" fill="#FFB8B8"/>
<path d="M59.8184 22.4566C52.805 23.1468 47.4609 21.9942 44.0454 18.7123V16.0693H59.2232L59.8184 22.4566Z" fill="#2F2E41"/>
</g>
<defs>
<clipPath id="clip0_191_1319">
<rect width="236" height="165" fill="white"/>
</clipPath>
</defs>
</svg>
