<svg width="37" height="27" viewBox="0 0 24 14" fill="none" xmlns="http://www.w3.org/2000/svg">
<path d="M0 12.056V1C0 0.447715 0.447716 0 1 0H23C23.5523 0 24 0.447715 24 1V12.056C24 12.6083 23.5523 13.056 23 13.056H1C0.447715 13.056 0 12.6083 0 12.056Z" fill="#5D8BFF"/>
<line x1="12.5" y1="5.5" x2="19.948" y2="5.5" stroke="white" stroke-linecap="round"/>
<line x1="12.5" y1="7.5" x2="19.948" y2="7.5" stroke="white" stroke-linecap="round"/>
<line x1="12.5" y1="9.5" x2="19.948" y2="9.5" stroke="white" stroke-linecap="round"/>
<line x1="12.5" y1="3.5" x2="19.948" y2="3.5" stroke="white" stroke-linecap="round"/>
<path d="M5.572 6.85804C6.42064 6.85804 7.108 6.17068 7.108 5.32204C7.108 4.4734 6.42064 3.78604 5.572 3.78604C4.72336 3.78604 4.036 4.4734 4.036 5.32204C4.036 6.17068 4.72336 6.85804 5.572 6.85804ZM5.572 7.62604C4.54672 7.62604 2.5 8.1406 2.5 9.16204V9.93004H8.644V9.16204C8.644 8.1406 6.59728 7.62604 5.572 7.62604Z" fill="white"/>
</svg>
