<svg width="37" height="27" viewBox="0 0 26 15" fill="none" xmlns="http://www.w3.org/2000/svg">
<path d="M1 13.056V2C1 1.44772 1.44772 1 2 1H24C24.5523 1 25 1.44772 25 2V13.056C25 13.6083 24.5523 14.056 24 14.056H2C1.44772 14.056 1 13.6083 1 13.056Z" stroke="black"/>
<line x1="13.5" y1="6.5" x2="20.948" y2="6.5" stroke="black" stroke-linecap="round"/>
<line x1="13.5" y1="8.5" x2="20.948" y2="8.5" stroke="black" stroke-linecap="round"/>
<line x1="13.5" y1="10.5" x2="20.948" y2="10.5" stroke="black" stroke-linecap="round"/>
<line x1="13.5" y1="4.5" x2="20.948" y2="4.5" stroke="black" stroke-linecap="round"/>
<path d="M6.572 7.85804C7.42064 7.85804 8.108 7.17068 8.108 6.32204C8.108 5.4734 7.42064 4.78604 6.572 4.78604C5.72336 4.78604 5.036 5.4734 5.036 6.32204C5.036 7.17068 5.72336 7.85804 6.572 7.85804ZM6.572 8.62604C5.54672 8.62604 3.5 9.1406 3.5 10.162V10.93H9.644V10.162C9.644 9.1406 7.59728 8.62604 6.572 8.62604Z" fill="black"/>
</svg>
