<svg width="50" height="50" viewBox="0 0 50 50" fill="none" xmlns="http://www.w3.org/2000/svg">
<path d="M25 49.9015C38.8071 49.9015 50 38.7307 50 24.9508C50 11.1708 38.8071 0 25 0C11.1929 0 0 11.1708 0 24.9508C0 38.7307 11.1929 49.9015 25 49.9015Z" fill="white"/>
<path d="M25.0234 50C29.9084 50.008 34.6876 48.5805 38.7652 45.8956C37.8439 40.871 34.338 40.5847 34.338 40.5847H15.0048C15.0048 40.5847 11.6965 40.8557 10.6632 45.4779C14.8672 48.4292 19.8836 50.0089 25.0234 50V50Z" fill="#5D8BFF"/>
<path d="M24.7578 36.4679C31.4221 36.4679 36.8246 31.0761 36.8246 24.4249C36.8246 17.7737 31.4221 12.3818 24.7578 12.3818C18.0935 12.3818 12.691 17.7737 12.691 24.4249C12.691 31.0761 18.0935 36.4679 24.7578 36.4679Z" fill="#333333"/>
<path opacity="0.1" d="M20.8634 34.4561H28.5953V40.6295C28.5953 41.6525 28.1882 42.6337 27.4635 43.3572C26.7388 44.0807 25.7559 44.4874 24.7308 44.4878V44.4878C23.7055 44.4878 22.7222 44.0813 21.9972 43.3577C21.2722 42.6341 20.8649 41.6528 20.8649 40.6295V34.4561H20.8634Z" fill="black"/>
<path d="M21.1085 34.1697H28.353C28.418 34.1697 28.4803 34.1955 28.5263 34.2413C28.5723 34.2872 28.5981 34.3494 28.5981 34.4143V40.3431C28.5982 40.85 28.4982 41.3519 28.3039 41.8202C28.1096 42.2885 27.8247 42.7139 27.4655 43.0723C27.1064 43.4307 26.68 43.7149 26.2108 43.9088C25.7415 44.1026 25.2386 44.2023 24.7307 44.2021V44.2021C23.7054 44.2021 22.7221 43.7956 21.9971 43.0721C21.2721 42.3485 20.8648 41.3671 20.8648 40.3438V34.4143C20.8648 34.3497 20.8904 34.2877 20.9361 34.2418C20.9818 34.196 21.0437 34.1701 21.1085 34.1697V34.1697Z" fill="#FDB797"/>
<path opacity="0.1" d="M20.8773 37.3701C23.3692 38.2993 26.1121 38.3068 28.6091 37.3913V36.4419H20.8773V37.3701Z" fill="black"/>
<path d="M24.7579 37.8864C30.8786 37.8864 35.8405 32.9343 35.8405 26.8256C35.8405 20.717 30.8786 15.7649 24.7579 15.7649C18.6371 15.7649 13.6753 20.717 13.6753 26.8256C13.6753 32.9343 18.6371 37.8864 24.7579 37.8864Z" fill="#FDB797"/>
<path opacity="0.1" d="M16.8636 16.7645C16.8636 16.7645 21.5345 26.2265 34.7099 20.7316L31.6423 15.9312L26.2046 13.9834L16.8636 16.7645Z" fill="black"/>
<path d="M16.8636 16.6258C16.8636 16.6258 21.5345 26.0879 34.7099 20.5915L31.6423 15.791L26.2046 13.8433L16.8636 16.6258Z" fill="#333333"/>
<path d="M16.8226 15.9847C17.1375 15.0117 17.6818 14.1283 18.4098 13.4088C20.5897 11.258 24.1636 10.8045 25.9967 8.35205C26.4358 9.03271 26.0962 10.0793 25.3381 10.3714C27.0943 10.3597 29.1294 10.2063 30.1224 8.76468C30.3678 9.33487 30.446 9.96285 30.348 10.5757C30.2499 11.1884 29.9796 11.7609 29.5684 12.2264C31.1249 12.2995 32.7882 13.3511 32.8863 14.9031C32.9536 15.9372 32.3008 16.9158 31.4527 17.5088C30.6046 18.1019 29.5714 18.3743 28.5579 18.597C25.5986 19.2492 14.8914 21.9784 16.8226 15.9847Z" fill="#333333"/>
<path d="M13.6708 28.7448C14.2402 28.7448 14.7019 27.8809 14.7019 26.8153C14.7019 25.7496 14.2402 24.8857 13.6708 24.8857C13.1014 24.8857 12.6397 25.7496 12.6397 26.8153C12.6397 27.8809 13.1014 28.7448 13.6708 28.7448Z" fill="#FDB797"/>
<path d="M35.8389 28.7448C36.4084 28.7448 36.87 27.8809 36.87 26.8153C36.87 25.7496 36.4084 24.8857 35.8389 24.8857C35.2695 24.8857 34.8079 25.7496 34.8079 26.8153C34.8079 27.8809 35.2695 28.7448 35.8389 28.7448Z" fill="#FDB797"/>
</svg>
