<svg width="26" height="25" viewBox="0 0 26 25" fill="none" xmlns="http://www.w3.org/2000/svg">
<path d="M5.2 1C5.2 0.447715 4.75228 0 4.2 0C3.64772 0 3.2 0.447715 3.2 1H5.2ZM14 1C14 0.447715 13.5523 0 13 0C12.4477 0 12 0.447715 12 1H14ZM22.8 1C22.8 0.447715 22.3523 0 21.8 0C21.2477 0 20.8 0.447715 20.8 1H22.8ZM3.2 23.4C3.2 23.9523 3.64772 24.4 4.2 24.4C4.75229 24.4 5.2 23.9523 5.2 23.4L3.2 23.4ZM12 23.4C12 23.9523 12.4477 24.4 13 24.4C13.5523 24.4 14 23.9523 14 23.4H12ZM20.8 23.4C20.8 23.9523 21.2477 24.4 21.8 24.4C22.3523 24.4 22.8 23.9523 22.8 23.4L20.8 23.4ZM6.4 10.6C6.4 11.815 5.41503 12.8 4.2 12.8V14.8C6.5196 14.8 8.4 12.9196 8.4 10.6H6.4ZM4.2 12.8C2.98497 12.8 2 11.815 2 10.6H0C0 12.9196 1.8804 14.8 4.2 14.8V12.8ZM2 10.6C2 9.38497 2.98497 8.4 4.2 8.4V6.4C1.8804 6.4 0 8.2804 0 10.6H2ZM4.2 8.4C5.41503 8.4 6.4 9.38497 6.4 10.6H8.4C8.4 8.2804 6.5196 6.4 4.2 6.4V8.4ZM15.2 17C15.2 18.215 14.215 19.2 13 19.2V21.2C15.3196 21.2 17.2 19.3196 17.2 17H15.2ZM13 19.2C11.785 19.2 10.8 18.215 10.8 17H8.8C8.8 19.3196 10.6804 21.2 13 21.2V19.2ZM10.8 17C10.8 15.785 11.785 14.8 13 14.8V12.8C10.6804 12.8 8.8 14.6804 8.8 17H10.8ZM13 14.8C14.215 14.8 15.2 15.785 15.2 17H17.2C17.2 14.6804 15.3196 12.8 13 12.8V14.8ZM24 7.4C24 8.61503 23.015 9.6 21.8 9.6V11.6C24.1196 11.6 26 9.7196 26 7.4H24ZM21.8 9.6C20.585 9.6 19.6 8.61503 19.6 7.4H17.6C17.6 9.7196 19.4804 11.6 21.8 11.6V9.6ZM19.6 7.4C19.6 6.18497 20.585 5.2 21.8 5.2V3.2C19.4804 3.2 17.6 5.0804 17.6 7.4H19.6ZM21.8 5.2C23.015 5.2 24 6.18497 24 7.4H26C26 5.0804 24.1196 3.2 21.8 3.2V5.2ZM3.2 1V7.4H5.2V1H3.2ZM12 1V13.8H14V1H12ZM20.8 1V4.2H22.8V1H20.8ZM3.2 13.8L3.2 23.4L5.2 23.4L5.2 13.8L3.2 13.8ZM12 20.2V23.4H14V20.2H12ZM20.8 10.6L20.8 23.4L22.8 23.4L22.8 10.6L20.8 10.6Z" fill="white"/>
</svg>
