<svg width="134" height="97" viewBox="0 0 134 97" fill="none" xmlns="http://www.w3.org/2000/svg">
<g clip-path="url(#clip0_271_1686)">
<path d="M22.486 93.1109C22.3786 93.1159 22.2724 93.0876 22.1816 93.0298C22.0907 92.972 22.0198 92.8875 21.9783 92.7879C21.9369 92.6882 21.9269 92.5781 21.9498 92.4726C21.9726 92.367 22.0272 92.2711 22.1061 92.1977L22.142 92.0542C22.1373 92.0427 22.1325 92.0312 22.1278 92.0198C22.0196 91.763 21.8384 91.544 21.6068 91.3905C21.3752 91.2369 21.1037 91.1555 20.8263 91.1565C20.5488 91.1576 20.2779 91.241 20.0475 91.3963C19.817 91.5516 19.6374 91.7719 19.5312 92.0295C19.1065 93.0575 18.5658 94.0874 18.4326 95.1744C18.374 95.6549 18.3987 96.1419 18.5057 96.6139C17.5083 94.4269 16.9903 92.0499 16.987 89.6441C16.9868 89.0404 17.0201 88.4371 17.0869 87.8372C17.1421 87.3453 17.2187 86.857 17.3167 86.3721C17.8513 83.7414 18.9992 81.2756 20.666 79.1774C21.4728 78.7349 22.1252 78.0546 22.5354 77.228C22.684 76.9308 22.789 76.6136 22.8472 76.2863C22.7562 76.2983 22.504 74.9052 22.5727 74.8197C22.4459 74.6263 22.2189 74.5301 22.0804 74.3414C21.3915 73.4026 20.4424 73.5665 19.9469 74.8422C18.8885 75.3791 18.8782 76.2696 19.5277 77.126C19.9409 77.6709 19.9977 78.4081 20.3602 78.9914C20.3229 79.0394 20.2841 79.0859 20.2468 79.1339C19.565 80.0151 18.9707 80.9613 18.4726 81.959C18.5937 80.8413 18.4491 79.7106 18.0507 78.66C17.6469 77.6809 16.89 76.8563 16.2235 76.0099C15.4229 74.9931 13.7812 75.4368 13.6402 76.7257C13.6388 76.7382 13.6375 76.7507 13.6362 76.7631C13.7352 76.8193 13.8321 76.8788 13.9269 76.9419C14.046 77.0219 14.1383 77.1362 14.1917 77.2698C14.2451 77.4034 14.2571 77.5501 14.2261 77.6907C14.1951 77.8313 14.1226 77.9592 14.018 78.0576C13.9135 78.1561 13.7818 78.2205 13.6402 78.2424L13.6257 78.2447C13.661 78.6033 13.7233 78.9587 13.8122 79.3078C12.9571 82.6315 14.8032 83.842 17.439 83.8964C17.4972 83.9264 17.5539 83.9564 17.6121 83.9849C17.1116 85.4105 16.7976 86.8955 16.6782 88.4025C16.6105 89.2916 16.6145 90.1847 16.6901 91.0732L16.6856 91.0417C16.4946 90.0537 15.9703 89.1623 15.2012 88.518C14.0588 87.5747 12.4448 87.2274 11.2124 86.4693C11.0815 86.3847 10.9292 86.3396 10.7735 86.3392C10.6179 86.3389 10.4654 86.3832 10.334 86.4671C10.2026 86.551 10.0978 86.6709 10.032 86.8126C9.96618 86.9544 9.94207 87.1121 9.96251 87.2672C9.96417 87.2783 9.96585 87.2893 9.96756 87.3003C10.1513 87.3755 10.3301 87.4622 10.5031 87.5597C10.6021 87.6159 10.6991 87.6755 10.7939 87.7385C10.913 87.8185 11.0053 87.9328 11.0587 88.0664C11.1121 88.2 11.124 88.3467 11.0931 88.4873C11.0621 88.6279 10.9896 88.7558 10.885 88.8542C10.7805 88.9527 10.6488 89.0171 10.5072 89.0391L10.4927 89.0413C10.4823 89.0428 10.4733 89.0443 10.4629 89.0458C10.7768 89.7991 11.2173 90.4925 11.7653 91.0957C12.2999 93.9971 14.5963 94.2723 17.0526 93.4274H17.0541C17.3236 94.6046 17.7141 95.7504 18.2193 96.8464H22.3817C22.3966 96.7999 22.4101 96.7519 22.4235 96.7054C22.0382 96.7297 21.6514 96.7066 21.2717 96.6364C21.5806 96.2555 21.8894 95.8716 22.1982 95.4908C22.2051 95.4837 22.2116 95.4761 22.2176 95.4683C22.3743 95.2733 22.5324 95.0799 22.689 94.885L22.6891 94.8847C22.6975 94.2872 22.6293 93.691 22.4861 93.111L22.486 93.1109H22.486Z" fill="#F2F2F2"/>
<path d="M27.2736 96.7526H33.9904C35.1392 92.8648 33.9965 83.6766 35.5107 79.9211C38.4158 72.7205 42.127 65.1228 49.054 61.6069C52.0116 60.1057 55.2364 59.5193 58.5297 59.5512C63.0791 59.5946 67.7565 60.8221 72.0387 62.4488C73.7904 63.1128 75.5261 63.8429 77.255 64.589C83.7686 67.4021 90.2113 70.4663 97.2159 71.2945C106.08 72.3417 116.501 68.3558 118.922 59.7703C120.769 53.1971 117.442 46.3729 113.952 40.5024C110.462 34.6319 106.561 28.3507 107.199 21.5539C107.201 21.5311 107.203 21.506 107.208 21.4832C107.448 19.0419 108.898 17.2874 110.924 16.1626H102.103C101.987 22.5031 105.636 28.0997 108.921 33.6257C112.41 39.4939 115.738 46.3204 113.89 52.8936C111.469 61.4769 91.4234 51.4155 82.5597 50.366C80.0566 50.0717 84.0328 51.1189 81.6462 50.366C77.9029 49.1864 77.4879 60.0053 73.8452 58.4173C71.5773 57.4271 69.3072 56.4437 67.0073 55.5699C66.055 55.2071 65.0821 54.8672 64.0977 54.5523C64.0968 54.5523 64.096 54.552 64.0952 54.5516C64.0944 54.5512 64.0937 54.5507 64.0931 54.55C57.4837 52.4464 50.2553 51.6273 44.1482 54.6687C44.1071 54.6892 44.0637 54.7097 44.0226 54.7303C37.0957 58.2439 33.3844 65.8415 30.4794 73.0422C28.079 78.9948 28.4566 90.4737 27.2736 96.7525L27.2736 96.7526Z" fill="#F2F2F2"/>
<path d="M67.0892 96.5536C34.3085 97.2514 33.5897 82.819 33.5897 65.6524C33.5897 48.4859 48.538 35.0569 67.0618 35.0569C85.5856 35.0569 100.297 48.4809 100.297 65.647C100.297 82.8132 85.613 96.5536 67.0892 96.5536Z" fill="white"/>
<path d="M66.9024 96.7411C34.1218 97.439 33.403 83.0065 33.403 65.84C33.403 48.6735 48.4732 34.708 66.997 34.708C85.5208 34.708 100.591 48.6739 100.591 65.84C100.591 83.0061 85.4262 96.7411 66.9024 96.7411ZM66.997 35.5646C48.9828 35.5646 34.6307 49.1485 34.3273 65.84C34.0452 81.3652 51.8423 100.738 66.997 96.1158C75.124 87.8212 98.1013 78.8874 99.6667 65.84C101.657 49.2484 85.0112 35.5646 66.997 35.5646L66.997 35.5646Z" fill="#3F3D56"/>
<path d="M9.83607e-07 96.7766C-8.60387e-05 96.8059 0.00560208 96.835 0.0167381 96.8621C0.0278741 96.8893 0.0442383 96.9139 0.0648892 96.9347C0.0855401 96.9554 0.11007 96.9719 0.137068 96.9831C0.164066 96.9943 0.193 97 0.222203 96.9999H133.778C133.837 96.9999 133.893 96.9763 133.935 96.9345C133.977 96.8926 134 96.8358 134 96.7766C134 96.7173 133.977 96.6605 133.935 96.6186C133.893 96.5768 133.837 96.5532 133.778 96.5532H0.222203C0.193 96.5531 0.164067 96.5588 0.137069 96.57C0.110071 96.5812 0.0855416 96.5977 0.0648909 96.6184C0.0442401 96.6392 0.0278759 96.6639 0.0167396 96.691C0.00560333 96.7181 -8.52952e-05 96.7472 9.83607e-07 96.7766Z" fill="#CCCCCC"/>
<path d="M89.9919 93.9183H87.6856L86.5885 84.9768L89.9925 84.977L89.9919 93.9183Z" fill="#A0616A"/>
<path d="M90.0732 96.3367L82.981 96.3364V96.2463C82.981 95.5104 83.2719 94.8047 83.7896 94.2844C84.3072 93.7641 85.0093 93.4718 85.7415 93.4717H85.7416L87.0371 92.4839L89.4542 93.4719L90.0733 93.4719L90.0732 96.3367V96.3367Z" fill="#2F2E41"/>
<path d="M86.4876 73.1921C83.8539 70.6216 80.8272 68.4921 77.5227 66.8846L75.8374 68.7969L76.9108 66.5938C72.488 64.5637 67.6867 63.5007 62.8247 63.4748C57.9626 63.449 53.1504 64.461 48.7065 66.444L49.5822 68.3557L48.2376 66.6567C44.7663 68.2796 41.5897 70.4748 38.8391 73.1513C38.5564 73.4161 38.3817 73.7772 38.349 74.1642C38.3349 74.3745 38.3659 74.5854 38.4399 74.7827C38.5138 74.9799 38.6291 75.1589 38.7778 75.3075C39.2016 75.5091 39.8055 75.9719 40.7028 77.2421C40.978 77.5148 41.3482 77.6688 41.7347 77.6712C42.1212 77.6736 42.4933 77.5242 42.7718 77.2549C48.1004 72.0704 55.2261 69.1717 62.6424 69.1717C70.0587 69.1717 77.1844 72.0704 82.5131 77.2549C82.7915 77.5242 83.1636 77.6736 83.5501 77.6712C83.9366 77.6688 84.3068 77.5148 84.582 77.2421C85.4849 76.4258 85.6959 75.272 86.4716 75.3428C86.7447 75.0773 86.9105 74.7196 86.9369 74.3386C86.9484 74.1262 86.9142 73.9139 86.8366 73.7161C86.7591 73.5183 86.64 73.3395 86.4876 73.1921Z" fill="#5D8BFF"/>
<path d="M68.9037 75.9747L66.5974 75.9745L65.5002 67.0332L68.9041 67.0334L68.9037 75.9747Z" fill="#A0616A"/>
<path d="M68.9849 78.3929L61.8927 78.3926V78.3025C61.8928 77.5666 62.1836 76.8609 62.7013 76.3406C63.219 75.8203 63.9211 75.5279 64.6532 75.5279H64.6534L65.9489 74.54L68.3659 75.528L68.9851 75.5281L68.9849 78.3929V78.3929Z" fill="#2F2E41"/>
<path d="M92.629 43.0547L76.2615 44.7735L72.2398 48.7675L65.8427 50.867C65.0373 51.1313 64.3313 51.6365 63.8193 52.315C63.3073 52.9935 63.0137 53.813 62.9777 54.6638C62.8112 58.5854 62.4822 65.0961 62.1348 65.0279C61.6381 64.9304 62.631 67.3702 63.3265 67.2285C64.022 67.0869 64.7452 68.6777 64.2644 68.9605C63.7836 69.2434 64.5845 71.6632 64.5845 71.6632L69.5945 70.8518C70.2216 66.0973 72.512 61.0861 69.8125 57.5879C74.3842 56.0968 78.4117 54.8499 81.373 54.0814L82.9747 53.4134L86.3 88.9266L91.0026 89.0042C92.3003 82.2949 92.9521 76.2563 91.9379 71.9485C91.9379 71.9485 92.0836 59.0075 92.6397 59.1491C93.1959 59.2906 92.7244 57.6047 92.7244 57.6047C92.7244 57.6047 92.2373 56.1689 92.8358 55.5732C93.4342 54.9776 93.0606 51.4743 93.0606 51.4743C94.0494 48.1589 93.7517 45.4214 92.629 43.0547V43.0547Z" fill="#2F2E41"/>
<path d="M94.564 35.8082C94.7261 35.0775 94.8882 34.3467 95.0503 33.6159C95.5056 31.5695 95.9602 29.524 96.414 27.4795C97.0099 24.8006 97.6083 22.0284 97.0958 19.3327C97.0189 18.9273 96.9113 18.5283 96.7739 18.1394C96.0063 15.9326 94.3113 13.9989 92.0634 13.5917L91.6962 12.2163L86.6804 11.5957L85.7311 12.9116C83.6878 12.7474 82.4749 14.7923 81.0654 16.4775L80.5053 17.0405C80.097 17.5537 80.0133 19.4815 79.7584 20.0432C78.625 22.541 80.1869 20.1136 80.1318 22.8583C80.075 25.7025 79.5185 28.4624 79.4614 31.3064C79.4554 31.6115 78.802 31.8442 78.6896 32.3792C78.6289 32.6679 79.1351 33.2036 79.0583 33.5265C78.9928 33.802 79.3199 34.9094 79.2497 35.1942C78.9242 36.5155 78.1867 37.0357 78.1544 37.6871C78.1396 37.9378 78.1025 38.1867 78.0434 38.4308C78.003 38.6039 77.4376 38.3964 77.3826 38.5723C77.29 38.8678 77.6971 39.5482 77.5855 39.8439C77.3696 40.4163 77.5148 41.4273 77.3826 41.9503C76.8275 44.1463 77.0407 43.2749 75.8374 45.191C78.9171 46.1268 80.2473 49.2607 83.4152 49.8248C83.558 49.3609 83.7004 48.8959 83.8423 48.4296C84.2622 48.4567 84.6847 48.482 85.1072 48.5052C85.1309 48.9101 85.1548 49.3151 85.1786 49.7176C88.3899 49.9257 91.6105 49.9433 94.8238 49.7704C94.7162 49.4458 94.6302 49.1144 94.5664 48.7783C94.3901 47.8438 94.7691 46.8303 94.8096 45.9054C94.8382 45.2201 94.514 44.6379 94.5235 43.8998C94.5259 43.7633 95.2888 43.6484 95.2864 43.5093C95.2744 42.2825 94.5808 40.6411 94.8096 39.4359C95.0479 38.1972 94.2923 37.04 94.564 35.8086V35.8082L94.564 35.8082Z" fill="#3F3D56"/>
<path d="M71.1022 6.1753C70.6769 6.17579 70.2692 6.34581 69.9685 6.64805C69.6678 6.95029 69.4987 7.36008 69.4982 7.78751V17.502C69.4987 17.9294 69.6678 18.3392 69.9685 18.6414C70.2692 18.9437 70.6769 19.1137 71.1022 19.1142H74.0923C74.5176 19.1137 74.9253 18.9437 75.226 18.6414C75.5267 18.3392 75.6958 17.9294 75.6963 17.502C76.1729 12.6207 75.9978 9.9864 75.6963 7.78751C75.6958 7.36008 75.5267 6.95029 75.226 6.64805C74.9253 6.34581 74.5176 6.17579 74.0923 6.17529H71.1022V6.1753Z" fill="#5D8BFF"/>
<path d="M70.7288 6.17529C70.3035 6.17579 69.8958 6.34581 69.5951 6.64804C69.2944 6.95027 69.1253 7.36005 69.1248 7.78747C68.953 11.6061 68.8336 15.2479 69.1248 17.5019C69.1252 17.9294 69.2944 18.3392 69.5951 18.6414C69.8958 18.9437 70.3035 19.1137 70.7288 19.1142H73.7189C74.1442 19.1137 74.5519 18.9437 74.8526 18.6414C75.1533 18.3392 75.3224 17.9294 75.3229 17.502V7.78752C75.3224 7.36008 75.1533 6.9503 74.8526 6.64806C74.5519 6.34581 74.1442 6.1758 73.7189 6.1753L70.7288 6.17529Z" fill="#3F3D56"/>
<path d="M78.4265 20.3138C78.4265 20.3138 81.2546 20.1985 79.8151 21.4259C78.8784 22.2246 76.7691 27.7847 74.5776 28.4574C74.3196 28.5364 74.0481 28.5608 73.7802 28.5288C73.5123 28.4969 73.254 28.4094 73.0215 28.2719C72.7891 28.1343 72.5876 27.9498 72.4298 27.7299C72.272 27.51 72.1614 27.2595 72.1049 26.9944L70.1184 17.688L72.7133 17.2913L74.2947 24.6569L78.4265 20.3138V20.3138Z" fill="#A0616A"/>
<path d="M71.5593 18.3675C72.5729 18.3675 73.3946 17.5417 73.3946 16.5229C73.3946 15.5041 72.5729 14.6782 71.5593 14.6782C70.5457 14.6782 69.724 15.5041 69.724 16.5229C69.724 17.5417 70.5457 18.3675 71.5593 18.3675Z" fill="#A0616A"/>
<path d="M82.2626 15.2283C83.9438 16.4973 84.4389 20.6587 83.3824 22.4858C81.3629 25.9785 77.3815 28.6675 77.2117 28.2941C76.9792 27.7827 76.574 28.4694 76.5878 28.6942C76.6015 28.919 75.8345 28.852 75.9239 29.0899C76.0133 29.3278 75.408 29.3795 75.1451 29.5174C75.1451 29.5174 72.7392 29.5583 71.9801 28.4548C71.221 27.3512 71.1193 25.8263 71.1193 25.8263L70.177 24.7119L75.173 21.7765L74.7613 23.7578L77.2535 20.841L77.781 19.6708L78.6224 19.2389L78.9013 18.3571L79.6771 18.0045L82.7458 14.4131L82.2626 15.2283L82.2626 15.2283Z" fill="#3F3D56"/>
<path d="M96.0671 49.414C96.2768 49.275 96.4536 49.0914 96.5851 48.8763C96.7166 48.6611 96.7995 48.4196 96.8281 48.1688C96.8567 47.9179 96.8302 47.6638 96.7505 47.4244C96.6708 47.1849 96.5398 46.9659 96.3668 46.7829L96.7198 31.0027L93.6176 31.4877L93.8364 46.7935C93.5497 47.106 93.3869 47.5134 93.3791 47.9384C93.3712 48.3635 93.5187 48.7766 93.7937 49.0996C94.0687 49.4227 94.452 49.6331 94.871 49.691C95.29 49.7489 95.7156 49.6504 96.0671 49.414Z" fill="#A0616A"/>
<path d="M96.2023 17.5518C96.2023 17.5518 95.9965 17.7081 97.0517 19.3242C97.261 19.6447 97.4028 20.9371 97.5021 22.6235C97.5344 23.1729 97.8456 23.5589 97.8698 24.172C97.8903 24.6923 97.6248 25.4336 97.6406 25.9732C97.649 26.261 97.8625 26.5114 97.8698 26.7993C97.8728 26.9194 97.6701 27.0776 97.6729 27.1972C97.676 27.3262 97.679 27.4548 97.6819 27.583C97.7544 30.7882 97.77 33.6831 97.842 33.6342C97.9956 33.5299 97.6142 34.0688 97.8049 34.1588C97.9956 34.2488 97.642 34.6952 97.7331 34.9265C97.8442 35.2084 97.7062 35.5194 97.619 35.8024C97.3672 36.6195 97.3129 37.3212 97.094 37.7093C97.3539 37.8592 97.5568 38.0917 97.6707 38.3703C97.7846 38.6488 97.8031 38.9575 97.7233 39.2478L93.351 38.4533C92.8179 37.5949 92.8949 36.6941 93.2582 36.5371L93.15 33.744L91.9048 19.2937L95.5542 17.656L96.2023 17.5518V17.5518Z" fill="#3F3D56"/>
<path d="M69.0656 8.66675C69.0028 8.66675 68.9518 8.69681 68.9518 8.73377V9.26992C68.9518 9.30689 69.0028 9.33694 69.0656 9.33694C69.1284 9.33694 69.1794 9.30688 69.1794 9.26992V8.73377C69.1794 8.69681 69.1284 8.66675 69.0656 8.66675Z" fill="#3F3D56"/>
<path d="M69.0656 10.0876C69.0028 10.0876 68.9518 10.1177 68.9518 10.1547V11.1935C68.9518 11.2304 69.0028 11.2605 69.0656 11.2605C69.1284 11.2605 69.1794 11.2304 69.1794 11.1935V10.1547C69.1794 10.1177 69.1284 10.0876 69.0656 10.0876Z" fill="#3F3D56"/>
<path d="M75.414 10.2754C75.3805 10.2792 75.3498 10.2961 75.3286 10.3224C75.3073 10.3486 75.2971 10.3822 75.3001 10.4159V12.5944C75.2966 12.6114 75.297 12.629 75.301 12.6458C75.3051 12.6627 75.3129 12.6784 75.3238 12.6919C75.3347 12.7054 75.3485 12.7162 75.3641 12.7237C75.3796 12.7311 75.3967 12.735 75.414 12.735C75.4312 12.735 75.4483 12.7311 75.4639 12.7237C75.4795 12.7162 75.4932 12.7054 75.5041 12.6919C75.515 12.6784 75.5228 12.6627 75.5269 12.6458C75.531 12.629 75.5313 12.6114 75.5278 12.5944V10.4159C75.5308 10.3822 75.5206 10.3486 75.4994 10.3224C75.4781 10.2961 75.4474 10.2792 75.414 10.2754Z" fill="#3F3D56"/>
<path d="M68.879 11.7498C68.8162 11.7498 68.7651 11.7798 68.7651 11.8168V12.8556C68.7651 12.8925 68.8162 12.9226 68.879 12.9226C68.9417 12.9226 68.9928 12.8925 68.9928 12.8556V11.8168C68.9928 11.7798 68.9417 11.7498 68.879 11.7498Z" fill="#3F3D56"/>
<path d="M88.837 11.1083C91.4257 11.1083 93.5243 8.99904 93.5243 6.39707C93.5243 3.7951 91.4257 1.68579 88.837 1.68579C86.2482 1.68579 84.1497 3.7951 84.1497 6.39707C84.1497 8.99904 86.2482 11.1083 88.837 11.1083Z" fill="#A0616A"/>
<path d="M94.0707 8.56189C93.7048 9.29796 93.3565 9.75832 92.7238 10.1698C92.6916 10.076 92.6657 9.98015 92.6461 9.8829C92.5787 10.0342 92.513 10.1851 92.4441 10.3368C92.0438 10.5614 92.4758 10.2148 91.8206 10.466L91.2695 9.51536C91.1185 9.06409 91.3324 8.57261 91.6044 8.18208C91.8767 7.79314 92.2156 7.43657 92.3632 6.9844C92.5108 6.53223 92.3798 5.93318 91.9373 5.76488C91.5015 5.59681 91.0201 5.91567 90.5569 5.86027C90.0222 5.79689 89.6584 5.23462 89.6294 4.69369C89.6004 4.15276 89.82 3.63337 90.0348 3.13836C89.3874 3.60474 87.3816 4.44031 86.2897 4.48024C86.2602 4.13791 86.1028 3.81952 85.8492 3.58917C85.8936 3.90082 85.8181 4.21778 85.6381 4.47542C84.5691 4.42032 84.3681 5.98097 83.8162 5.41584C83.9885 5.3287 83.3535 3.38919 83.5258 3.30204C83.3932 2.9369 83.2608 2.57281 83.1287 2.20979C83.3743 2.27201 83.6218 2.33548 83.869 2.39736C83.8844 2.26462 83.9246 2.13599 83.9874 2.01821C84.1636 1.91723 84.3511 1.83766 84.546 1.78117C84.6088 1.76431 84.6732 1.74711 84.7382 1.7331C84.8345 1.71154 84.932 1.69557 85.0301 1.68527C84.888 1.60243 84.7446 1.52153 84.6021 1.43711C84.5851 1.42742 84.5697 1.41739 84.5527 1.4077C84.7529 1.26944 84.9619 1.14473 85.1785 1.0344C86.0919 0.554138 87.0399 0.0647683 88.0695 0.00490542C88.7385 -0.0379017 89.4015 0.153944 89.9455 0.547708C90.4145 0.886311 90.9825 1.05804 91.5595 1.03574C91.8402 1.03359 92.1177 1.09571 92.371 1.21738C92.2549 1.33481 92.128 1.44089 91.992 1.53419C92.2891 1.54196 92.5846 1.55006 92.8821 1.55943C93.2151 1.8641 93.4961 2.22181 93.7135 2.61821C94.7554 4.40742 94.9935 6.70833 94.0708 8.56189H94.0707Z" fill="#2F2E41"/>
<path d="M79.0182 81.9602C78.9827 81.7249 78.8918 81.5017 78.7531 81.3089C78.6143 81.1161 78.4318 80.9595 78.2207 80.8519C76.2392 79.8326 74.1624 79.0123 72.0205 78.403L70.0162 81.0588L71.4975 78.2565C66.0147 76.778 60.2517 76.6959 54.7293 78.0174L55.5 80.1535L54.2409 78.1396C51.7543 78.7681 49.3466 79.678 47.064 80.8519C46.8539 80.9601 46.6721 81.1166 46.5336 81.3088C46.395 81.501 46.3036 81.7234 46.2668 81.9578C46.23 82.1922 46.2489 82.4321 46.3218 82.6578C46.3948 82.8835 46.5198 83.0887 46.6866 83.2566C47.5531 83.3101 48.1254 84.1194 48.6965 85.2768C48.9154 85.4939 49.1956 85.6377 49.4989 85.6884C49.8022 85.7392 50.1137 85.6944 50.3907 85.5603C54.2184 83.7305 58.4038 82.781 62.6424 82.781C66.881 82.781 71.0664 83.7305 74.8941 85.5603C75.1711 85.6945 75.4825 85.7392 75.7858 85.6885C76.089 85.6377 76.3693 85.4939 76.588 85.2768C76.9314 84.341 77.6391 83.7876 78.5981 83.2566C78.7658 83.0898 78.8914 82.8851 78.9645 82.6596C79.0376 82.4341 79.056 82.1943 79.0182 81.9602Z" fill="#5D8BFF"/>
<path d="M67.9445 91.1061C67.5056 91.0368 67.064 90.9764 66.6198 90.9247L64.8786 93.7095L66.176 90.8772C64.0677 90.6607 61.9442 90.6382 59.832 90.8101L61.1601 93.7095L59.3723 90.8502C58.6899 90.9152 58.0126 91.0005 57.3402 91.1061C57.11 91.1403 56.8941 91.2392 56.7173 91.3912C56.5404 91.5433 56.4099 91.7424 56.3406 91.9657C56.2667 92.1908 56.2566 92.4322 56.3114 92.6628C56.3662 92.8934 56.4837 93.1041 56.6507 93.2715C57.3697 93.9794 58.1625 94.9625 59.4653 96.1005C59.5924 96.2299 59.746 96.3301 59.9154 96.3941C60.0848 96.4581 60.266 96.4844 60.4465 96.4712C61.1684 96.4175 61.9073 96.3902 62.6424 96.3902H62.6424C63.3775 96.3902 64.1163 96.4175 64.8383 96.4712C65.0188 96.4842 65.1999 96.4578 65.3693 96.3938C65.5386 96.3298 65.6922 96.2297 65.8195 96.1005C67.1649 94.9461 67.8447 93.8877 68.6341 93.2715C68.8012 93.1041 68.9187 92.8934 68.9734 92.6628C69.0282 92.4322 69.0181 92.1908 68.9442 91.9657C68.8749 91.7424 68.7444 91.5432 68.5675 91.3912C68.3907 91.2391 68.1748 91.1403 67.9445 91.1061Z" fill="#5D8BFF"/>
</g>
<defs>
<clipPath id="clip0_271_1686">
<rect width="134" height="97" fill="white"/>
</clipPath>
</defs>
</svg>
