<svg width="101" height="100" viewBox="0 0 101 100" fill="none" xmlns="http://www.w3.org/2000/svg">
<g clip-path="url(#clip0_63_371)">
<path d="M66.6201 26.4936H50.0427C49.6798 26.4947 49.3214 26.4134 48.9948 26.256C48.6682 26.0985 48.382 25.869 48.158 25.5849C47.93 25.2982 47.7706 24.9634 47.6922 24.6062C47.6138 24.2489 47.6184 23.8786 47.7056 23.5233C49.2334 17.1566 49.2334 10.5215 47.7055 4.15477C47.6183 3.79954 47.6138 3.42922 47.6922 3.07199C47.7707 2.71476 47.9299 2.38004 48.158 2.09328C48.382 1.80919 48.6682 1.57967 48.9948 1.42221C49.3214 1.26474 49.6798 1.18347 50.0427 1.18458H66.6201C67.1925 1.18622 67.7457 1.38993 68.1812 1.75942C68.6167 2.12892 68.9062 2.64021 68.9982 3.20224C70.0892 10.2519 70.0892 17.4262 68.9982 24.4759C68.9062 25.038 68.6167 25.5493 68.1812 25.9188C67.7457 26.2883 67.1925 26.492 66.6201 26.4936Z" fill="#E6E6E6"/>
<path d="M50.0427 2.42554C49.8684 2.42496 49.6963 2.46394 49.5394 2.5395C49.3825 2.61506 49.2451 2.72523 49.1374 2.86161C49.0266 3.00135 48.9493 3.1644 48.9113 3.33834C48.8733 3.51229 48.8758 3.69256 48.9184 3.86544C50.4919 10.4224 50.492 17.2558 48.9185 23.8128C48.8758 23.9856 48.8734 24.1658 48.9113 24.3398C48.9493 24.5137 49.0266 24.6767 49.1374 24.8164L49.1375 24.8165C49.2451 24.9529 49.3825 25.0631 49.5394 25.1387C49.6963 25.2143 49.8684 25.2533 50.0427 25.2527H66.6201C66.895 25.2528 67.161 25.1558 67.3707 24.979C67.5804 24.8023 67.7203 24.5572 67.7654 24.2874C68.837 17.3627 68.837 10.3155 67.7654 3.39079C67.7203 3.12103 67.5804 2.87595 67.3707 2.69919C67.161 2.52242 66.895 2.42545 66.6201 2.42554L50.0427 2.42554Z" fill="white"/>
<path d="M63.0026 8.39276H54.3034C53.9728 8.3924 53.6557 8.26155 53.4219 8.02891C53.188 7.79628 53.0565 7.48086 53.0562 7.15186V6.66693C53.0565 6.33793 53.188 6.02251 53.4219 5.78988C53.6557 5.55724 53.9728 5.42638 54.3034 5.42603H63.0026C63.3333 5.42639 63.6503 5.55724 63.8842 5.78988C64.118 6.02251 64.2495 6.33793 64.2499 6.66693V7.15187C64.2495 7.48086 64.118 7.79628 63.8842 8.02892C63.6503 8.26155 63.3333 8.3924 63.0026 8.39276Z" fill="#E6E6E6"/>
<path d="M63.0026 14.52H54.3034C53.9728 14.5196 53.6557 14.3887 53.4219 14.1561C53.188 13.9235 53.0565 13.6081 53.0562 13.2791V12.7941C53.0565 12.4651 53.188 12.1497 53.4219 11.9171C53.6557 11.6844 53.9728 11.5536 54.3034 11.5532H63.0026C63.3333 11.5536 63.6503 11.6844 63.8842 11.9171C64.118 12.1497 64.2495 12.4651 64.2499 12.7941V13.2791C64.2495 13.6081 64.118 13.9235 63.8842 14.1561C63.6503 14.3887 63.3333 14.5196 63.0026 14.52Z" fill="#E6E6E6"/>
<path d="M63.0026 20.6474H54.3034C53.9728 20.647 53.6557 20.5162 53.4219 20.2835C53.188 20.0509 53.0565 19.7355 53.0562 19.4065V18.9216C53.0565 18.5926 53.188 18.2771 53.4219 18.0445C53.6557 17.8119 53.9728 17.681 54.3034 17.6807H63.0026C63.3333 17.681 63.6503 17.8119 63.8842 18.0445C64.118 18.2771 64.2495 18.5926 64.2499 18.9216V19.4065C64.2495 19.7355 64.118 20.0509 63.8842 20.2835C63.6503 20.5162 63.3333 20.647 63.0026 20.6474Z" fill="#E6E6E6"/>
<path d="M97.8037 42.2124H81.2263C80.8634 42.2135 80.505 42.1322 80.1784 41.9747C79.8518 41.8172 79.5656 41.5877 79.3416 41.3037C79.1135 41.0169 78.9542 40.6822 78.8758 40.3249C78.7974 39.9677 78.802 39.5973 78.8891 39.2421C80.417 32.8754 80.417 26.2402 78.889 19.8735C78.8019 19.5183 78.7974 19.148 78.8758 18.7907C78.9543 18.4335 79.1135 18.0988 79.3416 17.812C79.5656 17.5279 79.8518 17.2984 80.1784 17.141C80.505 16.9835 80.8634 16.9022 81.2263 16.9033H97.8037C98.3761 16.905 98.9293 17.1087 99.3648 17.4782C99.8003 17.8477 100.09 18.359 100.182 18.921C101.273 25.9707 101.273 33.145 100.182 40.1947C100.09 40.7567 99.8003 41.268 99.3648 41.6375C98.9293 42.007 98.3761 42.2107 97.8037 42.2124Z" fill="#E6E6E6"/>
<path d="M81.2263 18.1443C81.052 18.1437 80.8799 18.1827 80.723 18.2582C80.5661 18.3338 80.4287 18.444 80.321 18.5804C80.2102 18.7201 80.1329 18.8831 80.0949 19.0571C80.0569 19.231 80.0594 19.4113 80.102 19.5842C81.6755 26.1411 81.6756 32.9745 80.1021 39.5315C80.0594 39.7044 80.057 39.8846 80.0949 40.0585C80.1328 40.2324 80.2102 40.3954 80.321 40.5351L80.3211 40.5352C80.4287 40.6717 80.5661 40.7819 80.723 40.8574C80.8799 40.933 81.052 40.972 81.2263 40.9714H97.8037C98.0786 40.9715 98.3446 40.8745 98.5543 40.6978C98.764 40.521 98.9039 40.2759 98.949 40.0062C100.021 33.0814 100.021 26.0343 98.949 19.1095C98.9039 18.8398 98.764 18.5947 98.5543 18.4179C98.3446 18.2412 98.0786 18.1442 97.8037 18.1443L81.2263 18.1443Z" fill="white"/>
<path d="M64.7492 60.1028H48.1717C47.7931 60.1039 47.4192 60.0191 47.0784 59.8548C46.7377 59.6905 46.4391 59.4511 46.2054 59.1547C45.9676 58.8557 45.8015 58.5066 45.7197 58.1341C45.6379 57.7616 45.6426 57.3754 45.7335 57.0049C47.2575 50.6541 47.2575 44.0355 45.7334 37.6847C45.6426 37.3142 45.6379 36.9281 45.7197 36.5556C45.8015 36.1831 45.9676 35.834 46.2054 35.535C46.4391 35.2386 46.7377 34.9992 47.0784 34.8349C47.4191 34.6706 47.7931 34.5858 48.1717 34.5869H64.7492C65.3463 34.5887 65.9234 34.8013 66.3777 35.1868C66.832 35.5724 67.134 36.1059 67.2299 36.6922C68.3226 43.7524 68.3226 50.9373 67.2299 57.9975C67.134 58.5838 66.832 59.1173 66.3777 59.5029C65.9234 59.8884 65.3463 60.101 64.7492 60.1028Z" fill="#F2F2F2"/>
<path d="M94.1862 27.2138H85.487C85.1563 27.2134 84.8393 27.0826 84.6055 26.85C84.3716 26.6173 84.2401 26.3019 84.2397 25.9729V25.488C84.2401 25.159 84.3716 24.8436 84.6055 24.6109C84.8393 24.3783 85.1563 24.2474 85.487 24.2471H94.1862C94.5169 24.2474 94.8339 24.3783 95.0678 24.6109C95.3016 24.8436 95.4331 25.159 95.4335 25.488V25.9729C95.4331 26.3019 95.3016 26.6173 95.0678 26.85C94.8339 27.0826 94.5169 27.2134 94.1862 27.2138Z" fill="#E6E6E6"/>
<path d="M94.1862 33.3412H85.487C85.1563 33.3409 84.8393 33.21 84.6055 32.9774C84.3716 32.7448 84.2401 32.4293 84.2397 32.1003V31.6154C84.2401 31.2864 84.3716 30.971 84.6055 30.7384C84.8393 30.5057 85.1563 30.3749 85.487 30.3745H94.1862C94.5169 30.3749 94.8339 30.5057 95.0678 30.7384C95.3016 30.971 95.4331 31.2864 95.4335 31.6154V32.1003C95.4331 32.4293 95.3016 32.7448 95.0678 32.9774C94.8339 33.21 94.5169 33.3409 94.1862 33.3412Z" fill="#E6E6E6"/>
<path d="M56.5068 52.0166C59.1475 52.0166 61.2883 49.8869 61.2883 47.2597C61.2883 44.6325 59.1475 42.5027 56.5068 42.5027C53.8661 42.5027 51.7253 44.6325 51.7253 47.2597C51.7253 49.8869 53.8661 52.0166 56.5068 52.0166Z" fill="white"/>
<path d="M58.7936 46.6391H57.1304V44.9845C57.1304 44.8199 57.0647 44.6621 56.9478 44.5457C56.8308 44.4294 56.6722 44.364 56.5068 44.364C56.3414 44.364 56.1827 44.4294 56.0658 44.5457C55.9488 44.6621 55.8831 44.8199 55.8831 44.9845V46.6391H54.22C54.0546 46.6391 53.8959 46.7045 53.779 46.8208C53.662 46.9372 53.5963 47.095 53.5963 47.2596C53.5963 47.4241 53.662 47.5819 53.779 47.6983C53.8959 47.8147 54.0546 47.88 54.22 47.88H55.8831V49.5346C55.8831 49.6992 55.9488 49.857 56.0658 49.9734C56.1827 50.0897 56.3414 50.1551 56.5068 50.1551C56.6722 50.1551 56.8308 50.0897 56.9478 49.9734C57.0647 49.857 57.1304 49.6992 57.1304 49.5346V47.88H58.7936C58.959 47.88 59.1176 47.8147 59.2346 47.6983C59.3515 47.5819 59.4172 47.4241 59.4172 47.2596C59.4172 47.095 59.3515 46.9372 59.2346 46.8208C59.1176 46.7045 58.959 46.6391 58.7936 46.6391Z" fill="#E6E6E6"/>
<path d="M62.5357 3.51603H53.8043C53.5563 3.51575 53.3185 3.4176 53.1431 3.24312C52.9677 3.06864 52.8691 2.83207 52.8688 2.58532V0.930713C52.8691 0.683958 52.9677 0.447389 53.1431 0.272907C53.3185 0.0984243 53.5563 0.000278089 53.8043 0H62.5357C62.7837 0.000278089 63.0215 0.0984243 63.1969 0.272907C63.3722 0.447389 63.4709 0.683958 63.4712 0.930713V2.58532C63.4709 2.83207 63.3722 3.06864 63.1969 3.24312C63.0215 3.4176 62.7837 3.51575 62.5357 3.51603Z" fill="#CCCCCC"/>
<path d="M94.1349 19.4416H85.4035C85.1555 19.4413 84.9177 19.3431 84.7423 19.1687C84.567 18.9942 84.4683 18.7576 84.468 18.5109V16.8563C84.4683 16.6095 84.567 16.3729 84.7423 16.1984C84.9177 16.024 85.1555 15.9258 85.4035 15.9255H94.1349C94.3829 15.9258 94.6207 16.024 94.7961 16.1984C94.9715 16.3729 95.0701 16.6095 95.0704 16.8563V18.5109C95.0701 18.7576 94.9715 18.9942 94.7961 19.1687C94.6207 19.3431 94.3829 19.4413 94.1349 19.4416Z" fill="#CCCCCC"/>
<path d="M18.4183 97.4273H20.967L21.7638 87.647H18.4178L18.4183 97.4273Z" fill="#FFB8B8"/>
<path d="M17.7682 96.5996L22.7874 96.5994H22.7877C23.2077 96.5994 23.6237 96.6817 24.0117 96.8416C24.3998 97.0015 24.7525 97.2359 25.0495 97.5314C25.3465 97.8269 25.5821 98.1777 25.7429 98.5638C25.9036 98.9499 25.9864 99.3637 25.9863 99.7816V99.885L17.7683 99.8853L17.7682 96.5996Z" fill="#2F2E41"/>
<path d="M4.69744 97.4273H7.24617L8.45879 87.647H4.69702L4.69744 97.4273Z" fill="#FFB8B8"/>
<path d="M4.04749 96.5996L9.06674 96.5994H9.06695C9.48701 96.5994 9.90295 96.6817 10.291 96.8416C10.6791 97.0015 11.0317 97.2359 11.3288 97.5314C11.6258 97.8269 11.8614 98.1777 12.0222 98.5638C12.1829 98.9499 12.2656 99.3637 12.2656 99.7816V99.885L4.04764 99.8853L4.04749 96.5996Z" fill="#2F2E41"/>
<path d="M5.14973 94.3375C4.88974 94.3375 4.63929 94.2402 4.4481 94.0649C4.34548 93.9717 4.26282 93.8589 4.2051 93.7332C4.14739 93.6075 4.11579 93.4715 4.11221 93.3333L3.09009 56.8879L17.6031 60.4975L22.081 73.8621C22.6584 75.5813 22.9084 77.3927 22.818 79.2032L22.262 92.158C22.2493 92.4234 22.1344 92.6737 21.941 92.857C21.7477 93.0403 21.4908 93.1425 21.2237 93.1422H18.7896C18.5383 93.1412 18.2959 93.0501 18.1067 92.8856C17.9175 92.7212 17.7942 92.4943 17.7595 92.2468L16.0197 77.9465C15.8677 76.831 15.4754 75.7612 14.8697 74.8102L11.4459 69.417C11.423 69.381 11.3894 69.3529 11.3499 69.3365C11.3103 69.3202 11.2666 69.3164 11.2248 69.3257C11.183 69.335 11.1451 69.3569 11.1163 69.3884C11.0875 69.42 11.0692 69.4596 11.0638 69.5019L8.37694 93.305C8.34809 93.5465 8.23456 93.77 8.05632 93.9364C7.87809 94.1027 7.64658 94.2011 7.40256 94.2143L5.20891 94.3357C5.18917 94.3368 5.16948 94.3375 5.14973 94.3375Z" fill="#2F2E41"/>
<path d="M15.1879 33.292C18.0079 33.292 20.2939 31.0177 20.2939 28.2122C20.2939 25.4066 18.0079 23.1323 15.1879 23.1323C12.3679 23.1323 10.0819 25.4066 10.0819 28.2122C10.0819 31.0177 12.3679 33.292 15.1879 33.292Z" fill="#FFB8B8"/>
<path d="M17.5335 61.9799C17.4456 61.9797 17.3581 61.9686 17.273 61.9469H17.2729L2.87353 58.2738C2.61608 58.2082 2.39368 58.0469 2.25204 57.8232C2.11041 57.5995 2.06031 57.3303 2.11205 57.071L5.41899 39.3479C5.62502 38.3235 6.07789 37.3641 6.73871 36.5521C7.39954 35.7401 8.24858 35.0998 9.21293 34.6862C10.1526 34.2725 11.1801 34.0952 12.2049 34.17C13.2297 34.2449 14.2202 34.5696 15.0891 35.1154C15.2907 35.2405 15.4937 35.377 15.6925 35.521C16.4926 36.1082 17.1452 36.8719 17.5989 37.7521C18.0526 38.6323 18.2951 39.6051 18.3075 40.5942L18.5705 60.9311C18.5722 61.0679 18.5467 61.2036 18.4955 61.3305C18.4442 61.4575 18.3682 61.573 18.2717 61.6705C18.1753 61.768 18.0604 61.8456 17.9337 61.8987C17.807 61.9518 17.671 61.9794 17.5335 61.9799Z" fill="#5D8BFF"/>
<path d="M4.35521 62.1881C4.18344 61.9367 4.06918 61.6508 4.02048 61.3506C3.97178 61.0504 3.98984 60.7433 4.07336 60.4508C4.15688 60.1583 4.30385 59.8876 4.5039 59.6578C4.70396 59.4279 4.95224 59.2445 5.23126 59.1204L4.59079 51.7571L7.98481 53.5872L8.07266 60.299C8.25109 60.7791 8.24629 61.3077 8.05917 61.7845C7.87204 62.2614 7.5156 62.6534 7.05737 62.8863C6.59915 63.1191 6.07098 63.1767 5.57296 63.048C5.07493 62.9193 4.64165 62.6134 4.35521 62.1881H4.35521Z" fill="#FFB8B8"/>
<path d="M5.56774 58.1466C5.47197 58.1465 5.37659 58.1345 5.28382 58.1108C5.08427 58.0602 4.90219 57.9569 4.75683 57.8117C4.61148 57.6666 4.50826 57.4851 4.45809 57.2864L2.79015 50.692C2.20725 48.3888 2.48512 45.9534 3.57207 43.8389L7.06646 37.0381C7.28736 36.2238 7.82108 35.5286 8.55253 35.1023C9.28398 34.6759 10.1545 34.5527 10.9765 34.7592C11.3862 34.8621 11.7712 35.0449 12.1093 35.297C12.4475 35.5491 12.7319 35.8655 12.9462 36.2277C13.1649 36.5952 13.3079 37.0023 13.367 37.4253C13.426 37.8483 13.3999 38.2788 13.2901 38.6917L8.31578 49.758L8.37486 56.3838C8.37639 56.6176 8.30575 56.8461 8.17248 57.0387C8.03921 57.2312 7.84974 57.3783 7.62968 57.4603L5.96504 58.0753C5.83793 58.1224 5.70338 58.1465 5.56774 58.1466Z" fill="#5D8BFF"/>
<path d="M29.3785 59.4797C29.0749 59.4451 28.7825 59.3448 28.5221 59.1857C28.2616 59.0266 28.0394 58.8127 27.8711 58.5589C27.7028 58.3051 27.5924 58.0177 27.5478 57.7169C27.5032 57.4161 27.5254 57.1092 27.6129 56.8179L21.5854 52.4975L25.1937 51.1321L30.3643 55.4442C30.8465 55.6228 31.246 55.9713 31.4872 56.4234C31.7285 56.8756 31.7946 57.4001 31.6731 57.8975C31.5516 58.395 31.2509 58.8308 30.828 59.1224C30.4051 59.414 29.8893 59.5411 29.3785 59.4797H29.3785Z" fill="#FFB8B8"/>
<path d="M26.2232 56.3248C26.0455 56.3247 25.8703 56.2835 25.7113 56.2045L19.5995 53.1606C17.4647 52.0976 15.7907 50.2995 14.8886 48.1006L11.987 41.0291C11.5108 40.3314 11.3293 39.4753 11.4817 38.6457C11.6341 37.816 12.108 37.0791 12.8014 36.5939C13.1479 36.3516 13.5394 36.1802 13.953 36.0899C14.3667 35.9996 14.7943 35.9921 15.211 36.0679C15.6325 36.1433 16.0347 36.3011 16.3945 36.5323C16.7542 36.7635 17.0643 37.0635 17.3067 37.4148L22.4925 48.3847L27.5787 52.6623C27.7578 52.8137 27.8859 53.016 27.9456 53.2421C28.0053 53.4682 27.9939 53.7071 27.9127 53.9264L27.2953 55.5827C27.2147 55.8 27.0691 55.9874 26.8781 56.1197C26.6861 56.2532 26.4575 56.3248 26.2232 56.3248Z" fill="#5D8BFF"/>
<path d="M14.1158 33.3698C14.3871 33.4879 14.9427 31.3373 14.6938 30.9071C14.3237 30.2674 14.3456 30.272 14.0999 29.8488C13.8542 29.4256 13.7992 28.8463 14.1174 28.4739C14.4355 28.1015 15.1718 28.1509 15.317 28.6178C15.2236 27.731 16.1053 27.0181 16.9787 26.8178C17.852 26.6175 18.7733 26.7419 19.6514 26.5636C20.6706 26.3567 21.731 25.5068 21.3244 24.3918C21.2546 24.2061 21.1501 24.0353 21.0165 23.8883C20.5467 23.3628 19.8895 23.1384 19.2469 22.9214C17.9102 22.4701 16.5369 22.013 15.1261 22.0628C13.9637 22.1233 12.8442 22.5196 11.9047 23.2031C10.9651 23.8867 10.2463 24.828 9.83606 25.9117C9.73883 26.1828 9.66352 26.4612 9.61082 26.7442C9.1266 29.3346 10.6386 31.8896 13.0943 32.876L14.1158 33.3698Z" fill="#2F2E41"/>
<path opacity="0.2" d="M8.08691 56.5343L8.20271 49.7238L11.8289 42.4702L8.91847 49.9159L8.08691 56.5343Z" fill="black"/>
<path d="M40.9704 73.6261L25.6617 67.2982C25.3261 67.1607 25.0265 66.9488 24.7857 66.6787C24.5448 66.4087 24.369 66.0875 24.2717 65.7396C24.1717 65.3878 24.1537 65.0178 24.2191 64.658C24.2844 64.2981 24.4315 63.9579 24.649 63.6631C28.5153 58.3669 31.0741 52.2396 32.1185 45.7769C32.1751 45.4156 32.3137 45.0719 32.5239 44.7719C32.7341 44.472 33.0103 44.2237 33.3315 44.0459C33.6479 43.8691 34.0007 43.7664 34.363 43.7456C34.7253 43.7249 35.0876 43.7866 35.4224 43.9262L50.7311 50.2541C51.259 50.4741 51.6913 50.8734 51.9509 51.3808C52.2106 51.8883 52.2808 52.471 52.149 53.0251C50.4377 59.9517 47.6709 66.5769 43.9446 72.6706C43.6429 73.1545 43.1783 73.5162 42.6337 73.6911C42.089 73.8661 41.4996 73.8431 40.9704 73.6261Z" fill="#E6E6E6"/>
<path d="M34.9438 45.0721C34.7831 45.0051 34.6091 44.9754 34.4351 44.9853C34.2611 44.9952 34.0917 45.0444 33.9397 45.1293C33.7834 45.216 33.6491 45.3371 33.547 45.4832C33.4449 45.6294 33.3776 45.7968 33.3502 45.9727C32.2746 52.6284 29.6393 58.9388 25.6575 64.3933C25.5514 64.5367 25.4797 64.7022 25.4476 64.8773C25.4156 65.0524 25.4241 65.2324 25.4725 65.4037L25.4726 65.4038C25.5194 65.5709 25.6038 65.7251 25.7195 65.8548C25.8352 65.9845 25.9791 66.0862 26.1403 66.1522L41.449 72.4801C41.7028 72.5851 41.9858 72.5971 42.2477 72.5139C42.5095 72.4307 42.7332 72.2578 42.8788 72.0259C46.539 66.0402 49.2568 59.5324 50.9378 52.7286C51.0002 52.4623 50.9656 52.1826 50.8401 51.9393C50.7146 51.696 50.5064 51.5049 50.2525 51.4001L34.9438 45.0721Z" fill="white"/>
<path d="M43.095 59.1585L35.0616 55.8379C34.7564 55.7113 34.5141 55.4695 34.3879 55.1654C34.2616 54.8613 34.2618 54.5198 34.3884 54.2158L34.5754 53.768C34.7026 53.4644 34.9457 53.2233 35.2514 53.0977C35.557 52.9721 35.9003 52.9723 36.2058 53.0982L44.2392 56.4189C44.5444 56.5454 44.7867 56.7873 44.9129 57.0914C45.0392 57.3955 45.039 57.7369 44.9124 58.0409L44.7254 58.4887C44.5982 58.7924 44.3551 59.0335 44.0494 59.159C43.7438 59.2846 43.4005 59.2844 43.095 59.1585Z" fill="#5D8BFF"/>
<path d="M40.732 64.817L32.6986 61.4963C32.3934 61.3698 32.151 61.1279 32.0248 60.8238C31.8986 60.5197 31.8988 60.1783 32.0253 59.8743L32.2124 59.4265C32.3396 59.1228 32.5827 58.8817 32.8883 58.7562C33.194 58.6306 33.5372 58.6308 33.8428 58.7567L41.8761 62.0773C42.1814 62.2039 42.4237 62.4457 42.5499 62.7498C42.6761 63.0539 42.6759 63.3954 42.5494 63.6993L42.3624 64.1472C42.2352 64.4508 41.9921 64.6919 41.6864 64.8175C41.3807 64.9431 41.0375 64.9429 40.732 64.817Z" fill="#5D8BFF"/>
<path d="M46.3141 51.2063C46.1938 51.2062 46.0747 51.183 45.9633 51.1379L37.8685 47.8819C37.6386 47.7892 37.4552 47.6095 37.3583 47.3824C37.2615 47.1552 37.2591 46.8991 37.3518 46.6702L37.9752 45.1362C38.0682 44.9074 38.2488 44.7247 38.4772 44.6283C38.7056 44.532 38.9631 44.5298 39.1932 44.6223L47.288 47.8783C47.5178 47.971 47.7013 48.1507 47.7981 48.3778C47.895 48.605 47.8973 48.8611 47.8047 49.0899L47.1812 50.624C47.1112 50.7958 46.9913 50.9429 46.8369 51.0466C46.6824 51.1503 46.5004 51.2059 46.3141 51.2063Z" fill="#CCCCCC"/>
<path d="M29.3125 100H0.20789C0.152754 100 0.0998795 99.9783 0.0608926 99.9395C0.0219057 99.9007 0 99.8481 0 99.7933C0 99.7384 0.0219057 99.6858 0.0608926 99.647C0.0998795 99.6082 0.152754 99.5864 0.20789 99.5864H29.3125C29.3676 99.5864 29.4205 99.6082 29.4595 99.647C29.4985 99.6858 29.5204 99.7384 29.5204 99.7933C29.5204 99.8481 29.4985 99.9007 29.4595 99.9395C29.4205 99.9783 29.3676 100 29.3125 100Z" fill="#CCCCCC"/>
</g>
<defs>
<clipPath id="clip0_63_371">
<rect width="101" height="100" fill="white"/>
</clipPath>
</defs>
</svg>
