<svg width="146" height="109" viewBox="0 0 146 109" fill="none" xmlns="http://www.w3.org/2000/svg">
<g clip-path="url(#clip0_58_176)">
<path opacity="0.1" d="M29.9279 16.031C29.1777 16.9544 28.8889 18.2527 28.5658 19.4732C25.965 29.3096 19.556 37.2215 12.2573 42.8729C9.16644 45.2668 5.40346 48.4771 6.07968 52.769C6.44379 55.074 8.04124 56.7708 9.22804 58.6481C11.718 62.5791 12.5256 67.9222 11.3388 72.628C9.98912 77.9822 6.21656 82.9781 7.38419 88.3921C8.10421 91.7246 10.549 94.0962 12.8993 96.1346C16.566 99.3125 20.3495 102.29 24.2498 105.066C26.8644 106.926 29.6459 108.737 32.6929 108.973C35.3759 109.181 38.0041 108.147 40.5515 107.126C42.7773 106.233 45.0592 105.304 46.8565 103.516C48.0296 102.348 48.9645 100.842 50.2677 99.8864C53.3284 97.6425 57.2598 99.0644 60.7695 100.025C69.0511 102.28 77.9144 101.457 85.7949 97.7008C97.8832 91.9384 107.097 79.8373 118.921 73.3445C124.005 70.5521 129.535 68.8192 134.243 65.2229C136.895 63.1752 139.174 60.6734 140.978 57.8303C144.537 52.2608 146.461 45.1598 145.905 38.2088C145.35 31.2578 142.235 24.5594 137.345 20.6354C132.109 16.4351 125.496 15.6506 119.539 13.129C113.39 10.5213 107.917 6.04186 101.827 3.2495C96.8959 0.993609 91.5294 -0.113579 86.1214 0.00920261C80.7134 0.131984 75.4012 1.48162 70.5746 3.95905C63.9425 7.36097 57.2228 15.2979 49.8365 15.9005C44.5746 16.3171 34.0372 10.974 29.9279 16.031Z" fill="#5D8BFF"/>
<path d="M126.354 48.1945C126.354 48.1945 124.52 41.3281 126.698 36.2751C127.625 34.1618 127.904 31.7743 127.494 29.4711C127.292 28.3793 126.999 27.3102 126.62 26.2773" stroke="#535461" stroke-width="2" stroke-miterlimit="10"/>
<path d="M127.982 23.085C127.982 23.9265 126.596 26.3662 126.596 26.3662C126.596 26.3662 125.211 23.9265 125.211 23.085C125.197 22.8755 125.222 22.665 125.285 22.4668C125.348 22.2685 125.448 22.0868 125.577 21.9328C125.707 21.7789 125.864 21.6561 126.039 21.5721C126.213 21.4882 126.402 21.4448 126.593 21.4448C126.783 21.4448 126.972 21.4882 127.146 21.5721C127.321 21.6561 127.478 21.7789 127.608 21.9328C127.738 22.0868 127.837 22.2685 127.9 22.4668C127.963 22.665 127.988 22.8755 127.974 23.085H127.982Z" fill="#5D8BFF"/>
<path d="M130.261 27.7449C129.846 28.4517 127.478 29.6723 127.478 29.6723C127.478 29.6723 127.521 26.7965 127.935 26.0897C128.146 25.7808 128.455 25.5715 128.801 25.504C129.146 25.4364 129.502 25.5157 129.796 25.7259C130.09 25.936 130.301 26.2614 130.387 26.6363C130.472 27.0113 130.425 27.4079 130.256 27.7463L130.261 27.7449Z" fill="#5D8BFF"/>
<path d="M130.161 35.7111C129.48 36.0902 126.886 35.8278 126.886 35.8278C126.886 35.8278 128.24 33.3686 128.922 32.9895C129.245 32.8417 129.607 32.834 129.935 32.9681C130.263 33.1022 130.533 33.3681 130.69 33.7124C130.848 34.0568 130.881 34.454 130.784 34.8245C130.687 35.195 130.466 35.5112 130.166 35.7098L130.161 35.7111Z" fill="#5D8BFF"/>
<path d="M128.855 41.7252C128.241 42.2251 125.639 42.4514 125.639 42.4514C125.639 42.4514 126.596 39.7756 127.211 39.2743C127.507 39.0762 127.859 39.0073 128.199 39.0811C128.538 39.155 128.841 39.3663 129.046 39.6735C129.251 39.9807 129.345 40.3615 129.308 40.7409C129.272 41.1204 129.108 41.471 128.849 41.7238L128.855 41.7252Z" fill="#5D8BFF"/>
<path d="M124.581 29.8349C125.129 30.4209 127.68 31.0291 127.68 31.0291C127.68 31.0291 127.05 28.2367 126.507 27.6493C126.38 27.4928 126.226 27.3667 126.053 27.2789C125.88 27.1911 125.693 27.1435 125.502 27.139C125.312 27.1346 125.123 27.1734 124.947 27.253C124.771 27.3326 124.612 27.4514 124.479 27.6018C124.346 27.7523 124.243 27.9313 124.176 28.1276C124.109 28.3239 124.079 28.5333 124.089 28.7428C124.099 28.9523 124.147 29.1574 124.232 29.3453C124.316 29.5332 124.435 29.6999 124.581 29.8349Z" fill="#5D8BFF"/>
<path d="M123.133 36.8833C123.815 37.2623 126.409 36.9999 126.409 36.9999C126.409 36.9999 125.054 34.5407 124.373 34.1617C124.05 34.0138 123.688 34.0061 123.36 34.1402C123.032 34.2743 122.762 34.5402 122.604 34.8845C122.447 35.2289 122.413 35.6262 122.511 35.9966C122.608 36.3671 122.828 36.6834 123.128 36.8819L123.133 36.8833Z" fill="#5D8BFF"/>
<path d="M122.579 43.9469C123.193 44.4468 125.795 44.6732 125.795 44.6732C125.795 44.6732 124.838 41.9974 124.223 41.4961C124.079 41.3556 123.91 41.2498 123.727 41.1852C123.543 41.1207 123.35 41.0989 123.159 41.1213C122.968 41.1437 122.783 41.2097 122.616 41.3152C122.449 41.4207 122.304 41.5634 122.19 41.7341C122.076 41.9047 121.995 42.0998 121.953 42.3067C121.911 42.5136 121.908 42.7279 121.946 42.9359C121.983 43.144 122.059 43.3412 122.169 43.515C122.279 43.6888 122.421 43.8354 122.586 43.9456L122.579 43.9469Z" fill="#5D8BFF"/>
<path opacity="0.1" d="M127.982 23.085C127.982 23.9265 126.596 26.3662 126.596 26.3662C126.596 26.3662 125.211 23.9265 125.211 23.085C125.197 22.8755 125.222 22.665 125.285 22.4668C125.348 22.2685 125.448 22.0868 125.577 21.9328C125.707 21.7789 125.864 21.6561 126.039 21.5721C126.213 21.4882 126.402 21.4448 126.593 21.4448C126.783 21.4448 126.972 21.4882 127.146 21.5721C127.321 21.6561 127.478 21.7789 127.608 21.9328C127.738 22.0868 127.837 22.2685 127.9 22.4668C127.963 22.665 127.988 22.8755 127.974 23.085H127.982Z" fill="#5D8BFF"/>
<path opacity="0.1" d="M130.261 27.7449C129.846 28.4517 127.478 29.6723 127.478 29.6723C127.478 29.6723 127.521 26.7965 127.935 26.0897C128.146 25.7808 128.455 25.5715 128.801 25.504C129.146 25.4364 129.502 25.5157 129.796 25.7259C130.09 25.936 130.301 26.2614 130.387 26.6363C130.472 27.0113 130.425 27.4079 130.256 27.7463L130.261 27.7449Z" fill="#5D8BFF"/>
<path opacity="0.1" d="M130.161 35.7111C129.48 36.0902 126.886 35.8278 126.886 35.8278C126.886 35.8278 128.24 33.3686 128.922 32.9895C129.245 32.8417 129.607 32.834 129.935 32.9681C130.263 33.1022 130.533 33.3681 130.69 33.7124C130.848 34.0568 130.881 34.454 130.784 34.8245C130.687 35.195 130.466 35.5112 130.166 35.7098L130.161 35.7111Z" fill="#5D8BFF"/>
<path opacity="0.1" d="M128.855 41.7252C128.241 42.2251 125.639 42.4514 125.639 42.4514C125.639 42.4514 126.596 39.7756 127.211 39.2743C127.507 39.0762 127.859 39.0073 128.199 39.0811C128.538 39.155 128.841 39.3663 129.046 39.6735C129.251 39.9807 129.345 40.3615 129.308 40.7409C129.272 41.1204 129.108 41.471 128.849 41.7238L128.855 41.7252Z" fill="#5D8BFF"/>
<path opacity="0.1" d="M124.581 29.8349C125.129 30.4209 127.68 31.0291 127.68 31.0291C127.68 31.0291 127.05 28.2367 126.507 27.6493C126.38 27.4928 126.226 27.3667 126.053 27.2789C125.88 27.1911 125.693 27.1435 125.502 27.139C125.312 27.1346 125.123 27.1734 124.947 27.253C124.771 27.3326 124.612 27.4514 124.479 27.6018C124.346 27.7523 124.243 27.9313 124.176 28.1276C124.109 28.3239 124.079 28.5333 124.089 28.7428C124.099 28.9523 124.147 29.1574 124.232 29.3453C124.316 29.5332 124.435 29.6999 124.581 29.8349Z" fill="#5D8BFF"/>
<path opacity="0.1" d="M123.133 36.8833C123.815 37.2623 126.409 36.9999 126.409 36.9999C126.409 36.9999 125.054 34.5407 124.373 34.1617C124.05 34.0138 123.688 34.0061 123.36 34.1402C123.032 34.2743 122.762 34.5402 122.604 34.8845C122.447 35.2289 122.413 35.6262 122.511 35.9966C122.608 36.3671 122.828 36.6834 123.128 36.8819L123.133 36.8833Z" fill="#5D8BFF"/>
<path opacity="0.1" d="M122.579 43.9469C123.193 44.4468 125.795 44.6732 125.795 44.6732C125.795 44.6732 124.838 41.9974 124.223 41.4961C124.079 41.3556 123.91 41.2498 123.727 41.1852C123.543 41.1207 123.35 41.0989 123.159 41.1213C122.968 41.1437 122.783 41.2097 122.616 41.3152C122.449 41.4207 122.304 41.5634 122.19 41.7341C122.076 41.9047 121.995 42.0998 121.953 42.3067C121.911 42.5136 121.908 42.7279 121.946 42.9359C121.983 43.144 122.059 43.3412 122.169 43.515C122.279 43.6888 122.421 43.8354 122.586 43.9456L122.579 43.9469Z" fill="#5D8BFF"/>
<path d="M134.038 59.1643C134.038 59.1643 132.204 52.2978 134.382 47.2448C135.309 45.1315 135.588 42.744 135.178 40.4408C134.976 39.349 134.683 38.28 134.304 37.2471" stroke="#535461" stroke-width="2" stroke-miterlimit="10"/>
<path d="M135.666 34.0547C135.666 34.8962 134.28 37.3359 134.28 37.3359C134.28 37.3359 132.895 34.8962 132.895 34.0547C132.88 33.8452 132.906 33.6347 132.969 33.4365C133.032 33.2383 133.131 33.0565 133.261 32.9025C133.391 32.7486 133.548 32.6258 133.723 32.5419C133.897 32.4579 134.086 32.4146 134.276 32.4146C134.467 32.4146 134.655 32.4579 134.83 32.5419C135.005 32.6258 135.162 32.7486 135.292 32.9025C135.421 33.0565 135.521 33.2383 135.584 33.4365C135.647 33.6347 135.672 33.8452 135.658 34.0547H135.666Z" fill="#5D8BFF"/>
<path d="M137.945 38.7146C137.53 39.4214 135.167 40.6406 135.167 40.6406C135.167 40.6406 135.21 37.7648 135.624 37.0581C135.716 36.8746 135.841 36.7139 135.992 36.5861C136.143 36.4582 136.316 36.3659 136.5 36.3149C136.685 36.2639 136.877 36.2553 137.064 36.2897C137.252 36.324 137.431 36.4005 137.59 36.5144C137.75 36.6284 137.887 36.7773 137.992 36.952C138.097 37.1266 138.168 37.3233 138.202 37.5297C138.235 37.736 138.229 37.9477 138.185 38.1516C138.141 38.3555 138.059 38.5471 137.945 38.7146Z" fill="#5D8BFF"/>
<path d="M137.845 46.681C137.164 47.06 134.57 46.7976 134.57 46.7976C134.57 46.7976 135.924 44.3384 136.606 43.9594C136.769 43.8512 136.951 43.7814 137.14 43.7543C137.329 43.7271 137.521 43.7432 137.704 43.8016C137.887 43.8599 138.057 43.9593 138.204 44.0934C138.35 44.2275 138.47 44.3935 138.556 44.5811C138.642 44.7686 138.692 44.9737 138.702 45.1834C138.713 45.3931 138.684 45.603 138.618 45.7999C138.552 45.9969 138.449 46.1766 138.317 46.328C138.185 46.4793 138.026 46.599 137.85 46.6796L137.845 46.681Z" fill="#5D8BFF"/>
<path d="M136.539 52.6949C135.925 53.1948 133.323 53.4211 133.323 53.4211C133.323 53.4211 134.28 50.7453 134.895 50.2441C135.191 50.0459 135.543 49.977 135.883 50.0509C136.222 50.1248 136.525 50.3361 136.73 50.6432C136.935 50.9504 137.029 51.3312 136.992 51.7106C136.956 52.0901 136.792 52.4407 136.532 52.6935L136.539 52.6949Z" fill="#5D8BFF"/>
<path d="M132.265 40.8045C132.813 41.3905 135.363 41.9987 135.363 41.9987C135.363 41.9987 134.734 39.2062 134.191 38.6189C133.923 38.3702 133.579 38.2428 133.229 38.2622C132.879 38.2816 132.549 38.4464 132.305 38.7234C132.061 39.0004 131.921 39.3691 131.913 39.7553C131.906 40.1414 132.031 40.5163 132.265 40.8045Z" fill="#5D8BFF"/>
<path d="M130.817 47.853C131.499 48.2321 134.093 47.9696 134.093 47.9696C134.093 47.9696 132.738 45.5105 132.057 45.1314C131.734 44.9835 131.372 44.9759 131.044 45.1099C130.716 45.244 130.446 45.5099 130.288 45.8543C130.131 46.1986 130.097 46.5959 130.195 46.9664C130.292 47.3368 130.512 47.6531 130.812 47.8516L130.817 47.853Z" fill="#5D8BFF"/>
<path d="M130.263 54.9167C130.877 55.4166 133.479 55.6429 133.479 55.6429C133.479 55.6429 132.522 52.9671 131.907 52.4658C131.763 52.3254 131.594 52.2195 131.411 52.155C131.227 52.0904 131.034 52.0687 130.843 52.0911C130.651 52.1134 130.467 52.1795 130.3 52.285C130.133 52.3905 129.988 52.5331 129.874 52.7038C129.759 52.8745 129.679 53.0695 129.637 53.2764C129.595 53.4833 129.592 53.6976 129.63 53.9057C129.667 54.1137 129.743 54.3109 129.853 54.4847C129.963 54.6585 130.105 54.8052 130.269 54.9153L130.263 54.9167Z" fill="#5D8BFF"/>
<path opacity="0.1" d="M135.666 34.0547C135.666 34.8962 134.28 37.3359 134.28 37.3359C134.28 37.3359 132.895 34.8962 132.895 34.0547C132.88 33.8452 132.906 33.6347 132.969 33.4365C133.032 33.2383 133.131 33.0565 133.261 32.9025C133.391 32.7486 133.548 32.6258 133.723 32.5419C133.897 32.4579 134.086 32.4146 134.276 32.4146C134.467 32.4146 134.655 32.4579 134.83 32.5419C135.005 32.6258 135.162 32.7486 135.292 32.9025C135.421 33.0565 135.521 33.2383 135.584 33.4365C135.647 33.6347 135.672 33.8452 135.658 34.0547H135.666Z" fill="#5D8BFF"/>
<path opacity="0.1" d="M137.945 38.7146C137.53 39.4214 135.167 40.6406 135.167 40.6406C135.167 40.6406 135.21 37.7648 135.624 37.0581C135.716 36.8746 135.841 36.7139 135.992 36.5861C136.143 36.4582 136.316 36.3659 136.5 36.3149C136.685 36.2639 136.877 36.2553 137.064 36.2897C137.252 36.324 137.431 36.4005 137.59 36.5144C137.75 36.6284 137.887 36.7773 137.992 36.952C138.097 37.1266 138.168 37.3233 138.202 37.5297C138.235 37.736 138.229 37.9477 138.185 38.1516C138.141 38.3555 138.059 38.5471 137.945 38.7146Z" fill="#5D8BFF"/>
<path opacity="0.1" d="M137.845 46.681C137.164 47.06 134.57 46.7976 134.57 46.7976C134.57 46.7976 135.924 44.3384 136.606 43.9594C136.769 43.8512 136.951 43.7814 137.14 43.7543C137.329 43.7271 137.521 43.7432 137.704 43.8016C137.887 43.8599 138.057 43.9593 138.204 44.0934C138.35 44.2275 138.47 44.3935 138.556 44.5811C138.642 44.7686 138.692 44.9737 138.702 45.1834C138.713 45.3931 138.684 45.603 138.618 45.7999C138.552 45.9969 138.449 46.1766 138.317 46.328C138.185 46.4793 138.026 46.599 137.85 46.6796L137.845 46.681Z" fill="#5D8BFF"/>
<path opacity="0.1" d="M136.539 52.6949C135.925 53.1948 133.323 53.4211 133.323 53.4211C133.323 53.4211 134.28 50.7453 134.895 50.2441C135.191 50.0459 135.543 49.977 135.883 50.0509C136.222 50.1248 136.525 50.3361 136.73 50.6432C136.935 50.9504 137.029 51.3312 136.992 51.7106C136.956 52.0901 136.792 52.4407 136.532 52.6935L136.539 52.6949Z" fill="#5D8BFF"/>
<path opacity="0.1" d="M132.265 40.8045C132.813 41.3905 135.363 41.9987 135.363 41.9987C135.363 41.9987 134.734 39.2062 134.191 38.6189C133.923 38.3702 133.579 38.2428 133.229 38.2622C132.879 38.2816 132.549 38.4464 132.305 38.7234C132.061 39.0004 131.921 39.3691 131.913 39.7553C131.906 40.1414 132.031 40.5163 132.265 40.8045Z" fill="#5D8BFF"/>
<path opacity="0.1" d="M130.817 47.853C131.499 48.2321 134.093 47.9696 134.093 47.9696C134.093 47.9696 132.738 45.5105 132.057 45.1314C131.734 44.9835 131.372 44.9759 131.044 45.1099C130.716 45.244 130.446 45.5099 130.288 45.8543C130.131 46.1986 130.097 46.5959 130.195 46.9664C130.292 47.3368 130.512 47.6531 130.812 47.8516L130.817 47.853Z" fill="#5D8BFF"/>
<path opacity="0.1" d="M130.263 54.9167C130.877 55.4166 133.479 55.6429 133.479 55.6429C133.479 55.6429 132.522 52.9671 131.907 52.4658C131.763 52.3254 131.594 52.2195 131.411 52.155C131.227 52.0904 131.034 52.0687 130.843 52.0911C130.651 52.1134 130.467 52.1795 130.3 52.285C130.133 52.3905 129.988 52.5331 129.874 52.7038C129.759 52.8745 129.679 53.0695 129.637 53.2764C129.595 53.4833 129.592 53.6976 129.63 53.9057C129.667 54.1137 129.743 54.3109 129.853 54.4847C129.963 54.6585 130.105 54.8052 130.269 54.9153L130.263 54.9167Z" fill="#5D8BFF"/>
<path opacity="0.1" d="M85.0142 82.1216C119.229 78.4434 146.529 70.5402 145.992 64.4692C145.455 58.3982 117.284 56.4584 83.0692 60.1365C48.8548 63.8147 21.5539 71.7179 22.091 77.7889C22.6281 83.8599 50.7998 85.7997 85.0142 82.1216Z" fill="#5D8BFF"/>
<path d="M140.601 65.4364C142.93 60.1738 142.449 51.6077 142.201 48.7C142.147 48.064 142.104 47.6988 142.104 47.6988C142.104 47.6988 140.051 47.342 140.808 44.6023C141.178 43.261 139.863 42.5195 138.427 42.1126C137.4 41.8419 136.353 41.6788 135.298 41.6252L115.409 40.2714C112.682 35.5002 107.316 36.2667 107.316 36.2667C107.316 36.2667 102.529 35.7182 99.1357 35.6613C98.6207 35.1611 98.0562 34.7265 97.4529 34.3658C97.0933 34.1276 96.7105 33.9352 96.3116 33.7923C95.8267 33.6381 95.3157 33.6111 94.8196 33.7136C94.3235 33.816 93.8561 34.0451 93.4547 34.3824C93.2591 34.5376 93.0998 34.7417 92.9899 34.9781C92.9476 35.0856 92.9159 35.1978 92.8954 35.3128C92.8443 35.5089 92.8022 35.7077 92.7695 35.9085C92.7399 36.0051 92.6975 36.0964 92.6435 36.1793C92.5074 36.3917 92.2732 36.5514 92.2429 36.8083C92.2422 36.8231 92.2422 36.8379 92.2429 36.8527C92.218 36.9018 92.2014 36.9554 92.1938 37.011C92.1847 37.1253 92.2071 37.24 92.258 37.3401C92.2656 37.3568 92.2744 37.372 92.2832 37.3873C92.1158 37.6546 91.9791 37.9438 91.8764 38.2482C91.8298 38.2762 91.7847 38.3073 91.7416 38.3413L91.7038 38.3718V38.4565L91.6824 38.4746L91.6358 39.8423L91.6622 39.8645C91.7003 40.5026 91.875 41.1216 92.1719 41.6709C92.4688 42.2202 92.8794 42.6842 93.3703 43.0249C93.3867 43.1124 93.4018 43.2013 93.4169 43.2943C93.4861 43.7428 93.5173 44.1974 93.5101 44.6523H93.4887C92.8967 44.3746 91.8839 44.7828 91.0135 45.2591H79.7371C81.9364 42.1404 84.627 39.7215 84.627 39.7215V36.9805C82.7048 36.8749 65.8179 45.8173 62.1157 47.7919L61.952 47.8793L42.9249 48.5292C39.4785 48.5056 36.4654 49.0638 33.8554 49.9733C29.4939 51.4835 25.5746 54.2437 22.4983 57.9715C20.2511 60.6903 19.2661 62.937 19.2661 62.937L19.2875 63.1259L19.2661 63.1744L19.2963 63.2036L19.809 67.6637L20.1617 70.7324C17.7104 72.4793 20.886 73.1791 20.886 73.1791C23.9092 76.0368 28.7727 75.9188 28.7727 75.9188C29.9605 77.7058 33.4183 77.467 33.4183 77.467H51.5687C51.8514 75.6301 52.2299 73.8127 52.7023 72.0238C53.477 78.1738 57.8795 82.8852 63.1928 82.8852C63.5868 82.885 63.9806 82.8585 64.3718 82.8061C64.763 82.8585 65.1567 82.885 65.5508 82.8852C70.9258 82.8852 75.3673 78.0627 76.0664 71.81H76.9545C76.7887 73.207 76.5006 74.583 76.0941 75.9188C92.4079 70.6783 122.767 68.1775 122.767 68.1775C122.893 66.8583 123.031 65.5836 123.181 64.3603C124.432 67.7831 127.268 70.1728 130.568 70.1728C130.868 70.1724 131.167 70.152 131.465 70.1118C131.762 70.152 132.062 70.1724 132.362 70.1728C136.28 70.1728 139.542 66.8028 140.277 62.3344C140.375 63.123 140.43 63.9172 140.444 64.713C140.304 65.4711 140.182 65.9558 140.165 66.0238C140.263 65.8257 140.357 65.623 140.445 65.4156C140.445 65.4961 140.445 65.5795 140.445 65.6628C140.415 65.8016 140.393 65.8794 140.387 65.9058L140.442 65.7919C140.442 65.853 140.442 65.9127 140.442 65.9738C140.43 65.9794 140.497 65.7794 140.601 65.4364Z" fill="url(#paint0_linear_58_176)"/>
<path d="M138.698 46.5269H101.299V63.1578H138.698V46.5269Z" fill="#6F7D95"/>
<path d="M91.7896 38.7384L97.1015 51.8562L107.621 51.1536L108.045 45.7659L108.364 39.441L93.4901 38.269L91.7896 38.7384Z" fill="#4B5C7A"/>
<path d="M91.7896 38.7383C91.7896 38.7383 93.805 36.6304 96.2525 36.1611C98.7 35.6918 106.878 36.629 106.878 36.629L108.047 38.8508L107.827 39.9089L91.7896 38.7383Z" fill="#FF4D52"/>
<path d="M111.817 45.4729H74.0989V57.6534H111.817V45.4729Z" fill="#4B5C7A"/>
<path d="M102.537 53.76C103.533 50.0872 101.547 47.6739 101.547 47.6739L98.2541 45.1411C98.2513 45.1498 98.248 45.1581 98.244 45.1661C97.8157 44.6129 97.5092 43.958 97.3484 43.2527C97.3383 43.2083 97.3295 43.1624 97.3194 43.1138C97.6204 42.8673 97.884 42.5697 98.1004 42.2321C98.637 41.8697 98.8763 41.2865 98.967 40.7047C99.3122 40.1399 99.5872 39.5267 99.7846 38.8815C99.8172 38.7771 99.8449 38.671 99.8677 38.5635C99.9311 38.3634 99.9593 38.1518 99.9508 37.94C99.924 37.7042 99.8528 37.4772 99.7417 37.2735C99.1875 36.1627 98.1898 35.3892 97.1783 34.7588C96.8248 34.5247 96.4482 34.3356 96.056 34.195C95.5791 34.0435 95.0768 34.0171 94.589 34.1179C94.1012 34.2187 93.6416 34.4439 93.247 34.7755C93.0545 34.928 92.8978 35.1289 92.7897 35.3614C92.748 35.4671 92.7167 35.5775 92.6965 35.6905C92.6476 35.8835 92.6076 36.0791 92.5768 36.2765C92.5494 36.3708 92.5095 36.4602 92.4584 36.5417C92.3236 36.75 92.0944 36.9069 92.0641 37.161C92.0634 37.1758 92.0634 37.1907 92.0641 37.2055C92.0398 37.2537 92.0236 37.3064 92.0163 37.361C92.007 37.4734 92.0289 37.5862 92.0792 37.6845C92.0868 37.7012 92.0956 37.7165 92.1044 37.7317C91.9396 37.9947 91.805 38.2792 91.7039 38.5788C91.6577 38.6063 91.6131 38.6369 91.5703 38.6704L91.5338 38.6996V38.7829L91.5124 38.8009L91.4658 40.1465L91.491 40.1687C91.5282 40.7963 91.6998 41.4052 91.9916 41.9456C92.2835 42.486 92.6873 42.9425 93.1701 43.2777C93.1865 43.3638 93.2016 43.4513 93.2155 43.5429C93.2915 44.0274 93.3219 44.5192 93.3062 45.0106C93.3012 44.9682 93.3012 44.9253 93.3062 44.8829C92.3954 44.4288 90.4089 45.6841 89.6091 46.2395C89.4878 46.3028 89.3747 46.3836 89.2727 46.4797L89.2589 46.4908C88.7084 46.9824 87.6213 48.3487 86.7585 51.8604C85.5618 56.7607 85.6865 57.8716 84.8148 59.0074C83.9431 60.1433 83.0778 68.1456 83.0778 68.1456L84.8325 68.6663L85.0567 67.872C87.1427 69.9688 92.9837 70.9783 92.9837 70.9783L93.1626 70.3659C94.0582 70.7214 95.5559 70.1812 95.5559 70.1812C97.7452 69.3287 98.5652 67.1653 100.154 64.3117C101.742 61.4582 102.537 53.76 102.537 53.76ZM93.7067 68.5247L97.7502 54.6987C98.1168 56.8454 96.4994 60.2266 96.3558 62.4372C96.2663 63.8591 94.7648 66.6848 93.7067 68.5247Z" fill="url(#paint1_linear_58_176)"/>
<path d="M98.7654 39.2119C98.7654 39.2119 99.4696 42.1682 97.3798 42.6833C95.29 43.1985 96.6668 41.3545 96.6668 41.3545L98.6823 39.1897L98.7654 39.2119Z" fill="#472727"/>
<path d="M90.0285 46.2573C90.0285 46.2573 88.474 46.9516 87.3315 51.6283C86.189 56.305 86.3024 57.3603 85.4798 58.4476C84.6573 59.5348 83.8146 67.1636 83.8146 67.1636L85.4597 67.6524L86.8919 62.5536L90.8309 49.0845L90.0285 46.2573Z" fill="#DDE0E4"/>
<path opacity="0.05" d="M90.0285 46.2573C90.0285 46.2573 88.474 46.9516 87.3315 51.6283C86.189 56.305 86.3024 57.3603 85.4798 58.4476C84.6573 59.5348 83.8146 67.1636 83.8146 67.1636L85.4597 67.6524L86.8919 62.5536L90.8309 49.0845L90.0285 46.2573Z" fill="black"/>
<path d="M98.6597 45.7297C98.6597 45.7297 92.1523 49.3761 93.1046 46.9975C93.5757 45.8228 93.5581 44.605 93.4208 43.6649C93.3424 43.1112 93.205 42.5696 93.0114 42.0514C93.0114 42.0514 97.4353 38.194 97.1758 41.3432C97.1137 42.0211 97.1563 42.7056 97.3018 43.3678C97.6847 45.0382 98.6597 45.7297 98.6597 45.7297Z" fill="#DB8B8B"/>
<path opacity="0.1" d="M97.3018 43.3734C96.8833 43.7439 96.3912 43.9999 95.8658 44.1206C95.3404 44.2413 94.7965 44.2231 94.2786 44.0677C93.9757 43.9779 93.6854 43.8429 93.4157 43.6664C93.3374 43.1127 93.2 42.5711 93.0063 42.0529C93.0063 42.0529 97.4303 38.1954 97.1708 41.3447C97.1099 42.0242 97.1542 42.7102 97.3018 43.3734Z" fill="black"/>
<path d="M98.505 41.2319C98.9941 39.2296 97.9181 37.1693 96.1016 36.6301C94.2852 36.091 92.4162 37.2771 91.9271 39.2795C91.438 41.2818 92.514 43.3421 94.3305 43.8812C96.1469 44.4204 98.0159 43.2342 98.505 41.2319Z" fill="#DB8B8B"/>
<path opacity="0.1" d="M93.5051 38.4246C93.4117 38.4875 93.3076 38.529 93.1993 38.5465C93.091 38.564 92.9805 38.5571 92.8746 38.5264C92.7687 38.4957 92.6696 38.4417 92.5831 38.3676C92.4966 38.2936 92.4246 38.201 92.3714 38.0955C92.3247 38.0014 92.3045 37.8941 92.3135 37.7872C92.3424 37.5456 92.5591 37.3957 92.6914 37.1957C92.8967 36.8722 92.8576 36.4292 93.0063 36.0696C93.1086 35.8499 93.2562 35.6597 93.4371 35.5141C93.8052 35.1969 94.2362 34.9802 94.6949 34.8817C95.1535 34.7833 95.6268 34.8058 96.0761 34.9476C96.4436 35.0798 96.7961 35.2582 97.1266 35.4794C98.0739 36.0751 99.0073 36.8041 99.52 37.8636C99.6238 38.058 99.6899 38.2741 99.7139 38.4982C99.7196 38.7402 99.6811 38.9811 99.6006 39.2064C99.4111 39.8286 99.1472 40.4203 98.8158 40.9657C98.705 40.8139 98.5658 40.6903 98.4077 40.6033C98.3279 40.5617 98.2382 40.5488 98.1514 40.5665C98.0646 40.5842 97.985 40.6315 97.924 40.7018C97.8144 40.856 97.7476 41.1504 97.5813 41.0809C97.473 41.0365 97.4743 40.8713 97.4793 40.7435C97.502 40.1881 97.2274 39.6646 96.8583 39.2897C96.4892 38.9148 96.032 38.6676 95.581 38.4246C95.2573 38.2496 94.8252 37.8483 94.47 37.7775C94.0291 37.6873 93.8213 38.2094 93.5051 38.4246Z" fill="black"/>
<path d="M93.5517 38.2344C93.4583 38.2973 93.3543 38.3388 93.2459 38.3563C93.1376 38.3738 93.0272 38.367 92.9213 38.3362C92.8154 38.3055 92.7162 38.2515 92.6297 38.1774C92.5433 38.1034 92.4713 38.0108 92.418 37.9053C92.3713 37.8112 92.3512 37.7039 92.3601 37.597C92.3891 37.3554 92.6057 37.2055 92.738 37.0055C92.9433 36.682 92.9043 36.239 93.0529 35.8794C93.1553 35.6597 93.3028 35.4695 93.4837 35.324C93.8519 35.0067 94.2829 34.79 94.7415 34.6915C95.2002 34.5931 95.6735 34.6157 96.1227 34.7574C96.4903 34.8896 96.8428 35.0681 97.1732 35.2892C98.1205 35.8849 99.0539 36.6139 99.5666 37.6734C99.6705 37.8678 99.7365 38.0839 99.7606 38.308C99.7663 38.5501 99.7277 38.7909 99.6472 39.0162C99.4577 39.6385 99.1938 40.2301 98.8624 40.7755C98.7516 40.6238 98.6124 40.5001 98.4543 40.4131C98.3745 40.3715 98.2848 40.3586 98.198 40.3763C98.1112 40.394 98.0317 40.4414 97.9706 40.5117C97.861 40.6658 97.7943 40.9602 97.628 40.8907C97.5197 40.8463 97.5209 40.6811 97.5259 40.5533C97.5486 39.9979 97.274 39.4744 96.9049 39.0995C96.5359 38.7246 96.0786 38.4774 95.6277 38.2344C95.3039 38.0594 94.8719 37.6581 94.5166 37.5873C94.0758 37.4957 93.8679 38.0192 93.5517 38.2344Z" fill="#472727"/>
<path d="M95.3355 46.2268C95.3355 46.2268 98.0299 45.645 98.147 45.1687L101.228 47.5667C101.228 47.5667 103.082 49.8565 102.134 53.3612C102.134 53.3612 101.362 60.7054 99.8601 63.4312C98.3586 66.1569 97.4958 69.6881 95.4388 70.5129C95.4388 70.5129 93.4611 69.1076 92.8086 69.1243C92.8086 69.1243 96.158 63.7741 96.3016 61.6677C96.4452 59.5612 97.9757 56.3314 97.6406 54.2874L93.1059 69.8255C93.1059 69.8255 85.7999 68.5758 85.0592 65.9028C85.0592 65.9028 85.689 64.86 85.5719 63.8033C85.4547 62.7466 88.328 54.797 88.328 54.797L89.7036 46.5073C89.7036 46.5073 92.4244 44.4119 93.5077 44.9562C93.5027 44.9479 93.3062 45.9824 95.3355 46.2268Z" fill="#DDE0E4"/>
<g opacity="0.1">
<path d="M96.3167 39.7812C95.6516 38.7815 94.3831 39.6021 94.1753 39.7451L93.849 39.709C93.5644 39.3674 92.6914 38.4593 91.8714 39.1272L91.8361 39.1564L91.787 40.438L91.8223 40.4686C92.0591 40.6702 92.3277 40.8217 92.6146 40.9157C92.7962 40.9746 92.9879 40.985 93.1739 40.9462C93.3115 40.9112 93.4405 40.8434 93.5517 40.7474C93.6629 40.6514 93.7537 40.5297 93.8176 40.3908L93.9876 40.4033L94.1136 40.3769C94.1388 40.5246 94.1923 40.6646 94.2705 40.7877C94.3487 40.9108 94.4498 41.0141 94.567 41.0907C95.1301 41.442 95.9527 41.0907 95.9867 41.0837L96.0295 41.0657L96.3318 39.8257L96.3167 39.7812ZM95.8897 40.9088C95.7222 40.9712 95.0898 41.1767 94.6653 40.9088C94.5596 40.8357 94.4705 40.7369 94.405 40.6199C94.3395 40.5029 94.2993 40.3708 94.2874 40.2339L94.2723 40.1325L93.9964 40.195L93.7193 40.1839L93.6928 40.2422C93.6423 40.3684 93.5661 40.48 93.4703 40.5686C93.3744 40.6572 93.2614 40.7204 93.1399 40.7532C92.665 40.8657 92.1158 40.4602 91.9722 40.345L92.0137 39.2619C92.7267 38.7329 93.5127 39.591 93.7395 39.8715L93.7634 39.9007L94.2232 39.9506L94.2509 39.9298C94.2635 39.9215 95.406 39.0758 96.0572 39.7562C96.0895 39.7893 96.1194 39.825 96.1467 39.8632L95.8897 40.9088Z" fill="black"/>
<path d="M98.38 40.4255L96.2386 40.2297L96.0622 40.1922L96.1416 39.8645C96.1143 39.8263 96.0844 39.7906 96.0521 39.7576L96.3116 39.7853L98.0638 39.9742L98.38 40.4255Z" fill="black"/>
</g>
<path d="M96.3394 39.6924C95.6743 38.6926 94.4058 39.5132 94.198 39.6563L93.8717 39.6202C93.5871 39.2786 92.7141 38.3705 91.8941 39.0384L91.8588 39.0675L91.8097 40.3492L91.845 40.3797C92.0818 40.5813 92.3504 40.7329 92.6373 40.8268C92.8189 40.8857 93.0106 40.8962 93.1966 40.8574C93.3342 40.8224 93.4632 40.7545 93.5744 40.6585C93.6856 40.5625 93.7764 40.4408 93.8403 40.302L94.0103 40.3144L94.1363 40.2881C94.1615 40.4357 94.215 40.5758 94.2932 40.6989C94.3714 40.8219 94.4725 40.9252 94.5897 41.0018C95.1528 41.3531 95.9754 41.0018 96.0094 40.9948L96.0522 40.9768L96.3545 39.7368L96.3394 39.6924ZM95.9124 40.8199C95.7448 40.8824 95.1125 41.0879 94.688 40.8199C94.5823 40.7469 94.4932 40.648 94.4277 40.531C94.3622 40.414 94.322 40.2819 94.3101 40.145L94.295 40.0437L94.0191 40.1062L93.7458 40.0867L93.7193 40.145C93.6696 40.2719 93.5942 40.3845 93.4987 40.474C93.4033 40.5636 93.2904 40.6278 93.1689 40.6616C92.694 40.7741 92.1448 40.3686 92.0012 40.2534L92.0427 39.1703C92.7557 38.6412 93.5417 39.4994 93.7685 39.7798L93.7924 39.809L94.2522 39.859L94.2799 39.8382C94.2925 39.8298 95.435 38.9842 96.0862 39.6646C96.1185 39.6976 96.1484 39.7334 96.1757 39.7715L95.9124 40.8199Z" fill="#472727"/>
<path d="M98.4001 40.3366L96.2663 40.1408L96.0899 40.1033L96.1693 39.7756C96.142 39.7375 96.1121 39.7017 96.0798 39.6687L96.3393 39.6965L98.0915 39.8853L98.4001 40.3366Z" fill="#472727"/>
<path d="M83.7667 54.9597H46.3676V71.5906H83.7667V54.9597Z" fill="#6F7D95"/>
<path d="M63.4838 82.4826C69.2476 82.4826 73.9201 76.8458 73.9201 69.8924C73.9201 62.9391 69.2476 57.3022 63.4838 57.3022C57.7201 57.3022 53.0476 62.9391 53.0476 69.8924C53.0476 76.8458 57.7201 82.4826 63.4838 82.4826Z" fill="#4B5C7A"/>
<path opacity="0.05" d="M63.4838 82.4826C69.2476 82.4826 73.9201 76.8458 73.9201 69.8924C73.9201 62.9391 69.2476 57.3022 63.4838 57.3022C57.7201 57.3022 53.0476 62.9391 53.0476 69.8924C53.0476 76.8458 57.7201 82.4826 63.4838 82.4826Z" fill="black"/>
<path d="M65.8028 82.4826C71.5666 82.4826 76.2391 76.8458 76.2391 69.8924C76.2391 62.9391 71.5666 57.3022 65.8028 57.3022C60.039 57.3022 55.3666 62.9391 55.3666 69.8924C55.3666 76.8458 60.039 82.4826 65.8028 82.4826Z" fill="#4B5C7A"/>
<path opacity="0.05" d="M65.571 75.0689C68.1326 75.0689 70.2091 72.7799 70.2091 69.9562C70.2091 67.1325 68.1326 64.8435 65.571 64.8435C63.0095 64.8435 60.933 67.1325 60.933 69.9562C60.933 72.7799 63.0095 75.0689 65.571 75.0689Z" fill="black"/>
<path d="M65.571 71.4906C66.3397 71.4906 66.9629 70.8037 66.9629 69.9562C66.9629 69.1088 66.3397 68.4219 65.571 68.4219C64.8023 68.4219 64.1791 69.1088 64.1791 69.9562C64.1791 70.8037 64.8023 71.4906 65.571 71.4906Z" stroke="#6F7D95" stroke-width="2" stroke-miterlimit="10"/>
<path d="M65.5711 67.6554C65.7631 67.6554 65.9187 67.4838 65.9187 67.2722C65.9187 67.0605 65.7631 66.8889 65.5711 66.8889C65.379 66.8889 65.2234 67.0605 65.2234 67.2722C65.2234 67.4838 65.379 67.6554 65.5711 67.6554Z" fill="#6F7D95"/>
<path d="M67.6969 68.3057C67.844 68.1696 67.8632 67.9279 67.7398 67.7657C67.6163 67.6036 67.3971 67.5824 67.25 67.7185C67.1029 67.8546 67.0837 68.0963 67.2071 68.2584C67.3305 68.4206 67.5498 68.4417 67.6969 68.3057Z" fill="#6F7D95"/>
<path d="M68.5271 70.1614C68.5605 69.953 68.4342 69.7542 68.2451 69.7175C68.056 69.6807 67.8757 69.8199 67.8424 70.0283C67.809 70.2368 67.9353 70.4356 68.1244 70.4723C68.3135 70.5091 68.4938 70.3699 68.5271 70.1614Z" fill="#6F7D95"/>
<path d="M67.3646 72.366C67.5309 72.2601 67.5878 72.0258 67.4918 71.8425C67.3958 71.6592 67.1832 71.5963 67.0169 71.7022C66.8506 71.808 66.7936 72.0424 66.8897 72.2257C66.9857 72.409 67.1983 72.4718 67.3646 72.366Z" fill="#6F7D95"/>
<path d="M65.5341 72.5734C65.5998 72.3745 65.5068 72.1546 65.3264 72.0822C65.1459 72.0098 64.9464 72.1124 64.8807 72.3113C64.8151 72.5101 64.9081 72.7301 65.0885 72.8025C65.269 72.8749 65.4685 72.7723 65.5341 72.5734Z" fill="#6F7D95"/>
<path d="M63.7669 71.3897C63.9473 71.3173 64.0404 71.0974 63.9747 70.8985C63.909 70.6996 63.7095 70.5971 63.5291 70.6695C63.3487 70.7419 63.2556 70.9618 63.3213 71.1607C63.387 71.3596 63.5865 71.4621 63.7669 71.3897Z" fill="#6F7D95"/>
<path d="M63.9291 68.9954C64.0251 68.8121 63.9681 68.5777 63.8018 68.4719C63.6355 68.3661 63.4229 68.4289 63.3269 68.6122C63.2309 68.7955 63.2879 69.0299 63.4542 69.1357C63.6204 69.2415 63.8331 69.1787 63.9291 68.9954Z" fill="#6F7D95"/>
<path d="M140.791 60.1625C140.435 62.8758 139.443 65.8459 139.443 65.8459C139.45 65.6608 139.454 65.4779 139.456 65.2974C139.456 65.0641 139.456 64.8336 139.456 64.6031C139.33 57.1243 135.633 52.5101 133.248 50.3009C132.629 49.7187 131.962 49.2 131.257 48.7512H137.738C137.738 48.7512 140.287 54.4902 140.819 57.3006C140.973 58.0894 140.93 59.1072 140.791 60.1625Z" fill="#FF4D52"/>
<path opacity="0.05" d="M140.791 60.1625C140.435 62.8758 139.443 65.8459 139.443 65.8459C139.45 65.6608 139.454 65.4779 139.456 65.2974C139.456 65.0641 139.456 64.8336 139.456 64.6031C139.33 57.1243 135.633 52.5101 133.248 50.3009C132.629 49.7187 131.962 49.2 131.257 48.7512H137.738C137.738 48.7512 140.287 54.4902 140.819 57.3006C140.973 58.0894 140.93 59.1072 140.791 60.1625Z" fill="black"/>
<path d="M129.742 69.9812C134.125 69.9812 137.679 65.6941 137.679 60.4057C137.679 55.1172 134.125 50.8301 129.742 50.8301C125.358 50.8301 121.805 55.1172 121.805 60.4057C121.805 65.6941 125.358 69.9812 129.742 69.9812Z" fill="#4B5C7A"/>
<path opacity="0.05" d="M129.742 69.9812C134.125 69.9812 137.679 65.6941 137.679 60.4057C137.679 55.1172 134.125 50.8301 129.742 50.8301C125.358 50.8301 121.805 55.1172 121.805 60.4057C121.805 65.6941 125.358 69.9812 129.742 69.9812Z" fill="black"/>
<path d="M131.505 69.9812C135.889 69.9812 139.442 65.6941 139.442 60.4057C139.442 55.1172 135.889 50.8301 131.505 50.8301C127.122 50.8301 123.568 55.1172 123.568 60.4057C123.568 65.6941 127.122 69.9812 131.505 69.9812Z" fill="#4B5C7A"/>
<path opacity="0.05" d="M131.329 64.3422C133.277 64.3422 134.856 62.6014 134.856 60.4542C134.856 58.3069 133.277 56.5662 131.329 56.5662C129.381 56.5662 127.802 58.3069 127.802 60.4542C127.802 62.6014 129.381 64.3422 131.329 64.3422Z" fill="black"/>
<path d="M131.329 61.6206C131.913 61.6206 132.387 61.0984 132.387 60.4542C132.387 59.8101 131.913 59.2878 131.329 59.2878C130.744 59.2878 130.271 59.8101 130.271 60.4542C130.271 61.0984 130.744 61.6206 131.329 61.6206Z" stroke="#6F7D95" stroke-width="2" stroke-miterlimit="10"/>
<path d="M131.329 58.7045C131.475 58.7045 131.593 58.574 131.593 58.4129C131.593 58.2519 131.475 58.1213 131.329 58.1213C131.183 58.1213 131.064 58.2519 131.064 58.4129C131.064 58.574 131.183 58.7045 131.329 58.7045Z" fill="#6F7D95"/>
<path d="M132.947 59.199C133.058 59.0955 133.073 58.9116 132.979 58.7882C132.885 58.6648 132.718 58.6487 132.606 58.7523C132.495 58.8558 132.48 59.0397 132.574 59.1631C132.668 59.2864 132.835 59.3025 132.947 59.199Z" fill="#6F7D95"/>
<path d="M133.577 60.6117C133.602 60.4531 133.506 60.3019 133.362 60.2739C133.219 60.2459 133.081 60.3518 133.056 60.5104C133.031 60.669 133.127 60.8203 133.271 60.8482C133.414 60.8762 133.552 60.7703 133.577 60.6117Z" fill="#6F7D95"/>
<path d="M132.694 62.2877C132.82 62.2072 132.864 62.0289 132.791 61.8894C132.718 61.7499 132.556 61.7021 132.429 61.7827C132.303 61.8632 132.26 62.0415 132.333 62.181C132.406 62.3205 132.567 62.3683 132.694 62.2877Z" fill="#6F7D95"/>
<path d="M131.301 62.445C131.351 62.2937 131.281 62.1263 131.143 62.0712C131.006 62.0162 130.854 62.0942 130.804 62.2455C130.754 62.3969 130.825 62.5642 130.962 62.6193C131.1 62.6743 131.251 62.5963 131.301 62.445Z" fill="#6F7D95"/>
<path d="M129.957 61.5438C130.094 61.4887 130.165 61.3213 130.115 61.17C130.065 61.0187 129.913 60.9406 129.776 60.9957C129.639 61.0508 129.568 61.2181 129.618 61.3695C129.668 61.5208 129.82 61.5988 129.957 61.5438Z" fill="#6F7D95"/>
<path d="M130.082 59.7232C130.155 59.5837 130.111 59.4053 129.985 59.3248C129.858 59.2443 129.697 59.2921 129.623 59.4316C129.55 59.571 129.594 59.7494 129.72 59.8299C129.847 59.9104 130.009 59.8626 130.082 59.7232Z" fill="#6F7D95"/>
<path d="M21.2412 71.1809L20.2814 62.8647H31.6498L37.4933 68.6037L34.6251 75.9826C34.6251 75.9826 23.0526 73.8747 21.2412 71.1809Z" fill="#FF4D52"/>
<path opacity="0.05" d="M37.4971 68.6038L34.6289 75.9827C34.6289 75.9827 23.0527 73.8748 21.2413 71.181L21.1997 70.8186L20.318 63.1287L20.3091 63.0523L20.2877 62.8662H31.6561L37.4971 68.6038Z" fill="black"/>
<path d="M84.5653 37.3332V40.027C84.5653 40.027 78.6903 45.3036 77.2921 50.2816C77.048 51.09 76.9559 51.9447 77.0212 52.7936C77.5528 58.2979 61.724 48.3418 61.724 48.3418L62.4281 47.9641C66.0673 46.0298 82.6746 37.2277 84.5653 37.3332Z" fill="#7597CE"/>
<path d="M97.953 50.3342C97.953 50.3342 103.455 47.3543 104.338 45.1493C104.457 44.8535 104.569 44.5549 104.7 44.2647C105.245 43.0553 106.391 40.2184 105.815 38.8562C105.071 37.0997 107.621 39.0909 107.621 39.0909L106.133 47.4043L102.521 49.626L97.8459 50.3342" fill="#FF4D52"/>
<path opacity="0.05" d="M97.953 50.3342C97.953 50.3342 103.455 47.3543 104.338 45.1493C104.457 44.8535 104.569 44.5549 104.7 44.2647C105.245 43.0553 106.391 40.2184 105.815 38.8562C105.071 37.0997 107.621 39.0909 107.621 39.0909L106.133 47.4043L102.521 49.626L97.8459 50.3342" fill="black"/>
<path opacity="0.05" d="M37.4971 68.6036L34.6289 75.9825C34.6289 75.9825 23.0527 73.8746 21.2413 71.1808L21.1997 70.8184C21.2463 70.7837 21.2954 70.7476 21.3471 70.7129C21.3471 70.7129 24.8527 73.758 32.8225 74.462C32.8225 74.462 37.6092 70.2449 29.8472 65.5613C29.8472 65.5613 23.0955 65.7945 20.3142 63.1299L20.2839 63.1021L20.3054 63.0535C20.3238 63.0137 20.3536 62.9517 20.3948 62.8674H31.6523L37.4971 68.6036Z" fill="black"/>
<path opacity="0.05" d="M77.0212 52.7922C77.5528 58.2979 61.724 48.3418 61.724 48.3418L62.4281 47.9641C62.8942 48.5112 64.7547 50.3566 68.4745 50.1567C70.8678 50.0275 74.5019 50.1456 77.2984 50.2802C77.0522 51.0881 76.9579 51.9428 77.0212 52.7922Z" fill="black"/>
<path opacity="0.05" d="M83.7681 54.9597V71.5906H76.8198C77.2783 67.7221 77.0138 62.0831 72.5571 58.8505C70.8949 57.6528 68.9649 56.9845 66.98 56.9193C64.995 56.8542 63.0323 57.3946 61.3084 58.4811C58.3873 60.3196 55.121 64.0576 53.0451 71.5906H46.3689V54.9597H83.7681Z" fill="black"/>
<path opacity="0.05" d="M140.791 60.1625C140.529 61.9982 140.109 63.7811 139.457 65.3002C139.373 65.5048 139.282 65.7043 139.183 65.8987C139.199 65.8306 139.319 65.3557 139.457 64.6087C140.132 60.9706 141.288 50.9035 133.548 50.3286C133.447 50.3217 133.348 50.3147 133.248 50.3106C132.629 49.725 131.962 49.2031 131.257 48.7512H137.738C137.738 48.7512 140.287 54.4902 140.819 57.3006C140.973 58.0894 140.93 59.1072 140.791 60.1625Z" fill="black"/>
<path d="M139.393 65.785C139.494 65.3837 143.084 50.9092 133.759 50.2164C124.302 49.5137 123.134 57.3605 122.072 68.0192C122.072 68.0192 92.2178 70.4784 76.1723 75.6327C76.1723 75.6327 80.0243 63.9965 72.7712 58.7338C71.109 57.5362 69.179 56.8679 67.1941 56.8027C65.2092 56.7375 63.2465 57.278 61.5225 58.3645C57.9451 60.6167 53.8475 65.7239 52.055 77.1546H34.2031C34.2031 77.1546 30.8021 77.3893 29.6344 75.6272C29.6344 75.6272 24.8477 75.7438 21.8787 72.9334C21.8787 72.9334 18.6917 72.2307 21.2413 70.4742C21.2413 70.4742 24.854 73.5193 32.8226 74.2233C32.8226 74.2233 37.6092 70.0063 29.8472 65.3226C29.8472 65.3226 23.0451 65.5573 20.2852 62.8634C20.2852 62.8634 21.2539 60.6542 23.4646 57.9812C26.4883 54.3148 30.341 51.5992 34.6289 50.1122C37.5182 49.1276 40.5296 48.6487 43.5536 48.6931L62.306 48.0488C62.306 48.0488 64.1174 50.626 68.4683 50.3913C72.8191 50.1566 81.3243 50.7426 81.3243 50.7426H81.4087L98.9078 49.8692C99.4103 49.791 99.9073 49.675 100.395 49.5221C102.932 48.7625 107.744 46.4589 106.876 40.0256L134.395 41.9002C135.432 41.9527 136.462 42.1131 137.472 42.3793C138.885 42.7792 140.178 43.5096 139.814 44.8287C139.071 47.5225 141.089 47.8738 141.089 47.8738C141.089 47.8738 141.131 48.2335 141.184 48.8583C141.436 51.8049 141.931 60.664 139.393 65.785Z" fill="#5D8BFF"/>
<path opacity="0.05" d="M55.2406 52.9102C55.2406 52.9102 43.7652 53.0268 36.2198 60.4084H40.4699C40.4699 60.4084 52.3699 57.012 55.2381 54.3182L55.2406 52.9102Z" fill="black"/>
<path d="M55.1336 52.792C55.1336 52.792 43.6581 52.9086 36.1128 60.2903H40.3629C40.3629 60.2903 52.2628 56.8938 55.1311 54.2L55.1336 52.792Z" fill="#FFEC9F"/>
<path opacity="0.05" d="M34.7347 50.2302V53.3781L25.0681 58.2978L23.5717 58.0993C26.595 54.433 30.4473 51.7174 34.7347 50.2302Z" fill="black"/>
<path d="M34.6276 50.1135V53.2614L24.9597 58.1797L23.4633 57.9812C26.4871 54.3152 30.3398 51.6001 34.6276 50.1135Z" fill="#FFEC9F"/>
<path opacity="0.05" d="M48.3339 64.3879C48.3339 64.3879 43.1278 67.901 42.5962 75.6354H45.5715C45.5715 75.6354 46.7405 67.2026 50.1403 64.3879H48.3339Z" fill="black"/>
<path opacity="0.05" d="M109.853 64.6227L82.8649 68.1358C82.8649 68.1358 81.0799 55.6109 81.41 50.7384L98.9091 49.865C99.4111 49.7881 99.9077 49.6735 100.395 49.522V50.6842L113.57 47.1711C113.57 47.1711 115.802 50.8009 109.853 64.6227Z" fill="black"/>
<path d="M106.878 36.629C106.878 36.629 112.615 35.8098 115.165 41.1974L106.96 40.8489L106.878 36.629Z" fill="#FF4D52"/>
<path opacity="0.05" d="M114.767 43.0859C114.541 43.8649 114.712 44.7216 116.018 45.3145C117.105 45.8089 118.38 45.2368 118.751 44.0079C118.968 43.2914 118.819 42.4805 117.648 41.8209C116.476 41.1613 115.161 41.7251 114.767 43.0859Z" fill="black"/>
<path d="M20.4867 64.6199C20.4867 64.6199 27.2964 68.5079 32.1839 67.036" stroke="#FF4D52" stroke-miterlimit="10"/>
<path d="M20.7273 66.7195C20.7273 66.7195 25.1273 70.4603 34.0204 69.591" stroke="#FF4D52" stroke-miterlimit="10"/>
<path d="M20.9302 68.4814C20.9302 68.4814 25.2949 72.6569 34.2636 71.3336" stroke="#FF4D52" stroke-miterlimit="10"/>
<path opacity="0.05" d="M114.836 40.5684C114.836 40.5684 111.286 43.9467 108.047 45.4742C108.047 45.4742 112.967 46.4392 114.836 40.5684Z" fill="black"/>
<path opacity="0.1" d="M77.2303 50.512C77.2303 50.512 94.0745 52.2657 100.448 50.6258C100.448 50.6258 100.788 50.8744 98.7591 49.8718L77.2303 50.512Z" fill="black"/>
<path opacity="0.05" d="M141.186 48.8581C140.136 48.0986 138.472 46.5226 138.699 44.7688C138.812 43.8898 138.248 43.0678 137.473 42.3777C138.887 42.7776 140.179 43.508 139.815 44.8271C139.072 47.5209 141.09 47.8723 141.09 47.8723C141.09 47.8723 141.131 48.2333 141.186 48.8581Z" fill="black"/>
<path d="M56.5254 61.0832C56.5355 60.6194 56.5254 60.1376 56.494 59.6946C56.494 59.6099 56.4814 59.528 56.4738 59.4475C56.7106 59.6446 56.8517 59.7946 56.8517 59.7946L56.6439 47.7362L55.4976 41.4196C55.4976 36.9401 53.3096 35.6779 53.3096 35.6779C53.3096 35.6779 52.1633 35.103 51.8509 34.3004C51.5385 33.4978 48.7698 31.801 48.7685 31.801C48.7466 31.5087 48.7382 31.2153 48.7433 30.922C48.7433 30.8457 48.7433 30.7665 48.7496 30.6874C49.4437 30.18 49.9472 29.4122 50.1666 28.5266C50.386 27.641 50.3064 26.6976 49.9425 25.8718C50.0962 25.8718 50.2209 25.801 50.2788 25.5497C50.4627 24.754 50.2851 23.5557 49.8669 22.9197C49.7775 22.7867 49.6767 22.6635 49.5659 22.5517C49.4361 22.4082 49.2994 22.2724 49.1565 22.1449C48.7987 21.8172 48.4007 21.4728 47.9573 21.5006C47.7057 21.5369 47.464 21.6315 47.2481 21.7783C46.1404 22.4208 45.0357 23.0688 43.9339 23.7223C43.5271 23.9653 43.1076 24.2208 42.8229 24.6568C42.5382 25.0928 42.4236 25.651 42.3443 26.1995C42.2775 26.5711 42.2618 26.9517 42.2976 27.3284C42.331 27.6713 42.4733 27.99 42.6995 28.2282C42.7451 28.289 42.7971 28.3435 42.8544 28.3907C43.0786 28.5712 43.3671 28.6156 43.6014 28.7614C43.7785 29.3284 44.0751 29.8409 44.4668 30.2569C44.4668 30.3277 44.458 30.3958 44.4529 30.4735C44.4391 30.6721 44.4176 30.8901 44.3899 31.1109C44.3899 31.1109 43.6203 31.0887 42.474 32.8105C41.3277 34.5323 38.8273 34.7628 38.8273 34.7628C38.8273 34.7628 37.8901 34.3032 36.8484 39.4715C35.8066 44.6397 35.4943 48.0806 36.0145 48.6583C36.2354 48.8684 36.4844 49.0399 36.7526 49.1665C37.6357 49.6578 38.5859 49.9862 39.5655 50.1385C39.5779 50.1799 39.5991 50.2175 39.6272 50.2482L39.7015 51.2493C39.7645 53.3627 39.8375 57.602 39.4496 58.5421C38.9281 59.8057 39.5541 60.6097 39.5541 60.6097L39.6801 60.6C39.7034 60.6436 39.7295 60.6854 39.7582 60.7249L40.262 60.6874C40.2255 63.048 40.1273 66.3223 39.8678 67.0415C39.4508 68.1899 39.8678 74.5065 39.8678 74.5065L39.1384 85.8761C39.1384 85.8761 38.7391 91.8109 39.1132 92.4982C38.9092 93.7326 38.5426 96.0849 38.6182 96.6709C38.7227 97.4748 41.1186 98.6232 41.1186 98.6232C41.1186 98.6232 43.9314 99.3175 45.2855 99.0828C45.9935 98.962 46.2744 98.4343 46.2769 97.9719C47.1952 98.1344 48.3906 98.2899 49.1401 98.1622C50.4942 97.9331 50.2864 96.2098 49.557 96.3251C48.8277 96.4404 47.9938 94.8241 47.3741 94.0201C47.0591 93.6146 46.7971 92.8898 46.6183 92.2691C46.75 92.2472 46.871 92.1761 46.9609 92.0677C47.2733 91.4929 47.7948 86.2108 47.7948 86.2108L49.1489 77.024C49.1489 77.024 49.8783 72.5444 50.503 71.5114C50.9754 70.731 51.5662 64.9073 51.8269 62.1024H51.8496H51.8572L51.8849 62.0038L52.2766 60.6097C52.4857 61.0165 53.0123 61.2179 53.6257 61.304C53.5602 61.5983 53.5061 61.8386 53.4746 61.976C53.3184 62.6703 55.5958 63.8131 56.145 63.2396C56.3755 62.9994 56.4952 62.1288 56.5229 61.1762H56.5418L56.5254 61.0832ZM42.838 92.401C42.8028 92.6246 42.7675 92.8578 42.7322 93.0953C42.6529 92.8176 42.5899 92.5676 42.5471 92.3829C42.6504 92.3871 42.7473 92.3927 42.838 92.401Z" fill="url(#paint2_linear_58_176)"/>
<path d="M46.331 90.0071C46.331 90.0071 46.7328 91.9983 47.3387 92.7717C47.9446 93.5452 48.7432 95.0934 49.4449 94.9837C50.1465 94.874 50.348 96.532 49.043 96.7528C47.738 96.9735 45.0298 96.3098 45.0298 96.3098C45.0298 96.3098 42.7221 95.199 42.6226 94.4297C42.5231 93.6604 43.2247 89.6738 43.2247 89.6738L46.331 90.0071Z" fill="#53526B"/>
<path opacity="0.05" d="M46.331 90.0071C46.331 90.0071 46.7328 91.9983 47.3387 92.7717C47.9446 93.5452 48.7432 95.0934 49.4449 94.9837C50.1465 94.874 50.348 96.532 49.043 96.7528C47.738 96.9735 45.0298 96.3098 45.0298 96.3098C45.0298 96.3098 42.7221 95.199 42.6226 94.4297C42.5231 93.6604 43.2247 89.6738 43.2247 89.6738L46.331 90.0071Z" fill="black"/>
<path d="M42.6188 90.8917C42.6188 90.8917 43.0207 92.8829 43.6266 93.6563C44.2325 94.4298 45.0311 95.978 45.7327 95.8683C46.4343 95.7586 46.6359 97.4166 45.3309 97.6374C44.0259 97.8581 41.3176 97.1958 41.3176 97.1958C41.3176 97.1958 39.0099 96.0849 38.9104 95.3157C38.8109 94.5464 39.5125 90.5598 39.5125 90.5598L42.6188 90.8917Z" fill="#53526B"/>
<path d="M51.7488 60.5903C51.7488 60.5903 50.9464 70.1007 50.3443 71.0963C49.7422 72.0919 49.0406 76.4048 49.0406 76.4048L47.7368 85.2513C47.7368 85.2513 47.233 90.3391 46.9344 90.8917C46.6359 91.4444 42.9124 91.2069 42.9124 91.2069L45.2226 61.9178L51.7488 60.5903Z" fill="#5F5D7E"/>
<path opacity="0.05" d="M51.7488 60.5903C51.7488 60.5903 50.9464 70.1007 50.3443 71.0963C49.7422 72.0919 49.0406 76.4048 49.0406 76.4048L47.7368 85.2513C47.7368 85.2513 47.233 90.3391 46.9344 90.8917C46.6359 91.4444 42.9124 91.2069 42.9124 91.2069L45.2226 61.9178L51.7488 60.5903Z" fill="black"/>
<path d="M53.3536 56.0566L53.0916 56.9745L51.6745 61.9331L51.6468 62.0275H51.6392C51.449 62.0747 47.4332 63.0925 46.5666 63.405C46.5198 63.4209 46.474 63.4399 46.4293 63.4619C46.0274 63.6827 45.5261 71.6447 45.5261 71.6447C45.5261 71.6447 45.225 79.1652 45.0222 79.7179C44.8194 80.2705 44.0145 91.6596 43.5169 91.3291C43.0194 90.9986 39.4042 91.3291 39.4042 91.3291C39.0023 90.8862 39.4042 84.9153 39.4042 84.9153L40.1058 73.9664C40.1058 73.9664 39.704 67.8845 40.1058 66.7778C40.5076 65.6711 40.5076 58.2631 40.5076 58.2631L48.7244 56.8606L49.5179 56.7218L53.3536 56.0566Z" fill="#5F5D7E"/>
<path opacity="0.02" d="M53.0916 56.9743L51.6745 61.9329L51.6405 62.0301C51.4503 62.0773 47.4345 63.0952 46.5679 63.4076H46.481L48.7244 56.8605L48.7886 56.6716L49.518 56.723L53.0916 56.9743Z" fill="black"/>
<path opacity="0.1" d="M43.7224 33.9395C43.7224 33.9395 47.4346 38.3634 49.7422 34.7129L51.9492 36.3722L51.5473 38.9161L52.8511 58.1589C52.8511 58.1589 49.4399 58.0478 47.0327 58.9323C46.3623 59.1945 45.6379 59.2401 44.9447 59.0637C44.2516 58.8873 43.6186 58.4963 43.1202 57.9367L43.5221 41.017L42.6189 35.8196L43.7224 33.9395Z" fill="black"/>
<path d="M43.7223 33.6077C43.7223 33.6077 47.4345 38.0316 49.7422 34.3811L51.9491 36.0404L51.5473 38.5843L52.8523 57.8327C52.8523 57.8327 49.4412 57.7216 47.0339 58.6061C46.3635 58.8683 45.6391 58.9138 44.946 58.7374C44.2528 58.5611 43.6198 58.1701 43.1215 57.6105L43.5233 40.6908L42.6201 35.4933L43.7223 33.6077Z" fill="#53526B"/>
<path d="M51.1316 53.3088V54.0045H51.3344V53.5407H52.0713V54.0045H52.2741V53.3102L51.1316 53.3088Z" fill="#E82127"/>
<path d="M51.313 53.0838H52.0915C52.1425 53.0703 52.1892 53.0417 52.2265 53.0011C52.2638 52.9604 52.2903 52.9093 52.3031 52.8533H51.1027C51.1156 52.9093 51.1422 52.9603 51.1794 53.0009C51.2167 53.0415 51.2633 53.0702 51.3143 53.0838" fill="#E82127"/>
<path d="M50.5194 54.0044C50.5635 53.9855 50.6028 53.955 50.6337 53.9156C50.6647 53.8761 50.6864 53.8289 50.697 53.7781H49.7888V52.8533H49.5847V54.0044H50.5181" fill="#E82127"/>
<path d="M48.0731 53.0796H48.7924C48.8436 53.0654 48.8907 53.0372 48.9295 52.9977C48.9682 52.9581 48.9973 52.9085 49.0141 52.8533H47.8678V53.5281H48.8025V53.7669H48.0693C48.0134 53.7833 47.9612 53.8125 47.9163 53.8528C47.8713 53.893 47.8346 53.9432 47.8086 54.0002H49.0015V53.3059H48.0681V53.0782" fill="#E82127"/>
<path d="M46.2983 53.0823H47.0767C47.1277 53.0688 47.1744 53.0403 47.2117 52.9996C47.249 52.959 47.2755 52.9079 47.2883 52.8518H46.0879C46.1008 52.9078 46.1274 52.9588 46.1647 52.9995C46.202 53.0401 46.2486 53.0687 46.2995 53.0823" fill="#E82127"/>
<path d="M46.2983 53.5364H47.0767C47.1278 53.5231 47.1745 53.4945 47.2119 53.4539C47.2492 53.4132 47.2757 53.362 47.2883 53.3059H46.0879C46.1008 53.3619 46.1274 53.4129 46.1647 53.4536C46.202 53.4942 46.2486 53.5228 46.2995 53.5364" fill="#E82127"/>
<path d="M46.2983 54.0044H47.0767C47.1277 53.991 47.1744 53.9624 47.2117 53.9217C47.249 53.8811 47.2755 53.83 47.2883 53.7739H46.0879C46.1008 53.8299 46.1274 53.881 46.1647 53.9216C46.202 53.9622 46.2486 53.9908 46.2995 54.0044" fill="#E82127"/>
<path d="M44.274 52.8547C44.2873 52.9102 44.3139 52.9607 44.3509 53.0009C44.3879 53.0412 44.434 53.0699 44.4844 53.0838H44.8119L44.8283 53.0908V54.0017H45.0324V53.0908L45.0513 53.0838H45.3788C45.429 53.0695 45.475 53.0407 45.5119 53.0005C45.5488 52.9602 45.5755 52.91 45.5891 52.8547H44.274Z" fill="#E82127"/>
<path d="M48.2886 50.5775L49.3102 44.2414C50.2839 44.2414 50.5913 44.3595 50.6366 44.8399C50.6366 44.8399 51.2904 44.5719 51.6192 44.0262C50.8055 43.6236 49.9313 43.3905 49.0407 43.3389L48.2849 44.3511L47.5291 43.3389C46.6384 43.3905 45.7642 43.6235 44.9506 44.0262C45.2793 44.5719 45.9331 44.8399 45.9331 44.8399C45.9772 44.3595 46.2845 44.2414 47.2519 44.24L48.2824 50.5775" fill="#E82127"/>
<path d="M48.2886 43.0458C49.4737 43.0296 50.6485 43.2894 51.7363 43.8081C51.8165 43.6592 51.8852 43.5031 51.9416 43.3415C49.5988 42.2953 46.9785 42.2953 44.6356 43.3415C44.6958 43.502 44.7657 43.6579 44.8447 43.8081C45.9325 43.2894 47.1073 43.0296 48.2924 43.0458" fill="#E82127"/>
<path d="M51.4478 56.498C51.4478 56.498 51.4478 59.3738 52.0499 60.5902C52.652 61.8065 56.1626 61.1456 56.1626 61.1456L55.461 57.0535L51.4478 56.498Z" fill="#D39999"/>
<path d="M55.781 63.1342C55.252 63.6896 53.0589 62.5788 53.2101 61.9178C53.3159 61.4499 53.6862 59.7752 53.8966 58.8255L54.0427 58.1576C54.0427 58.1576 55.3276 57.7146 55.781 58.1576C55.9461 58.3186 56.0619 58.9532 56.1161 59.7197C56.2093 61.0513 56.1174 62.7829 55.781 63.1342Z" fill="#FDC2CC"/>
<path d="M50.9452 35.5975L47.4346 38.5829C47.4346 38.5829 42.2183 38.251 43.5221 35.4864C44.0898 34.2705 44.4323 32.9422 44.5298 31.579C44.5722 31.076 44.5722 30.5698 44.5298 30.0668C44.5298 30.0668 49.3455 25.2068 48.7433 30.7306C48.6959 31.1545 48.6681 31.5809 48.6602 32.008C48.5934 36.1543 50.9452 35.5975 50.9452 35.5975Z" fill="#FDC2CC"/>
<path opacity="0.1" d="M48.7383 30.7319C48.6908 31.1559 48.6631 31.5823 48.6551 32.0094C48.1148 32.404 47.4806 32.6136 46.8324 32.612C45.9343 32.612 45.273 31.6484 44.6759 31.0082C44.7427 30.0904 44.526 30.0682 44.526 30.0682C44.526 30.0682 49.3404 25.2012 48.7383 30.7319Z" fill="black"/>
<path d="M46.8325 32.3899C48.6607 32.3899 50.1428 30.7561 50.1428 28.7407C50.1428 26.7253 48.6607 25.0916 46.8325 25.0916C45.0042 25.0916 43.5221 26.7253 43.5221 28.7407C43.5221 30.7561 45.0042 32.3899 46.8325 32.3899Z" fill="#FDC2CC"/>
<path opacity="0.1" d="M44.4756 32.2246C44.4756 32.2246 43.9239 32.2802 42.8204 33.9381C41.7169 35.5961 39.3022 35.8182 39.3022 35.8182C39.3022 35.8182 38.399 35.3753 37.3963 40.3519C36.3936 45.3285 36.0926 48.6458 36.5939 49.1985C37.0953 49.7512 39.1019 50.526 40.1046 50.526C40.1046 50.526 40.4056 57.4924 39.9043 58.7088C39.403 59.9252 40.0051 60.7 40.0051 60.7L44.4139 60.3682C44.4139 60.3682 45.9192 58.2673 46.2202 54.6181C46.5213 50.9689 47.524 40.5727 47.0226 39.3563C46.5213 38.1399 44.3144 35.0434 44.4139 34.7115C44.5134 34.3797 44.4756 32.2246 44.4756 32.2246Z" fill="black"/>
<path d="M44.4668 32.1912C44.4668 32.1912 43.7248 32.169 42.6214 33.8283C41.5179 35.4876 39.1107 35.7084 39.1107 35.7084C39.1107 35.7084 38.2075 35.2655 37.2049 40.2421C36.2022 45.2187 35.9011 48.536 36.405 49.0845C36.9088 49.633 38.913 50.412 39.9156 50.412C39.9156 50.412 40.2167 57.3785 39.7154 58.5948C39.214 59.8112 39.8161 60.5861 39.8161 60.5861L44.2249 60.2542C44.2249 60.2542 45.7302 58.1533 46.0313 54.5041C46.3323 50.855 47.335 40.4587 46.8337 39.2423C46.3323 38.026 44.1254 34.9294 44.2249 34.5976C44.3244 34.2657 44.4668 32.1912 44.4668 32.1912Z" fill="#D39999"/>
<path d="M41.8215 46.4352C41.8215 46.4352 46.8413 40.0894 46.1359 44.444C45.632 47.5405 43.7287 49.1999 42.8255 49.5317C41.9223 49.8636 41.8215 46.4352 41.8215 46.4352Z" fill="#FDC2CC"/>
<path opacity="0.1" d="M56.1161 59.7197C55.6362 59.3156 54.7305 58.6866 53.8966 58.8255L54.0427 58.1576C54.0427 58.1576 55.3276 57.7146 55.7811 58.1576C55.9473 58.3186 56.062 58.9532 56.1161 59.7197Z" fill="black"/>
<path opacity="0.1" d="M48.6879 32.8882C48.6879 32.8882 51.2462 34.7128 51.5473 35.4876C51.8483 36.2624 52.9518 36.8151 52.9518 36.8151C52.9518 36.8151 55.0579 38.0314 55.0579 42.3443L56.1614 48.4263L51.1429 56.1662C51.1429 56.1662 50.5408 48.4249 50.2398 46.5448C49.9387 44.6647 49.5381 41.1294 49.5381 41.1294C49.5381 41.1294 48.0328 39.0284 48.2344 38.4758C48.4359 37.9231 48.6879 32.8882 48.6879 32.8882Z" fill="black"/>
<path d="M48.679 32.855C48.679 32.855 51.347 34.4921 51.6468 35.2655C51.9466 36.039 53.0526 36.5875 53.0526 36.5875C53.0526 36.5875 55.1587 37.8038 55.1587 42.1167L56.2622 48.1987L56.4624 59.8099C56.4624 59.8099 54.6561 57.9298 53.3524 58.8143C52.0486 59.6988 51.2462 55.9386 51.2462 55.9386C51.2462 55.9386 50.6441 48.1973 50.343 46.3172C50.042 44.437 49.6414 40.9017 49.6414 40.9017C49.6414 40.9017 48.1361 38.8092 48.3377 38.2537C48.5392 37.6983 48.679 32.855 48.679 32.855Z" fill="#D39999"/>
<path opacity="0.1" d="M49.7385 24.3028C49.5686 24.0646 49.3723 23.851 49.154 23.6668C48.8089 23.3502 48.4272 23.0198 47.9989 23.0475C47.7566 23.0831 47.5239 23.1749 47.3162 23.3169C46.2497 23.9362 45.1861 24.562 44.1255 25.1943C43.7337 25.4275 43.3294 25.6747 43.056 26.0941C42.7827 26.5134 42.6718 27.0522 42.595 27.5798C42.5307 27.9372 42.5154 28.3033 42.5496 28.6657C42.5809 29.021 42.7374 29.3486 42.9855 29.578C43.2714 29.8071 43.6632 29.8085 43.9025 30.1084C44.0411 30.282 44.1015 30.525 44.1998 30.736C44.298 30.9471 44.4681 31.1526 44.6621 31.1151C44.8561 31.0776 44.9732 30.8513 45.0009 30.6222C45.0133 30.39 45.001 30.157 44.9644 29.9279C44.9266 29.5113 44.9745 29.0698 45.1937 28.7601C45.3448 28.5491 45.5615 28.4213 45.7076 28.2047C46.0578 27.6826 45.8978 26.8161 46.282 26.326C46.3936 26.1978 46.5339 26.1046 46.6888 26.0558C46.8438 26.007 47.0076 26.0044 47.1638 26.0482C47.4749 26.1204 47.7596 26.3065 48.0455 26.4648C48.4318 26.6796 48.8364 26.8517 49.2535 26.9786C49.6037 27.0841 50.0093 27.3368 50.129 26.8231C50.3116 26.0691 50.1353 24.9152 49.7385 24.3028Z" fill="black"/>
<path d="M49.6377 24.1917C49.4678 23.9535 49.2714 23.7399 49.0532 23.5558C48.708 23.2392 48.3264 22.9087 47.8981 22.9365C47.6558 22.972 47.4231 23.0638 47.2153 23.2058C46.1497 23.8251 45.2641 23.2392 44.0246 25.0832C43.7601 25.4775 43.2285 25.5636 42.9552 25.983C42.6818 26.4023 42.571 26.9411 42.4942 27.4687C42.4298 27.8262 42.4146 28.1922 42.4488 28.5546C42.48 28.9099 42.6365 29.2375 42.8846 29.4669C43.1706 29.696 43.5623 29.6974 43.8017 29.9973C43.9402 30.1709 44.0007 30.4139 44.099 30.625C44.1972 30.836 44.3673 31.0415 44.5612 31.004C44.7552 30.9666 44.8724 30.7402 44.9001 30.5111C44.9124 30.2789 44.9002 30.0459 44.8636 29.8168C44.8258 29.4002 44.8736 28.9587 45.0928 28.649C45.244 28.438 45.4606 28.3102 45.6068 28.0936C45.9569 27.5715 45.797 26.705 46.1812 26.2149C46.2927 26.0867 46.4331 25.9935 46.588 25.9447C46.7429 25.896 46.9068 25.8933 47.0629 25.9372C47.3741 26.0094 47.6587 26.1954 47.9447 26.3537C48.331 26.5685 48.7356 26.7406 49.1527 26.8675C49.5029 26.973 49.9085 27.2257 50.0281 26.712C50.2121 25.958 50.0407 24.8041 49.6377 24.1917Z" fill="#865A61"/>
<path d="M40.6123 40.574C40.6123 40.574 40.5115 44.6661 40.0102 45.2187C39.5088 45.7714 40.3112 46.4351 40.3112 46.4351L42.3178 45.8797C42.3178 45.8797 41.814 49.5289 43.9226 49.0873C43.9226 49.0873 42.5181 50.5245 41.1136 50.7466C39.7091 50.9688 39.8061 50.4162 39.8061 50.4162L37.7 47.6515L40.6123 40.574Z" fill="#D39999"/>
<path opacity="0.1" d="M40.5959 41.071C40.5959 41.071 39.2581 44.8313 40.2621 46.3795L42.469 45.8241C42.469 45.8241 40.4624 46.4879 40.7634 45.1604C41.0645 43.8329 40.5959 41.071 40.5959 41.071Z" fill="black"/>
<path opacity="0.1" d="M39.8602 50.3607C39.8602 50.3607 42.77 50.5815 43.5724 49.9177C42.5164 50.8093 41.2686 51.3835 39.9509 51.584L39.8602 50.3607Z" fill="black"/>
<path opacity="0.1" d="M52.4026 43.2832C52.4026 43.2832 53.9079 48.3709 53.8071 49.1444C53.7063 49.9178 53.506 58.4339 53.506 58.4339L53.205 58.3228L53.3058 49.0333L52.4026 43.2832Z" fill="black"/>
<path d="M115.778 57.6702C115.778 57.6702 117.983 62.4399 116.186 65.049C114.39 67.6582 116.35 74.769 116.35 74.769" stroke="#6C63FF" stroke-miterlimit="10"/>
<path d="M116.431 56.1858C116.431 57.105 115.819 57.8521 115.819 57.8521C115.819 57.8521 115.207 57.1064 115.207 56.1858C115.207 55.2652 115.819 54.5195 115.819 54.5195C115.819 54.5195 116.431 55.2666 116.431 56.1858Z" fill="#5D8BFF"/>
<path d="M116.921 57.6702C116.921 57.6702 114.716 62.4399 116.513 65.049C118.309 67.6582 116.349 74.769 116.349 74.769" stroke="#6C63FF" stroke-miterlimit="10"/>
<path d="M116.267 56.1858C116.267 57.105 116.879 57.8521 116.879 57.8521C116.879 57.8521 117.491 57.1064 117.491 56.1858C117.491 55.2652 116.879 54.5195 116.879 54.5195C116.879 54.5195 116.267 55.2666 116.267 56.1858Z" fill="#5D8BFF"/>
<path opacity="0.1" d="M116.267 56.1858C116.267 57.105 116.879 57.8521 116.879 57.8521C116.879 57.8521 117.491 57.1064 117.491 56.1858C117.491 55.2652 116.879 54.5195 116.879 54.5195C116.879 54.5195 116.267 55.2666 116.267 56.1858Z" fill="black"/>
<path d="M117.819 57.6702C117.819 57.6702 120.023 62.4399 118.227 65.049C116.431 67.6582 118.391 74.769 118.391 74.769" stroke="#6C63FF" stroke-miterlimit="10"/>
<path d="M118.471 56.1858C118.471 57.105 117.859 57.8521 117.859 57.8521C117.859 57.8521 117.247 57.1064 117.247 56.1858C117.247 55.2652 117.859 54.5195 117.859 54.5195C117.859 54.5195 118.471 55.2666 118.471 56.1858Z" fill="#5D8BFF"/>
<path d="M118.129 60.0071C117.551 60.6695 116.64 60.7389 116.64 60.7389C116.64 60.7389 116.668 59.7336 117.246 59.0726C117.824 58.4116 118.735 58.3408 118.735 58.3408C118.735 58.3408 118.707 59.3448 118.129 60.0071Z" fill="#5D8BFF"/>
<path d="M118.186 63.298C117.607 63.9604 116.697 64.0298 116.697 64.0298C116.697 64.0298 116.724 63.0245 117.303 62.3635C117.881 61.7026 118.786 61.6304 118.786 61.6304C118.786 61.6304 118.764 62.6343 118.186 63.298Z" fill="#5D8BFF"/>
<path d="M115.05 65.1073C115.597 65.8016 115.578 66.8069 115.578 66.8069C115.578 66.8069 114.672 66.6861 114.126 65.9918C113.579 65.2976 113.598 64.2922 113.598 64.2922C113.598 64.2922 114.504 64.413 115.05 65.1073Z" fill="#5D8BFF"/>
<path d="M115.558 58.0909C116.253 58.5991 116.479 59.5739 116.479 59.5739C116.479 59.5739 115.576 59.7239 114.882 59.2212C114.187 58.7186 113.961 57.7382 113.961 57.7382C113.961 57.7382 114.863 57.5827 115.558 58.0909Z" fill="#5D8BFF"/>
<path opacity="0.1" d="M115.558 58.0909C116.253 58.5991 116.479 59.5739 116.479 59.5739C116.479 59.5739 115.576 59.7239 114.882 59.2212C114.187 58.7186 113.961 57.7382 113.961 57.7382C113.961 57.7382 114.863 57.5827 115.558 58.0909Z" fill="black"/>
<path d="M118.961 57.6702C118.961 57.6702 116.757 62.4399 118.553 65.049C120.35 67.6582 118.39 74.769 118.39 74.769" stroke="#6C63FF" stroke-miterlimit="10"/>
<path d="M118.309 56.1858C118.309 57.105 118.921 57.8521 118.921 57.8521C118.921 57.8521 119.533 57.1064 119.533 56.1858C119.533 55.2652 118.921 54.5195 118.921 54.5195C118.921 54.5195 118.309 55.2666 118.309 56.1858Z" fill="#5D8BFF"/>
<path opacity="0.1" d="M118.309 56.1858C118.309 57.105 118.921 57.8521 118.921 57.8521C118.921 57.8521 119.533 57.1064 119.533 56.1858C119.533 55.2652 118.921 54.5195 118.921 54.5195C118.921 54.5195 118.309 55.2666 118.309 56.1858Z" fill="black"/>
<path d="M118.485 60.0778C117.9 60.7332 117.855 61.7441 117.855 61.7441C117.855 61.7441 118.766 61.6872 119.352 61.0318C119.938 60.3764 119.982 59.3655 119.982 59.3655C119.982 59.3655 119.07 59.4224 118.485 60.0778Z" fill="#5D8BFF"/>
<path opacity="0.1" d="M118.485 60.0778C117.9 60.7332 117.855 61.7441 117.855 61.7441C117.855 61.7441 118.766 61.6872 119.352 61.0318C119.938 60.3764 119.982 59.3655 119.982 59.3655C119.982 59.3655 119.07 59.4224 118.485 60.0778Z" fill="black"/>
<path d="M119.633 64.6367C119.047 65.2921 119.003 66.3029 119.003 66.3029C119.003 66.3029 119.914 66.246 120.5 65.5906C121.085 64.9352 121.129 63.9243 121.129 63.9243C121.129 63.9243 120.219 63.9785 119.633 64.6367Z" fill="#5D8BFF"/>
<path d="M117.944 63.6325C117.944 63.6325 119.27 61.3275 121.133 61.272" stroke="#6C63FF" stroke-miterlimit="10"/>
<path d="M116.911 62.24C116.911 62.24 115.584 59.9349 113.721 59.8794" stroke="#6C63FF" stroke-miterlimit="10"/>
<path d="M116.738 65.5307C116.738 65.5307 118.065 63.2257 119.928 63.1702" stroke="#6C63FF" stroke-miterlimit="10"/>
<path d="M121.071 61.6385C121.261 61.6385 121.415 61.4688 121.415 61.2595C121.415 61.0501 121.261 60.8804 121.071 60.8804C120.881 60.8804 120.728 61.0501 120.728 61.2595C120.728 61.4688 120.881 61.6385 121.071 61.6385Z" fill="#5D8BFF"/>
<path d="M113.753 60.2779C113.943 60.2779 114.097 60.1082 114.097 59.8989C114.097 59.6895 113.943 59.5198 113.753 59.5198C113.563 59.5198 113.409 59.6895 113.409 59.8989C113.409 60.1082 113.563 60.2779 113.753 60.2779Z" fill="#5D8BFF"/>
<path d="M117.714 66.2903C117.714 66.2903 116.388 63.9852 114.525 63.9297" stroke="#6C63FF" stroke-miterlimit="10"/>
<path d="M114.557 64.3282C114.746 64.3282 114.9 64.1585 114.9 63.9491C114.9 63.7398 114.746 63.5701 114.557 63.5701C114.367 63.5701 114.213 63.7398 114.213 63.9491C114.213 64.1585 114.367 64.3282 114.557 64.3282Z" fill="#5D8BFF"/>
<path d="M119.953 63.5687C120.143 63.5687 120.297 63.399 120.297 63.1896C120.297 62.9803 120.143 62.8105 119.953 62.8105C119.763 62.8105 119.609 62.9803 119.609 63.1896C119.609 63.399 119.763 63.5687 119.953 63.5687Z" fill="#5D8BFF"/>
<path d="M125.048 71.9959C125.048 71.9959 121.851 71.2905 120.998 70.3505C120.146 69.4104 116.309 67.7705 115.883 68.9411C115.457 70.1116 110.128 74.1149 113.748 74.8189C117.368 75.5229 122.274 75.7589 123.34 75.2882C124.406 74.8175 125.048 71.9959 125.048 71.9959Z" fill="#A8A8A8"/>
<path opacity="0.2" d="M113.748 74.3829C117.372 75.0883 122.274 75.3229 123.34 74.8522C124.151 74.494 124.716 72.7694 124.939 71.9751L125.046 72.0001C125.046 72.0001 124.406 74.8203 123.34 75.2896C122.274 75.759 117.372 75.5243 113.748 74.8203C112.702 74.6162 112.402 74.1385 112.516 73.5345C112.608 73.9274 112.972 74.2315 113.748 74.3829Z" fill="black"/>
<path d="M31.2744 83.7517C31.2744 83.7517 32.33 85.2791 30.7869 87.5703C29.2438 89.8614 27.9716 91.8068 28.4867 93.2412C28.4867 93.2412 30.8146 88.9741 32.7091 88.9144C34.6036 88.8547 33.3578 86.3178 31.2744 83.7517Z" fill="#5D8BFF"/>
<path opacity="0.1" d="M31.2744 83.7517C31.3663 83.8989 31.4389 84.0597 31.4898 84.2294C33.3389 86.6233 34.3227 88.8575 32.5466 88.9144C30.8914 88.9672 28.9062 92.2289 28.4301 93.0537C28.4458 93.1173 28.4647 93.1799 28.4867 93.2412C28.4867 93.2412 30.8146 88.9741 32.7091 88.9144C34.6036 88.8547 33.3578 86.3178 31.2744 83.7517Z" fill="black"/>
<path d="M33.2369 85.69C33.2369 86.226 33.1828 86.662 33.111 86.662C33.0392 86.662 32.985 86.2274 32.985 85.69C32.985 85.1527 33.053 85.4123 33.1198 85.4123C33.1865 85.4123 33.2369 85.1554 33.2369 85.69Z" fill="#FFD037"/>
<path d="M33.9097 86.3303C33.4826 86.5872 33.111 86.7469 33.0795 86.676C33.048 86.6052 33.3667 86.3497 33.7938 86.0942C34.2208 85.8387 34.052 86.0248 34.0847 86.0942C34.1175 86.1637 34.3367 86.0734 33.9097 86.3303Z" fill="#FFD037"/>
<path d="M25.6979 83.7517C25.6979 83.7517 24.6423 85.2791 26.1854 87.5703C27.7285 89.8614 29.0007 91.8068 28.4855 93.2398C28.4855 93.2398 26.1577 88.9727 24.2632 88.913C22.3686 88.8533 23.6144 86.3178 25.6979 83.7517Z" fill="#5D8BFF"/>
<path opacity="0.1" d="M25.6979 83.7517C25.6059 83.8989 25.5334 84.0597 25.4825 84.2294C23.6333 86.6233 22.6495 88.8575 24.4257 88.9144C26.0808 88.9672 28.0661 92.2289 28.5422 93.0537C28.5265 93.1173 28.5076 93.1799 28.4855 93.2412C28.4855 93.2412 26.1577 88.9741 24.2632 88.9144C22.3686 88.8547 23.6144 86.3178 25.6979 83.7517Z" fill="black"/>
<path d="M23.7354 85.69C23.7354 86.226 23.7895 86.662 23.8613 86.662C23.9331 86.662 23.9873 86.2274 23.9873 85.69C23.9873 85.1527 23.9193 85.4123 23.8525 85.4123C23.7857 85.4123 23.7354 85.1554 23.7354 85.69Z" fill="#FFD037"/>
<path d="M23.0627 86.3303C23.4897 86.5872 23.8613 86.7469 23.8928 86.676C23.9243 86.6052 23.6056 86.3497 23.1786 86.0942C22.7516 85.8387 22.9204 86.0248 22.8876 86.0942C22.8549 86.1637 22.6357 86.0734 23.0627 86.3303Z" fill="#FFD037"/>
<path d="M24.0717 93.0398C24.0717 93.0398 27.023 92.9398 27.9123 92.2413C28.8017 91.5429 32.4471 90.7139 32.6726 91.8248C32.8981 92.9356 37.1078 97.3943 33.776 97.4235C30.4443 97.4527 26.0342 96.8514 25.1461 96.2557C24.2581 95.66 24.0717 93.0398 24.0717 93.0398Z" fill="#A8A8A8"/>
<path opacity="0.2" d="M33.8366 97.039C30.5048 97.0681 26.0947 96.4669 25.2067 95.8712C24.5303 95.4171 24.2607 93.7883 24.1713 93.0371H24.073C24.073 93.0371 24.2594 95.6615 25.1475 96.2572C26.0355 96.8529 30.4456 97.4555 33.7774 97.425C34.7398 97.4167 35.071 97.039 35.0534 96.4808C34.9186 96.8224 34.5521 97.032 33.8366 97.039Z" fill="black"/>
</g>
<defs>
<linearGradient id="paint0_linear_58_176" x1="80.8254" y1="82.8908" x2="80.8254" y2="33.6548" gradientUnits="userSpaceOnUse">
<stop stop-color="#808080" stop-opacity="0.25"/>
<stop offset="0.54" stop-color="#808080" stop-opacity="0.12"/>
<stop offset="1" stop-color="#808080" stop-opacity="0.1"/>
</linearGradient>
<linearGradient id="paint1_linear_58_176" x1="90.4377" y1="70.4059" x2="100.769" y2="35.5991" gradientUnits="userSpaceOnUse">
<stop stop-color="#808080" stop-opacity="0.25"/>
<stop offset="0.54" stop-color="#808080" stop-opacity="0.12"/>
<stop offset="1" stop-color="#808080" stop-opacity="0.1"/>
</linearGradient>
<linearGradient id="paint2_linear_58_176" x1="46.3122" y1="99.1203" x2="46.3122" y2="21.4978" gradientUnits="userSpaceOnUse">
<stop stop-color="#808080" stop-opacity="0.25"/>
<stop offset="0.54" stop-color="#808080" stop-opacity="0.12"/>
<stop offset="1" stop-color="#808080" stop-opacity="0.1"/>
</linearGradient>
<clipPath id="clip0_58_176">
<rect width="146" height="109" fill="white"/>
</clipPath>
</defs>
</svg>
