<svg width="142" height="120" viewBox="0 0 142 120" fill="none" xmlns="http://www.w3.org/2000/svg">
<g clip-path="url(#clip0_17_360)">
<path d="M89.2375 0H45.3593C38.5349 0 33.0027 5.29997 33.0027 11.8378V107.894C33.0027 114.432 38.5349 119.732 45.3593 119.732H89.2375C96.0618 119.732 101.594 114.432 101.594 107.894V11.8378C101.594 5.29997 96.0618 0 89.2375 0Z" fill="#3F3D56"/>
<path d="M100.437 11.8387V107.894C100.434 110.739 99.2525 113.466 97.1529 115.478C95.0533 117.489 92.2066 118.621 89.2373 118.624H45.3598C42.3905 118.621 39.5438 117.489 37.4442 115.478C35.3445 113.466 34.1635 110.739 34.16 107.894V11.8387C34.1635 8.99402 35.3445 6.26684 37.4442 4.25538C39.5438 2.24391 42.3905 1.11242 45.3598 1.10913H51.0975V3.00791C51.0975 3.86753 51.454 4.69192 52.0885 5.29976C52.723 5.90759 53.5835 6.24909 54.4808 6.24914H80.1163C81.0136 6.24909 81.8741 5.90759 82.5086 5.29976C83.143 4.69192 83.4995 3.86753 83.4996 3.00791V1.10913H89.2373C92.2066 1.11242 95.0533 2.24391 97.1529 4.25538C99.2525 6.26684 100.434 8.99402 100.437 11.8387Z" fill="white"/>
<path d="M32.6871 24.2891C32.4639 24.2888 32.25 24.2038 32.0922 24.0526C31.9345 23.9015 31.8457 23.6966 31.8455 23.4828V21.8702C31.8455 21.6564 31.9341 21.4513 32.092 21.3001C32.2498 21.1489 32.4639 21.064 32.6871 21.064C32.9103 21.064 33.1243 21.1489 33.2822 21.3001C33.44 21.4513 33.5287 21.6564 33.5287 21.8702V23.4828C33.5284 23.6966 33.4397 23.9015 33.2819 24.0526C33.1241 24.2038 32.9102 24.2888 32.6871 24.2891Z" fill="#3F3D56"/>
<path d="M32.6871 32.5578C32.4639 32.5575 32.25 32.4725 32.0922 32.3213C31.9345 32.1702 31.8457 31.9652 31.8455 31.7515V27.3126C31.8455 27.0988 31.9341 26.8937 32.092 26.7425C32.2498 26.5913 32.4639 26.5063 32.6871 26.5063C32.9103 26.5063 33.1243 26.5913 33.2822 26.7425C33.44 26.8937 33.5287 27.0988 33.5287 27.3126V31.7515C33.5284 31.9652 33.4397 32.1702 33.2819 32.3213C33.1241 32.4725 32.9102 32.5575 32.6871 32.5578Z" fill="#3F3D56"/>
<path d="M32.6871 39.2052C32.4639 39.205 32.25 39.1199 32.0922 38.9688C31.9345 38.8176 31.8457 38.6127 31.8455 38.3989V33.9601C31.8455 33.7462 31.9341 33.5412 32.092 33.39C32.2498 33.2388 32.4639 33.1538 32.6871 33.1538C32.9103 33.1538 33.1243 33.2388 33.2822 33.39C33.44 33.5412 33.5287 33.7462 33.5287 33.9601V38.3989C33.5284 38.6127 33.4397 38.8176 33.2819 38.9688C33.1241 39.1199 32.9102 39.205 32.6871 39.2052Z" fill="#3F3D56"/>
<path d="M101.699 35.5768C101.476 35.5766 101.262 35.4916 101.104 35.3404C100.947 35.1893 100.858 34.9843 100.858 34.7706V23.9396C100.858 23.7257 100.946 23.5207 101.104 23.3695C101.262 23.2182 101.476 23.1333 101.699 23.1333C101.922 23.1333 102.137 23.2182 102.294 23.3695C102.452 23.5207 102.541 23.7257 102.541 23.9396V34.7706C102.541 34.9843 102.452 35.1893 102.294 35.3404C102.136 35.4916 101.922 35.5766 101.699 35.5768Z" fill="#3F3D56"/>
<path d="M69.1064 3.69803H62.5839C62.4444 3.69803 62.3106 3.64494 62.2119 3.55043C62.1133 3.45593 62.0579 3.32776 62.0579 3.19411C62.0579 3.06046 62.1133 2.93229 62.2119 2.83778C62.3106 2.74328 62.4444 2.69019 62.5839 2.69019H69.1064C69.2459 2.69019 69.3797 2.74328 69.4783 2.83778C69.577 2.93229 69.6324 3.06046 69.6324 3.19411C69.6324 3.32776 69.577 3.45593 69.4783 3.55043C69.3797 3.64494 69.2459 3.69803 69.1064 3.69803Z" fill="white"/>
<path d="M72.4728 3.59705C72.7052 3.59705 72.8936 3.41656 72.8936 3.19391C72.8936 2.97126 72.7052 2.79077 72.4728 2.79077C72.2404 2.79077 72.052 2.97126 72.052 3.19391C72.052 3.41656 72.2404 3.59705 72.4728 3.59705Z" fill="white"/>
<path d="M48.5906 5.86017H42.9097C42.6307 5.86017 42.3631 5.75399 42.1658 5.56498C41.9685 5.37598 41.8577 5.11963 41.8577 4.85233C41.8577 4.58503 41.9685 4.32868 42.1658 4.13967C42.3631 3.95067 42.6307 3.84448 42.9097 3.84448H48.5906C48.8696 3.84448 49.1372 3.95067 49.3345 4.13967C49.5317 4.32868 49.6426 4.58503 49.6426 4.85233C49.6426 5.11963 49.5317 5.37598 49.3345 5.56498C49.1372 5.75399 48.8696 5.86017 48.5906 5.86017Z" fill="#E6E6E6"/>
<path d="M70.139 48.1136H64.4581C64.1791 48.1136 63.9115 48.0074 63.7143 47.8184C63.517 47.6294 63.4061 47.373 63.4061 47.1057C63.4061 46.8384 63.517 46.5821 63.7143 46.3931C63.9115 46.2041 64.1791 46.0979 64.4581 46.0979H70.139C70.418 46.0979 70.6856 46.2041 70.8829 46.3931C71.0802 46.5821 71.191 46.8384 71.191 47.1057C71.191 47.373 71.0802 47.6294 70.8829 47.8184C70.6856 48.0074 70.418 48.1136 70.139 48.1136Z" fill="#E6E6E6"/>
<path d="M85.8319 5.75943C86.3549 5.75943 86.7788 5.35333 86.7788 4.85237C86.7788 4.35142 86.3549 3.94531 85.8319 3.94531C85.309 3.94531 84.8851 4.35142 84.8851 4.85237C84.8851 5.35333 85.309 5.75943 85.8319 5.75943Z" fill="#E6E6E6"/>
<path d="M88.7776 5.75943C89.3005 5.75943 89.7244 5.35333 89.7244 4.85237C89.7244 4.35142 89.3005 3.94531 88.7776 3.94531C88.2547 3.94531 87.8308 4.35142 87.8308 4.85237C87.8308 5.35333 88.2547 5.75943 88.7776 5.75943Z" fill="#E6E6E6"/>
<path d="M91.7233 5.75943C92.2462 5.75943 92.6701 5.35333 92.6701 4.85237C92.6701 4.35142 92.2462 3.94531 91.7233 3.94531C91.2004 3.94531 90.7765 4.35142 90.7765 4.85237C90.7765 5.35333 91.2004 5.75943 91.7233 5.75943Z" fill="#E6E6E6"/>
<path d="M85.4568 62.2235H46.1677C45.1561 62.2224 44.1863 61.837 43.4711 61.1517C42.7558 60.4665 42.3534 59.5374 42.3523 58.5683V54.7924C42.3534 53.8233 42.7558 52.8943 43.4711 52.209C44.1863 51.5238 45.1561 51.1383 46.1677 51.1372H85.4568C86.4683 51.1383 87.4381 51.5238 88.1534 52.209C88.8687 52.8943 89.271 53.8233 89.2722 54.7924V58.5683C89.271 59.5374 88.8687 60.4665 88.1534 61.1517C87.4381 61.837 86.4683 62.2224 85.4568 62.2235ZM46.1677 51.5403C45.2677 51.5413 44.4049 51.8843 43.7685 52.4939C43.1321 53.1036 42.7741 53.9302 42.7731 54.7924V58.5683C42.7741 59.4305 43.1321 60.2571 43.7685 60.8668C44.4049 61.4764 45.2677 61.8194 46.1677 61.8204H85.4568C86.3568 61.8194 87.2196 61.4765 87.856 60.8668C88.4924 60.2571 88.8504 59.4305 88.8514 58.5683V54.7924C88.8504 53.9302 88.4924 53.1036 87.856 52.4939C87.2196 51.8843 86.3568 51.5413 85.4568 51.5403H46.1677Z" fill="#E6E6E6"/>
<path d="M70.139 76.1317H64.4581C64.1791 76.1317 63.9115 76.0255 63.7143 75.8365C63.517 75.6475 63.4061 75.3911 63.4061 75.1238C63.4061 74.8565 63.517 74.6002 63.7143 74.4112C63.9115 74.2222 64.1791 74.116 64.4581 74.116H70.139C70.418 74.116 70.6856 74.2222 70.8829 74.4112C71.0802 74.6002 71.191 74.8565 71.191 75.1238C71.191 75.3911 71.0802 75.6475 70.8829 75.8365C70.6856 76.0255 70.418 76.1317 70.139 76.1317Z" fill="#E6E6E6"/>
<path d="M71.444 105.359H63.153C62.9512 105.36 62.7514 105.322 62.5649 105.248C62.3784 105.174 62.209 105.066 62.0662 104.929C61.9234 104.792 61.8102 104.63 61.7329 104.452C61.6556 104.273 61.6158 104.082 61.6158 103.888C61.6158 103.695 61.6556 103.504 61.7329 103.325C61.8102 103.147 61.9234 102.984 62.0662 102.848C62.209 102.711 62.3784 102.603 62.5649 102.529C62.7514 102.455 62.9512 102.417 63.153 102.417H71.444C71.8512 102.417 72.2418 102.572 72.5297 102.848C72.8176 103.124 72.9794 103.498 72.9794 103.888C72.9794 104.279 72.8176 104.653 72.5297 104.928C72.2418 105.204 71.8512 105.359 71.444 105.359Z" fill="#5D8BFF"/>
<path d="M85.4568 90.2416H46.1677C45.1561 90.2405 44.1863 89.855 43.4711 89.1698C42.7558 88.4845 42.3534 87.5555 42.3523 86.5864V82.8105C42.3534 81.8414 42.7558 80.9123 43.4711 80.2271C44.1863 79.5418 45.1561 79.1564 46.1677 79.1553H85.4568C86.4683 79.1564 87.4381 79.5418 88.1534 80.2271C88.8687 80.9123 89.271 81.8414 89.2722 82.8105V86.5864C89.271 87.5555 88.8687 88.4845 88.1534 89.1698C87.4381 89.855 86.4683 90.2405 85.4568 90.2416ZM46.1677 79.5584C45.2677 79.5594 44.4049 79.9023 43.7685 80.512C43.1321 81.1217 42.7741 81.9483 42.7731 82.8105V86.5864C42.7741 87.4486 43.1321 88.2752 43.7685 88.8848C44.4049 89.4945 45.2677 89.8374 46.1677 89.8384H85.4568C86.3568 89.8375 87.2196 89.4945 87.856 88.8849C88.4924 88.2752 88.8504 87.4486 88.8514 86.5864V82.8105C88.8504 81.9483 88.4924 81.1217 87.856 80.512C87.2196 79.9023 86.3568 79.5594 85.4568 79.5584H46.1677Z" fill="#E6E6E6"/>
<path d="M92.67 39.0037H41.8577V39.4068H92.67V39.0037Z" fill="#E6E6E6"/>
<path d="M91.3486 55.0011C91.398 55.338 91.5827 55.6432 91.8634 55.8517C92.1441 56.0602 92.4986 56.1555 92.8515 56.1174C92.9231 56.1086 92.9939 56.0941 93.063 56.0741L95.8897 59.7391L98.3355 59.0193L93.8967 54.3998C93.7879 54.1316 93.5895 53.9056 93.3325 53.7568C93.0755 53.608 92.7743 53.5449 92.4759 53.5774C92.3063 53.5975 92.1425 53.6493 91.9939 53.73C91.8452 53.8107 91.7145 53.9186 91.6094 54.0477C91.5043 54.1767 91.4267 54.3243 91.3811 54.4821C91.3356 54.6399 91.3229 54.8047 91.3438 54.9672C91.3452 54.9785 91.3469 54.9898 91.3486 55.0011Z" fill="#FFB6B6"/>
<path d="M126.92 80.732C126.667 80.4928 126.522 80.1685 126.515 79.8283C126.508 79.4881 126.641 79.1588 126.883 78.9105C126.933 78.8608 126.988 78.8151 127.046 78.774L125.667 74.4126L127.731 72.9639L128.945 79.134C129.105 79.3778 129.176 79.6653 129.147 79.9516C129.117 80.2379 128.99 80.507 128.785 80.7168C128.667 80.8351 128.525 80.9299 128.369 80.9959C128.213 81.0619 128.044 81.0978 127.873 81.1014C127.703 81.1051 127.533 81.0764 127.373 81.0172C127.214 80.9579 127.069 80.8692 126.945 80.756C126.936 80.7481 126.928 80.7402 126.92 80.732Z" fill="#FFB6B6"/>
<path d="M115.222 117.4L113.138 117.4L112.147 109.702L115.222 109.702L115.222 117.4Z" fill="#FFB6B6"/>
<path d="M115.295 119.482L108.889 119.482V119.404C108.889 118.77 109.151 118.163 109.619 117.715C110.087 117.267 110.721 117.015 111.382 117.015H111.382L112.552 116.165L114.736 117.015L115.295 117.015L115.295 119.482Z" fill="#2F2E41"/>
<path d="M124.269 117.4L122.186 117.4L121.195 109.702L124.269 109.702L124.269 117.4Z" fill="#FFB6B6"/>
<path d="M124.342 119.482L117.936 119.482V119.404C117.936 118.77 118.199 118.163 118.666 117.715C119.134 117.267 119.768 117.015 120.429 117.015H120.43L121.6 116.165L123.783 117.015L124.342 117.015L124.342 119.482Z" fill="#2F2E41"/>
<path d="M109.05 76.0224C109.05 76.0224 106.679 79.1893 108.39 84.6608C110.102 90.1322 109.141 95.0238 109.622 96.0047C110.102 96.9855 111.069 97.9171 110.27 98.6607C109.471 99.4044 109.05 100.009 109.681 100.211C110.313 100.412 112.417 114.522 112.417 114.522L115.993 114.724C115.993 114.724 117.289 108.169 115.905 102.88C115.905 102.88 116.209 99.0398 115.575 97.9119C114.941 96.784 115.066 97.8013 115.109 96.3856C115.133 95.3617 115.288 94.3446 115.573 93.3573C115.783 92.551 115.905 84.4248 115.905 84.4248L120.555 94.4626C120.695 94.8341 120.747 95.2306 120.708 95.6238C120.622 96.1793 120.622 97.0093 120.727 97.2998C120.833 97.5903 120.95 97.6513 120.891 98.2255C120.833 98.7997 120.833 114.027 120.833 114.027H124.83L126.724 98.7997C126.383 98.438 126.1 98.0306 125.882 97.5902C125.462 96.784 125.445 96.7395 125.664 96.157C125.882 95.5746 125.882 94.4397 125.882 94.1001C125.882 93.7604 126.101 78.341 123.362 76.0731C120.622 73.8051 109.05 76.0224 109.05 76.0224Z" fill="#2F2E41"/>
<path d="M121.326 51.8169L117.333 50.8255L115.469 48.3623L111.041 48.8837L110.099 52.2435L106.947 53.9962C106.947 53.9962 108.689 71.6479 108.275 72.6171C107.861 73.5864 106.375 73.5063 107.644 74.7558C108.913 76.0052 109.081 75.5019 108.786 76.8622C108.492 78.2224 106.345 79.662 108.786 79.6477C111.227 79.6334 125.955 79.4319 125.534 77.8193C125.114 76.2068 125.12 76.6162 124.486 75.6052C123.851 74.5942 123.424 75.1592 123.638 73.6673C123.851 72.1754 123.641 71.1675 123.641 70.3612C123.641 69.555 122.936 62.2282 122.936 62.2282L121.326 51.8169Z" fill="#3F3D56"/>
<path d="M108.866 53.6574C108.866 53.6574 104.915 53.2278 104.073 55.0419C103.232 56.856 101.111 60.6334 101.111 60.6334C101.111 60.6334 99.4571 58.9761 99.2971 58.225C99.1612 57.5872 99.0865 58.6525 97.9757 57.4993C97.4779 56.9825 97.8987 56.9825 97.2675 56.781L96.0051 56.3778L93.9011 58.192C93.9011 58.192 93.8599 60.3838 94.9531 60.4092C96.0463 60.4346 94.5323 60.0061 96.0051 61.4171C96.7656 62.1456 96.0681 62.0249 97.3355 62.7663C98.6029 63.5078 98.4598 63.5046 98.847 63.9094C99.2341 64.3141 101.312 64.6087 101.312 64.6087L110.616 59.6763L108.866 53.6574Z" fill="#3F3D56"/>
<path d="M119.25 52.5795C119.25 52.5795 120.944 50.2013 123.84 53.2911C126.736 56.3808 128.901 70.4859 128.766 70.9922C128.63 71.4985 127.866 71.208 128.774 72.0587C129.682 72.9095 130.313 72.3048 129.682 72.9095C129.051 73.5142 127.733 74.0832 128.813 74.3026C129.892 74.522 125.693 75.7296 125.693 75.7296C125.693 75.7296 125.081 75.5155 125.055 74.1031C125.041 73.3098 125.462 72.9066 124.83 72.7051C124.199 72.5035 124.975 71.1574 124.909 70.9248C124.843 70.6922 120.845 60.4122 120.845 60.4122L119.25 52.5795Z" fill="#3F3D56"/>
<path d="M112.59 47.9406C115.27 47.9406 117.441 45.86 117.441 43.2933C117.441 40.7267 115.27 38.646 112.59 38.646C109.911 38.646 107.74 40.7267 107.74 43.2933C107.74 45.86 109.911 47.9406 112.59 47.9406Z" fill="#FFB6B6"/>
<path d="M115.783 46.9042C114.636 46.0455 116.204 42.2681 114.31 43.0744C114.31 43.0744 111.996 41.6634 111.531 42.5906C110.992 43.6643 109.077 43.1772 107.901 42.7983C107.994 42.5924 108.059 42.3765 108.097 42.1553C107.88 42.3191 107.65 42.4667 107.409 42.5967C107.247 42.514 107.104 42.4017 106.988 42.2661C106.873 42.1402 106.802 41.9837 106.782 41.8176C106.763 41.6515 106.798 41.4838 106.881 41.3369C107.076 41.0486 107.48 40.96 107.718 40.704C107.746 40.668 107.764 40.6261 107.771 40.582C107.777 40.5379 107.773 40.4929 107.758 40.4507C107.729 40.3477 107.725 40.24 107.745 40.1353C107.765 40.0305 107.809 39.9313 107.874 39.8447C107.939 39.758 108.022 39.6861 108.119 39.6341C108.216 39.5821 108.324 39.5512 108.435 39.5436C108.48 39.5449 108.524 39.5357 108.564 39.5167C108.764 39.3997 108.948 39.2603 109.113 39.1015C108.837 39.1143 108.56 39.1069 108.284 39.0793C108.227 39.0733 108.171 39.0672 108.114 39.0592C108.219 38.8226 108.376 38.6106 108.575 38.4377C108.774 38.2648 109.009 38.1351 109.265 38.0574C109.805 37.9009 110.367 37.8255 110.931 37.8336C111.257 37.8235 111.583 37.8135 111.907 37.8034C112.595 37.7565 113.285 37.7795 113.967 37.8719C114.696 37.9993 115.386 38.2792 115.989 38.6918C116.592 39.1043 117.092 39.6393 117.454 40.2585C118.167 41.4981 118.939 45.4932 115.783 46.9042Z" fill="#2F2E41"/>
<path d="M103.404 68.7874L78.3979 77.2574C77.7796 77.4661 77.1002 77.4313 76.5087 77.1607C75.9172 76.89 75.4619 76.4056 75.2427 75.8138L70.9469 64.1739C70.7291 63.5816 70.7654 62.9307 71.0479 62.364C71.3304 61.7973 71.836 61.3612 72.4538 61.1511L97.4602 52.6811C98.0784 52.4725 98.7579 52.5073 99.3494 52.7779C99.9409 53.0485 100.396 53.5329 100.615 54.1248L104.911 65.7646C105.129 66.3569 105.093 67.0078 104.81 67.5745C104.528 68.1412 104.022 68.5774 103.404 68.7874Z" fill="#5D8BFF"/>
<path d="M76.8374 63.8535C75.1798 64.8984 73.0555 64.112 72.3125 62.9666L72.431 62.9022C73.8421 62.0595 75.9377 62.529 76.8374 63.8535Z" fill="white"/>
<path d="M97.6088 66.8182C97.4362 66.8869 97.2506 66.9206 97.0638 66.9174C96.8769 66.9142 96.6928 66.874 96.5229 66.7994C95.8113 66.4607 95.4773 65.4563 95.209 64.6492C95.1309 64.4144 95.0572 64.1926 94.9821 64.0114L94.9811 64.0086C94.8504 63.649 94.8732 63.2546 95.0443 62.911C95.2155 62.5674 95.5213 62.3023 95.8953 62.1735L99.2588 61.0342C99.4312 60.9656 99.6166 60.9318 99.8032 60.935C99.9899 60.9382 100.174 60.9783 100.344 61.0528C101.055 61.3911 101.389 62.3952 101.658 63.2019C101.736 63.4372 101.81 63.6594 101.885 63.8409C102.017 64.2009 101.994 64.5959 101.823 64.9402C101.652 65.2845 101.346 65.55 100.971 65.6791L97.6088 66.8182Z" fill="white"/>
<path d="M76.9978 70.0235C76.9378 70.0463 76.8725 70.0529 76.8088 70.0428C76.7452 70.0327 76.6856 70.0062 76.6366 69.9661C76.5791 69.918 76.5355 69.8565 76.5101 69.7876C76.4846 69.7186 76.4781 69.6446 76.4912 69.5726C76.5033 69.5106 76.5332 69.4531 76.5774 69.4063C76.6215 69.3596 76.6784 69.3255 76.7416 69.3078L78.0217 68.8742C78.0824 68.8501 78.149 68.8425 78.2139 68.8523C78.2789 68.8621 78.3398 68.8889 78.3898 68.9297C78.4473 68.9778 78.4908 69.0393 78.5162 69.1082C78.5417 69.1772 78.5481 69.2512 78.535 69.3232C78.5226 69.385 78.4927 69.4424 78.4486 69.4891C78.4044 69.5357 78.3477 69.5698 78.2846 69.5876L77.0045 70.0212L76.9978 70.0235Z" fill="white"/>
<path d="M76.3179 72.8062C76.2055 72.8262 76.0895 72.8165 75.9825 72.7782C75.8754 72.7399 75.7812 72.6743 75.71 72.5886C75.6272 72.4862 75.5732 72.3651 75.5534 72.2369C75.5336 72.1087 75.5486 71.9779 75.5969 71.8568C75.64 71.753 75.7123 71.6627 75.8058 71.5958C75.8992 71.5289 76.0101 71.4881 76.1263 71.4779L80.8946 69.9449C81.0088 69.9228 81.1272 69.9312 81.2368 69.9694C81.3463 70.0076 81.4427 70.0741 81.5153 70.1614C81.5981 70.2638 81.6519 70.3849 81.6717 70.5131C81.6915 70.6412 81.6765 70.7721 81.6281 70.8931C81.5846 70.9966 81.5122 71.0867 81.4188 71.1534C81.3255 71.2201 81.2147 71.2609 81.0987 71.2714L76.3304 72.8043L76.3179 72.8062Z" fill="white"/>
<path d="M101.551 56.6585L71.9669 66.679L72.0169 66.8143L101.601 56.7938L101.551 56.6585Z" fill="white"/>
<path d="M96.8467 64.4407C97.3115 64.4407 97.6884 64.0797 97.6884 63.6344C97.6884 63.1891 97.3115 62.8281 96.8467 62.8281C96.3819 62.8281 96.0051 63.1891 96.0051 63.6344C96.0051 64.0797 96.3819 64.4407 96.8467 64.4407Z" fill="#5D8BFF"/>
<path d="M99.582 64.6423C99.9306 64.6423 100.213 64.3715 100.213 64.0376C100.213 63.7036 99.9306 63.4329 99.582 63.4329C99.2334 63.4329 98.9508 63.7036 98.9508 64.0376C98.9508 64.3715 99.2334 64.6423 99.582 64.6423Z" fill="#5D8BFF"/>
<path d="M52.3176 114.562C52.1966 114.568 52.0769 114.537 51.9745 114.475C51.8722 114.413 51.7923 114.323 51.7455 114.216C51.6988 114.108 51.6876 113.99 51.7133 113.877C51.7391 113.763 51.8006 113.66 51.8895 113.582L51.93 113.428C51.9247 113.415 51.9193 113.403 51.9139 113.391C51.792 113.115 51.5878 112.88 51.3269 112.715C51.0659 112.55 50.7599 112.462 50.4473 112.463C50.1347 112.464 49.8294 112.554 49.5697 112.721C49.3101 112.888 49.1076 113.124 48.9879 113.401C48.5093 114.505 47.9 115.611 47.75 116.779C47.6839 117.295 47.7118 117.818 47.8324 118.325C46.7084 115.976 46.1247 113.423 46.121 110.839C46.1207 110.19 46.1583 109.543 46.2336 108.898C46.2958 108.37 46.3821 107.845 46.4925 107.325C47.095 104.499 48.3884 101.851 50.2667 99.597C51.1758 99.1218 51.911 98.391 52.3733 97.5032C52.5407 97.1841 52.6591 96.8434 52.7246 96.4917C52.6221 96.5046 52.338 95.0084 52.4153 94.9166C52.2724 94.7088 52.0166 94.6055 51.8605 94.4028C51.0842 93.3945 50.0147 93.5706 49.4564 94.9407C48.2637 95.5174 48.2522 96.4738 48.984 97.3937C49.4496 97.9789 49.5136 98.7707 49.9221 99.3972C49.8801 99.4488 49.8364 99.4987 49.7943 99.5503C49.026 100.497 48.3564 101.513 47.795 102.585C47.9316 101.384 47.7686 100.17 47.3196 99.0413C46.8646 97.9897 46.0117 97.104 45.2606 96.1949C44.3585 95.1028 42.5085 95.5794 42.3496 96.9637C42.348 96.9771 42.3465 96.9905 42.3451 97.0039C42.4566 97.0642 42.5658 97.1282 42.6727 97.1959C42.8069 97.2818 42.9109 97.4046 42.9711 97.5481C43.0312 97.6916 43.0447 97.8492 43.0098 98.0002C42.9749 98.1512 42.8932 98.2885 42.7754 98.3943C42.6576 98.5 42.5092 98.5692 42.3496 98.5928L42.3333 98.5952C42.373 98.9804 42.4433 99.3621 42.5434 99.7371C41.5799 103.307 43.6601 104.607 46.6304 104.666C46.6959 104.698 46.7598 104.73 46.8254 104.761C46.2614 106.292 45.9076 107.887 45.773 109.505C45.6967 110.46 45.7012 111.42 45.7864 112.374L45.7814 112.34C45.5662 111.279 44.9753 110.321 44.1086 109.629C42.8213 108.616 41.0026 108.243 39.6138 107.429C39.4662 107.338 39.2946 107.29 39.1192 107.289C38.9438 107.289 38.772 107.337 38.6239 107.427C38.4759 107.517 38.3578 107.645 38.2837 107.798C38.2095 107.95 38.1823 108.119 38.2054 108.286C38.2072 108.298 38.2091 108.31 38.211 108.322C38.4181 108.402 38.6196 108.495 38.8146 108.6C38.9261 108.66 39.0353 108.724 39.1422 108.792C39.2764 108.878 39.3804 109.001 39.4406 109.144C39.5007 109.288 39.5142 109.445 39.4793 109.596C39.4444 109.747 39.3627 109.885 39.2449 109.991C39.1271 110.096 38.9787 110.165 38.8191 110.189L38.8028 110.191C38.791 110.193 38.7809 110.195 38.7692 110.196C39.1229 111.005 39.6194 111.75 40.2368 112.398C40.8393 115.514 43.427 115.81 46.1949 114.902H46.1966C46.5003 116.167 46.9404 117.397 47.5096 118.575H52.2001C52.2169 118.525 52.232 118.473 52.2472 118.423C51.813 118.449 51.3772 118.424 50.9493 118.349C51.2973 117.94 51.6453 117.528 51.9933 117.119C52.0011 117.111 52.0084 117.103 52.0152 117.094C52.1917 116.885 52.3699 116.677 52.5464 116.468L52.5465 116.468C52.5559 115.826 52.4791 115.186 52.3178 114.563L52.3176 114.562Z" fill="#F2F2F2"/>
</g>
<defs>
<clipPath id="clip0_17_360">
<rect width="151" height="120" fill="white"/>
</clipPath>
</defs>
</svg>
