<svg width="242" height="244" viewBox="0 0 242 244" fill="none" xmlns="http://www.w3.org/2000/svg">
<path d="M0 240.349C0 240.652 0.244472 240.896 0.548906 240.896H241.451C241.756 240.896 242 240.652 242 240.349C242 240.046 241.756 239.803 241.451 239.803H0.548906C0.244472 239.803 0 240.046 0 240.349Z" fill="#3F3D56"/>
<path d="M164.22 109.424H69.3565C58.599 109.424 49.8783 118.105 49.8783 128.814V220.387C49.8783 231.097 58.599 239.778 69.3565 239.778H164.22C174.977 239.778 183.698 231.097 183.698 220.387V128.814C183.698 118.105 174.977 109.424 164.22 109.424L164.22 109.424Z" fill="white"/>
<path d="M164.22 240.237H69.3565C58.3619 240.237 49.417 231.333 49.417 220.388V128.815C49.417 117.869 58.3619 108.965 69.3565 108.965H164.22C175.214 108.965 184.159 117.869 184.159 128.815V220.388C184.159 231.333 175.214 240.237 164.22 240.237H164.22ZM69.3565 109.883C58.8704 109.883 50.3395 118.376 50.3395 128.815V220.388C50.3395 230.826 58.8704 239.319 69.3565 239.319H164.22C174.706 239.319 183.237 230.826 183.237 220.388V128.815C183.237 118.376 174.706 109.883 164.22 109.883H69.3565Z" fill="#3F3D56"/>
<path d="M171.091 149.124H132.961C131.344 149.124 130.028 147.814 130.028 146.204C130.028 144.594 131.344 143.284 132.961 143.284H171.091C172.708 143.284 174.024 144.594 174.024 146.204C174.024 147.814 172.708 149.124 171.091 149.124Z" fill="#5D8BFF"/>
<path d="M135.32 172.086H98.2563C97.3218 172.086 96.5615 171.329 96.5615 170.399C96.5615 169.468 97.3218 168.712 98.2563 168.712H135.32C136.255 168.712 137.015 169.468 137.015 170.399C137.015 171.329 136.255 172.086 135.32 172.086V172.086Z" fill="#5D8BFF"/>
<path d="M82.9339 115.695H61.7732C61.6942 115.695 61.6301 115.759 61.6301 115.838V118.29C61.6301 118.369 61.6942 118.433 61.7732 118.433H82.9339C83.0129 118.433 83.077 118.369 83.077 118.29V115.838C83.077 115.759 83.0129 115.695 82.9339 115.695Z" fill="#5D8BFF"/>
<path d="M154.21 118.432C155.425 118.432 156.41 117.452 156.41 116.243C156.41 115.033 155.425 114.053 154.21 114.053C152.995 114.053 152.01 115.033 152.01 116.243C152.01 117.452 152.995 118.432 154.21 118.432Z" fill="#3F3D56"/>
<path d="M160.259 118.432C161.474 118.432 162.459 117.452 162.459 116.243C162.459 115.033 161.474 114.053 160.259 114.053C159.044 114.053 158.059 115.033 158.059 116.243C158.059 117.452 159.044 118.432 160.259 118.432Z" fill="#3F3D56"/>
<path d="M166.308 118.432C167.523 118.432 168.508 117.452 168.508 116.243C168.508 115.033 167.523 114.053 166.308 114.053C165.093 114.053 164.109 115.033 164.109 116.243C164.109 117.452 165.093 118.432 166.308 118.432Z" fill="#3F3D56"/>
<path d="M69.1256 181.117C69.1256 181.42 69.3701 181.663 69.6745 181.663H163.902C164.206 181.663 164.451 181.42 164.451 181.117C164.451 180.814 164.206 180.57 163.902 180.57H69.6745C69.3701 180.57 69.1256 180.814 69.1256 181.117Z" fill="#3F3D56"/>
<path d="M97.863 46.3382C99.8691 44.6881 102.35 44.381 103.405 45.652C104.46 46.9231 103.688 49.2907 101.681 50.9411C100.889 51.6113 99.9464 52.0828 98.9332 52.3162L90.345 59.2008L87.1855 55.1199L95.9875 48.7661C96.4089 47.8193 97.0521 46.9868 97.863 46.3382H97.863Z" fill="#A0616A"/>
<path d="M48.224 61.8715C48.2196 61.5671 48.2225 58.9112 50.1976 57.2326C52.4664 55.3043 55.6678 56.0848 56.7907 56.3585C59.3845 56.9909 59.5973 58.0986 62.0332 59.2367C66.5905 61.3661 60.8803 60.2762 63.5921 59.5934C64.5307 59.3571 78.0346 58.4247 81.3959 56.3652C87.9334 52.3596 92.3877 49.9307 92.3877 49.9307L95.2997 55.7283C95.2997 55.7283 91.089 61.5568 85.1629 65.8746C79.0841 70.3037 76.0446 72.5182 71.4255 73.3739C71.0278 73.4476 61.2449 75.1104 53.3655 69.2502C51.5683 67.9135 48.2753 65.4643 48.224 61.8715L48.224 61.8715Z" fill="#E6E6E6"/>
<path d="M57.257 47.1263C62.8593 47.1263 67.4009 42.6051 67.4009 37.028C67.4009 31.4509 62.8593 26.9297 57.257 26.9297C51.6546 26.9297 47.113 31.4509 47.113 37.028C47.113 42.6051 51.6546 47.1263 57.257 47.1263Z" fill="#A0616A"/>
<path d="M136.7 104.873L126.254 94.2275L120.861 99.8275L128.644 110.035L136.364 110.914L136.7 104.873Z" fill="#A0616A"/>
<path d="M77.0485 84.9101C77.6595 84.9606 79.6013 85.3479 81.4572 84.3313C82.7239 83.6376 83.3735 82.6061 83.5929 82.278C86.3149 78.2083 96.7624 71.8621 106.139 71.4715C108.262 71.3831 109.66 71.628 110.93 72.2872C112.731 73.222 113.451 74.5609 115.736 77.6975C116.987 79.4133 118.37 81.0297 119.636 82.7344C127.044 92.715 129.853 93.4985 129.566 96.6982C129.247 100.248 125.401 103.616 122.845 103.228C121.798 103.068 121.393 102.344 119.994 100.877C115.893 96.5754 114.196 97.3701 111.277 94.0755C107.868 90.229 108.314 87.0397 106.535 86.9165C104.886 86.8023 104.185 89.523 100.664 93.1374C99.0532 94.7913 97.9059 95.55 94.4105 97.9639C80.799 107.364 80.5818 108.025 77.8348 108.775C76.6329 109.103 68.1028 111.431 65.0641 107.726C60.3089 101.928 71.5427 84.4547 77.0485 84.91V84.9101Z" fill="#2F2E41"/>
<path d="M133.507 107.279C134.275 106.935 135.173 106.534 135.462 105.61C135.658 104.985 135.545 104.215 135.141 103.682C134.675 103.068 133.984 102.987 134.012 102.879C134.055 102.713 135.687 102.778 137.479 103.408C137.818 103.527 139.35 104.085 141.299 105.599C142.86 106.813 142.65 107.056 143.629 107.756C146.635 109.904 149.454 108.211 151.08 110.225C151.708 111.003 151.975 112.106 151.711 112.999C151.181 114.791 148.601 115.408 147.191 115.726C143.796 116.493 141.226 115.867 138.542 115.417C129.416 113.886 124.288 115.28 123.602 113.176C123.472 112.777 123.683 112.811 124.387 109.888C125.081 107.002 125.058 106.21 125.65 105.979C126.54 105.631 127.138 107.213 129.381 107.755C131.369 108.234 133.009 107.501 133.507 107.279Z" fill="#2F2E41"/>
<path d="M118.128 139.698L115.488 125.05L107.867 126.669L108.55 139.466L114.442 144.509L118.128 139.698Z" fill="#A0616A"/>
<path d="M80.0289 89.8341C80.506 90.2175 81.8943 91.6234 84.0034 91.8198C85.4428 91.9538 86.5622 91.4634 86.9288 91.3147C91.4767 89.4688 103.701 90.0578 111.68 94.9762C113.487 96.09 114.505 97.074 115.185 98.3296C116.148 100.11 115.988 101.62 116.11 105.493C116.177 107.612 116.41 109.723 116.495 111.841C116.995 124.24 118.877 126.459 116.835 128.946C114.569 131.705 109.487 132.342 107.591 130.592C106.814 129.875 106.888 129.049 106.558 127.053C105.591 121.201 103.739 120.91 103.181 116.552C102.53 111.464 104.698 109.074 103.296 107.978C101.996 106.961 99.8813 108.821 94.9291 109.843C92.663 110.311 91.2857 110.298 87.0319 110.341C70.4664 110.511 69.914 110.936 67.2181 110.021C66.0386 109.62 57.6671 106.778 57.2426 102.014C56.5783 94.5582 75.73 86.3795 80.0289 89.8341H80.0289Z" fill="#2F2E41"/>
<path d="M114.128 139.903C114.957 140.049 115.927 140.218 116.687 139.616C117.202 139.208 117.543 138.508 117.509 137.841C117.469 137.072 116.944 136.619 117.028 136.545C117.157 136.432 118.471 137.398 119.598 138.921C119.811 139.209 120.764 140.527 121.523 142.869C122.13 144.746 121.819 144.83 122.235 145.957C123.51 149.414 126.798 149.589 127.007 152.165C127.088 153.159 126.687 154.222 125.965 154.813C124.515 155.999 122.033 155.068 120.686 154.543C117.444 153.28 115.671 151.325 113.704 149.452C107.016 143.084 101.987 141.371 102.606 139.246C102.723 138.843 102.879 138.989 105.11 136.964C107.312 134.965 107.74 134.296 108.36 134.436C109.293 134.646 108.895 136.289 110.446 137.991C111.82 139.499 113.59 139.809 114.128 139.903Z" fill="#2F2E41"/>
<path d="M58.6399 38.9589C59.0348 37.5526 58.5388 37.0401 59.0444 36.4089C59.0444 36.4089 59.2478 36.1549 61.0666 35.4694C60.53 32.3698 60.9318 31.8457 60.9318 31.8457C61.3949 31.2417 62.3226 31.0956 62.9541 31.1747C64.2897 31.3418 64.5262 32.5437 65.3808 32.5168C66.5614 32.4795 67.9774 30.1269 67.5379 28.0878C67.1794 26.4245 65.6335 25.1892 65.246 25.4036C64.8618 25.6161 63.4786 24.679 62.9541 24.8667C62.5959 24.995 60.9097 24.8244 60.5274 25.0009C60.1098 25.1938 58.9141 26.3944 58.7998 26.2432C58.0054 25.1919 58.0223 24.8249 57.5614 24.5983C56.7447 24.1968 55.8568 24.9389 54.3258 25.672C51.1757 27.1804 50.2533 26.2806 48.7982 27.551C48.0632 28.1927 47.6691 29.4191 46.9108 31.8457C45.8503 35.2393 45.3201 36.9361 45.8322 38.5563C46.3545 40.2085 47.1237 39.8489 48.259 42.18C49.5227 44.7748 49.0871 46.2831 50.2812 46.8774C51.2041 47.3366 52.6872 47.0443 53.2472 46.2063C54.206 44.7715 51.7279 42.8306 52.5731 40.5694C53.0919 39.1814 54.6924 38.129 55.6739 38.4221C56.7837 38.7534 56.8654 40.7343 57.5614 40.7036C58.1573 40.6774 58.5711 39.204 58.6399 38.9589H58.6399Z" fill="#2F2E41"/>
<path d="M50.9554 48.6223C53.0312 46.3053 61.4864 48.7035 62.2801 52.3802C62.6065 53.8925 61.4014 54.5311 61.7408 56.2723C62.2371 58.8192 65.0475 58.6456 67.1335 61.2381C70.095 64.9188 67.044 68.5168 70.3691 74.6593C71.0796 75.9718 71.6785 77.0781 72.9306 78.1487C75.804 80.6056 78.4781 79.763 79.9412 82.0409C81.0353 83.7443 80.5857 85.8438 80.4804 86.3356C80.0486 88.3523 78.8784 88.8437 78.0537 90.4962C76.6817 93.2455 78.2352 95.264 78.3234 98.5488C78.4337 102.659 76.2398 108.356 71.8521 110.225C66.9228 112.325 60.9776 108.847 58.1007 105.394C56.384 103.333 55.8857 101.432 55.1347 99.0857C51.7783 88.5996 49.8821 89.548 47.3153 81.2356C44.381 71.7331 43.8042 60.6004 47.3153 57.0776C47.7807 56.6107 49.0614 55.5314 49.8768 53.5881C50.9741 50.9731 50.0261 49.6595 50.9554 48.6223L50.9554 48.6223Z" fill="#E6E6E6"/>
<path d="M81.6276 102.559C83.237 104.595 83.4865 107.071 82.1849 108.091C80.8834 109.11 78.5241 108.286 76.9144 106.25C76.2602 105.445 75.8091 104.496 75.5988 103.482L68.8892 94.7713L72.3562 92.1387L79.234 100.635C80.1748 101.077 80.9955 101.737 81.6276 102.559H81.6276Z" fill="#A0616A"/>
<path d="M57.0544 57.4522C57.3529 57.3858 59.9653 56.8467 62.019 58.429C64.3782 60.2466 64.2639 63.5259 64.2238 64.676C64.1312 67.3329 63.0854 67.7662 62.4632 70.3724C61.2991 75.2482 63.516 79.7795 64.7407 82.2829C65.1647 83.1495 66.5267 85.801 69.2379 88.6566C74.5108 94.2104 79.2157 97.1328 79.2157 97.1328L74.1614 101.605C74.1614 101.605 66.1104 99.1624 60.6551 94.2681C55.0593 89.2476 46.4538 71.4846 44.6698 67.1577C44.5162 66.785 46.6924 72.8431 50.8475 63.9685C51.7952 61.9442 53.5318 58.2353 57.0544 57.4522H57.0544Z" fill="#E6E6E6"/>
<path d="M126.355 193.624C123.143 194.114 120.793 196.162 121.106 198.197C121.42 200.232 124.278 201.484 127.492 200.994C128.778 200.815 130.003 200.333 131.064 199.586L144.649 197.338L143.743 191.992L130.188 193.902C128.951 193.506 127.637 193.411 126.355 193.624Z" fill="#FFB6B6"/>
<path d="M184.898 176.96L179.63 188.088L153.148 196.963L131.173 198.13L130.623 192.875L154.439 187.918L178.877 176.422L184.898 176.96Z" fill="#E6E6E6"/>
<path d="M136.055 219.213L131.326 231.122L125.206 226.968L128.822 214.505L136.055 219.213Z" fill="#FFB6B6"/>
<path d="M116.303 214.782L103.784 226.691L108.792 231.953L121.589 221.983L116.303 214.782Z" fill="#FFB6B6"/>
<path d="M187.244 176.009L187.105 175.04L183.906 168.809L173.334 171.578L175.282 180.164L187.244 176.009Z" fill="#FFB6B6"/>
<path d="M182.793 217.552L183.118 221.712C183.118 221.712 184.462 239.154 173.613 240.539C162.763 241.923 158.033 243.308 151.635 232.507L141.619 214.782L135.77 221.712L127.988 215.613C127.988 215.613 133.552 194.011 138.003 193.18C138.559 193.076 139.116 193.024 139.663 193.013C143.348 192.937 146.822 194.731 149.027 197.671L161.65 214.505L166.24 212.428L182.793 217.552Z" fill="#2F2E41"/>
<path d="M122.702 230.568L125.206 225.86L132.439 230.845C132.439 230.845 134.108 236.938 131.604 237.769C129.1 238.6 122.145 237.492 122.145 237.492C122.145 237.492 109.348 240.262 109.07 237.769C108.792 235.277 114.912 234.723 114.912 234.723L122.702 230.568Z" fill="#2F2E41"/>
<path d="M149.965 227.245L130.63 215.117L120.754 223.921L114.077 216.167C114.077 216.167 126.318 198.165 129.935 197.334C133.551 196.503 139.394 195.949 139.394 195.949L157.199 212.289L149.965 227.245V227.245Z" fill="#2F2E41"/>
<path d="M103.506 225.583L109.904 232.507L109.061 233.225C109.061 233.225 107.401 240.423 103.506 237.988C99.611 235.553 99.3328 234.999 99.3328 234.999C99.3328 234.999 88.2047 237.492 87.0919 233.061C85.9791 228.629 89.0393 229.46 89.0393 229.46L91.818 231.122L103.506 225.583H103.506Z" fill="#2F2E41"/>
<path d="M176.673 174.624C181.59 174.624 185.575 170.656 185.575 165.762C185.575 160.867 181.59 156.899 176.673 156.899C171.756 156.899 167.77 160.867 167.77 165.762C167.77 170.656 171.756 174.624 176.673 174.624Z" fill="#FFB6B6"/>
<path d="M174.586 178.364L187.384 174.486C187.384 174.486 192.391 186.118 191.557 191.38C190.722 196.642 183.118 221.712 183.118 221.712L166.24 212.428C166.24 212.428 165.962 206.889 165.127 204.397C164.293 201.904 161.65 194.288 167.492 187.918C173.334 181.549 174.586 178.364 174.586 178.364V178.364Z" fill="#E6E6E6"/>
<path d="M146.42 236.518C144.338 239.002 143.937 242.085 145.525 243.404C147.113 244.723 150.088 243.779 152.171 241.294C153.017 240.313 153.615 239.144 153.914 237.886L162.605 227.25L158.371 223.84L149.478 234.201C148.288 234.719 147.239 235.514 146.42 236.518V236.518Z" fill="#FFB6B6"/>
<path d="M184.402 183.951L187.427 195.879L172.623 219.47L157.51 234.591L152.611 230.545L167.853 211.666L179.406 187.34L184.402 183.951Z" fill="#E6E6E6"/>
<path d="M168.466 164.239C170.749 164.233 170.879 164.248 171.248 164.239C174.08 164.164 174.82 163.055 176.255 163.131C178.817 163.266 175.436 176.052 174.03 181.964C172.651 187.761 177.312 192.956 177.646 193.319C182.377 198.44 190.687 199.377 192.113 197.196C193.267 195.43 189.177 192.746 190.166 188.887C191.132 185.115 195.595 185.517 196.842 181.964C198.149 178.242 193.758 176.365 191 167.285C189.416 162.07 189.696 161.099 188.218 157.869C184.267 149.236 164.901 152.911 167.075 160.915C167.495 162.464 166.376 164.244 168.466 164.239Z" fill="#2F2E41"/>
<path d="M196.893 59.0309H103.33C100.684 59.0309 98.5316 56.8878 98.5316 54.254V4.77694C98.5316 2.14308 100.684 0 103.33 0H196.893C199.539 0 201.692 2.14308 201.692 4.77694V54.254C201.692 56.8878 199.539 59.0309 196.893 59.0309Z" fill="white"/>
<path d="M196.893 59.0309H103.33C100.684 59.0309 98.5316 56.8878 98.5316 54.254V4.77694C98.5316 2.14308 100.684 0 103.33 0H196.893C199.539 0 201.692 2.14308 201.692 4.77694V54.254C201.692 56.8878 199.539 59.0309 196.893 59.0309ZM103.33 0.797716C101.126 0.797716 99.3329 2.58284 99.3329 4.77694V54.254C99.3329 56.4481 101.126 58.2332 103.33 58.2332H196.893C199.097 58.2332 200.891 56.4481 200.891 54.254V4.77694C200.891 2.58284 199.097 0.797716 196.893 0.797716H103.33Z" fill="#3F3D56"/>
<path d="M189.672 5.98299C190.336 5.98299 190.874 5.44726 190.874 4.78641C190.874 4.12557 190.336 3.58984 189.672 3.58984C189.008 3.58984 188.47 4.12557 188.47 4.78641C188.47 5.44726 189.008 5.98299 189.672 5.98299Z" fill="#3F3D56"/>
<path d="M192.877 5.98299C193.541 5.98299 194.079 5.44726 194.079 4.78641C194.079 4.12557 193.541 3.58984 192.877 3.58984C192.214 3.58984 191.675 4.12557 191.675 4.78641C191.675 5.44726 192.214 5.98299 192.877 5.98299Z" fill="#3F3D56"/>
<path d="M196.083 5.98299C196.747 5.98299 197.285 5.44726 197.285 4.78641C197.285 4.12557 196.747 3.58984 196.083 3.58984C195.419 3.58984 194.881 4.12557 194.881 4.78641C194.881 5.44726 195.419 5.98299 196.083 5.98299Z" fill="#3F3D56"/>
<path d="M105.343 24.1309C105.011 24.1309 104.742 24.3992 104.742 24.7291C104.742 24.89 104.804 25.0388 104.917 25.1486C105.032 25.2651 105.181 25.3274 105.343 25.3274H195.281C195.613 25.3274 195.882 25.0591 195.882 24.7291C195.882 24.5683 195.82 24.4195 195.707 24.3096C195.592 24.1932 195.443 24.1309 195.281 24.1309H105.343Z" fill="#E6E6E6"/>
<path d="M184.063 23.9316V25.5271H105.343C105.122 25.5271 104.922 25.4393 104.778 25.2917C104.63 25.1482 104.542 24.9487 104.542 24.7294C104.542 24.2906 104.902 23.9316 105.343 23.9316H184.063Z" fill="#5D8BFF"/>
<path d="M194.28 20.9399H186.266C185.383 20.9399 184.664 20.2244 184.664 19.3445C184.664 18.4646 185.383 17.749 186.266 17.749H194.28C195.163 17.749 195.882 18.4646 195.882 19.3445C195.882 20.2244 195.163 20.9399 194.28 20.9399Z" fill="#E6E6E6"/>
<path d="M141.793 12.5639H105.944C105.06 12.5639 104.341 11.8484 104.341 10.9685C104.341 10.0886 105.06 9.37305 105.944 9.37305H141.793C142.677 9.37305 143.396 10.0886 143.396 10.9685C143.396 11.8484 142.677 12.5639 141.793 12.5639Z" fill="#E6E6E6"/>
<path d="M105.343 42.0791C105.011 42.0791 104.742 42.3475 104.742 42.6774C104.742 42.8383 104.804 42.987 104.917 43.0969C105.032 43.2134 105.181 43.2757 105.343 43.2757H195.281C195.613 43.2757 195.882 43.0073 195.882 42.6774C195.882 42.5165 195.82 42.3677 195.707 42.2579C195.592 42.1414 195.443 42.0791 195.281 42.0791H105.343Z" fill="#E6E6E6"/>
<path d="M153.212 41.8799V43.4753H105.343C105.122 43.4753 104.922 43.3876 104.778 43.24C104.63 43.0964 104.542 42.897 104.542 42.6776C104.542 42.2388 104.902 41.8799 105.343 41.8799H153.212Z" fill="#5D8BFF"/>
<path d="M194.28 38.8891H186.266C185.383 38.8891 184.664 38.1736 184.664 37.2937C184.664 36.4138 185.383 35.6982 186.266 35.6982H194.28C195.163 35.6982 195.882 36.4138 195.882 37.2937C195.882 38.1736 195.163 38.8891 194.28 38.8891Z" fill="#E6E6E6"/>
</svg>
