<svg width="17" height="16" viewBox="0 0 17 16" fill="none" xmlns="http://www.w3.org/2000/svg">
<path d="M5.83333 9.41264C6.29357 9.41264 6.66667 9.02952 6.66667 8.55691C6.66667 8.0843 6.29357 7.70117 5.83333 7.70117C5.3731 7.70117 5 8.0843 5 8.55691C5 9.02952 5.3731 9.41264 5.83333 9.41264Z" fill="#323232"/>
<path d="M10.8332 9.41264C11.2934 9.41264 11.6665 9.02952 11.6665 8.55691C11.6665 8.0843 11.2934 7.70117 10.8332 7.70117C10.373 7.70117 9.99988 8.0843 9.99988 8.55691C9.99988 9.02952 10.373 9.41264 10.8332 9.41264Z" fill="#323232"/>
<path d="M13.3334 6.87173C12.9334 4.43288 10.8667 2.56738 8.37506 2.56738C5.85006 2.56738 3.13339 4.71528 3.35006 8.08687C5.40839 7.22258 6.95839 5.33996 7.40006 3.04659C8.49172 5.29718 10.7334 6.84606 13.3334 6.87173Z" fill="#323232"/>
<path d="M15.8251 7.70161C15.7335 3.10632 12.2335 0 8.33346 0C4.49179 0 0.958455 3.02074 0.841789 7.70161H0.00012207V12.836H2.50012V7.8642C2.50012 4.58674 4.95846 1.72003 8.15012 1.6259C11.4501 1.52321 14.1668 4.24444 14.1668 7.61604V13.6918H7.50012V15.4032H15.8335V12.836H16.6668V7.70161H15.8251Z" fill="#323232"/>
</svg>
