<svg flex="1" viewBox="0 0 361 157" preserveAspectRatio="none" fill="none" xmlns="http://www.w3.org/2000/svg">
<g clip-path="url(#clip0_244_1226)">
<path d="M393 12.1325V144.536C392.998 146.563 392.403 148.558 391.269 150.338C390.509 151.532 389.518 152.607 388.339 153.519C388.251 153.589 388.164 153.653 388.076 153.712C387.007 154.512 385.799 155.167 384.496 155.653C383.918 155.872 383.323 156.056 382.715 156.203C382.316 156.3 381.903 156.385 381.491 156.449C380.932 156.544 380.366 156.607 379.798 156.636C379.479 156.658 379.154 156.668 378.823 156.668H235.827L228.672 157L221.912 156.668H-25.8228C-26.1103 156.668 -26.4039 156.663 -26.6851 156.642C-27.4593 156.604 -28.2284 156.511 -28.9844 156.364C-32.1145 155.751 -34.9089 154.248 -36.9101 152.099C-38.9114 149.95 -40.0008 147.284 -40 144.536V12.1325C-39.9955 8.91591 -38.5003 5.83223 -35.8426 3.55779C-33.1848 1.28335 -29.5815 0.00387438 -25.8228 0H378.823C382.581 0.00387438 386.185 1.28335 388.843 3.55779C391.5 5.83223 392.995 8.91591 393 12.1325Z" fill="#F2F2F2"/>
<path d="M84.3062 0C65.82 44.1777 69.3651 97.828 84.3062 156.378H188.017C200.986 97.7613 207.552 42.3494 188.017 0H84.3062Z" fill="#E4E4E4"/>
<path d="M42.4761 0C8.69734 42.5904 18.1213 97.3768 42.4761 156.378H84.3063C69.221 100.638 66.7549 47.9217 84.3063 0H42.4761Z" fill="#CACACA"/>
<path d="M168.844 3.625H153.157V19.6972H168.844V3.625Z" fill="white"/>
<path d="M143.57 3.625H127.883V19.6972H143.57V3.625Z" fill="white"/>
<path d="M118.297 3.625H102.61V19.6972H118.297V3.625Z" fill="white"/>
<path d="M168.408 40.2344H152.721V56.3066H168.408V40.2344Z" fill="white"/>
<path d="M143.135 40.2344H127.448V56.3066H143.135V40.2344Z" fill="white"/>
<path d="M117.861 40.2344H102.174V56.3066H117.861V40.2344Z" fill="white"/>
<path d="M167.972 76.8428H152.285V92.915H167.972V76.8428Z" fill="white"/>
<path d="M142.699 76.8428H127.012V92.915H142.699V76.8428Z" fill="white"/>
<path d="M117.425 76.8428H101.738V92.915H117.425V76.8428Z" fill="white"/>
<path d="M167.537 113.452H151.85V129.524H167.537V113.452Z" fill="white"/>
<path d="M142.263 113.452H126.576V129.524H142.263V113.452Z" fill="white"/>
<path d="M116.99 113.452H101.303V129.524H116.99V113.452Z" fill="white"/>
<path d="M167.102 150.059H151.412V156.378H167.102V150.059Z" fill="white"/>
<path d="M141.827 150.059H126.142V156.378H141.827V150.059Z" fill="white"/>
<path d="M116.551 150.059H100.866V156.378H116.551V150.059Z" fill="white"/>
<path d="M3.43119e-07 83.0624V144.269C-0.000644491 147.011 0.90762 149.673 2.57607 151.818C4.24451 153.963 6.57427 155.463 9.18388 156.075C9.81418 156.222 10.4554 156.315 11.1009 156.352C11.3353 156.373 11.5801 156.379 11.8198 156.379H57.2912C66.8378 127.734 84.3896 4.8039 12.5022 15.4782L3.43119e-07 83.0624Z" fill="#E4E4E4"/>
<path d="M36.8116 113.452H21.1246V129.524H36.8116V113.452Z" fill="white"/>
<path d="M11.5385 113.451H0V129.521H11.5385V113.451Z" fill="white"/>
<path d="M36.3761 150.059H20.691V156.378H36.3761V150.059Z" fill="white"/>
<path d="M1.43774 150.059C2.24226 151.564 3.34825 152.878 4.68321 153.915C6.01816 154.951 7.55192 155.687 9.18388 156.074C9.81418 156.221 10.4554 156.314 11.1009 156.351V150.059H1.43774Z" fill="white"/>
<path d="M361 100.232V144.268C360.998 146.292 360.502 148.282 359.557 150.059L358.744 149.36L357.176 148.015L348.498 140.58L350.654 149.685L348.118 149.824L347.92 149.835L343.315 150.091L339.288 150.315H339.272L333.526 150.635L327.916 150.945L326.046 151.046L314.132 151.708L309.053 151.991L306.751 152.119L300.661 152.455L292.493 152.909L290.977 152.995L267.005 154.323L251.757 155.172L249.392 155.3L249.215 155.311L248.251 155.364H248.246L246.157 155.482L243.157 155.647L238.296 155.914L236.15 156.031L229.962 156.378L223.997 156.709L218.361 156.378L200.186 155.311L188.402 154.617L188.017 154.596L167.102 153.368L151.412 152.445L141.827 151.884L126.142 150.961L118.911 150.539L116.551 150.401L110.748 150.059L84.3062 148.506L82.3371 148.389L82.2278 148.383L72.648 147.823L66.6678 147.471L79.2325 135.51L79.4044 135.345L84.3063 130.68C87.8329 124.195 91.2189 117.647 101.304 114.498L102.403 113.452L117.546 99.036L120.13 98.9987L188.017 98.0807L198.269 97.9419L219.272 97.659L226.883 97.5576L232.504 97.8939L281.2 100.819L284.372 101.011L300.562 101.982L315.544 102.879L322.665 103.306L324.405 103.412L324.52 103.418L325.395 103.471L327.739 103.258L330.62 102.996L331.688 102.9L332.177 102.852L342.434 101.923L343.294 101.843L345.747 101.619L359.958 121.687L361 100.232Z" fill="#3F3D56"/>
<path d="M306.014 147.832C298.797 137.129 293.537 109.951 295.595 98.7306C295.505 98.3644 299.811 104.52 299.825 104.138C299.893 102.253 301.204 100.793 302.753 100.876L322.214 101.921C322.696 101.963 323.158 102.135 323.555 102.418C323.951 102.7 324.269 103.085 324.475 103.533L339.189 132.403C339.422 132.864 339.561 133.369 339.599 133.887C339.742 135.766 338.607 137.43 337.064 137.605L310.971 140.557C310.885 140.567 310.799 140.572 310.712 140.572C309.473 140.569 306.372 149.276 306.014 147.832Z" fill="white"/>
<path d="M223.171 147.732L223.363 148.794L224.103 152.882C224.253 153.713 224.484 154.527 224.794 155.311C224.887 155.556 224.992 155.796 225.103 156.031C225.158 156.148 225.214 156.261 225.276 156.378H278.705L287.573 155.327L287.684 155.311C289.512 155.053 291.21 154.2 292.528 152.877C293.621 151.761 294.489 150.436 295.081 148.976C295.673 147.516 295.978 145.95 295.978 144.369C295.99 143.928 295.977 143.486 295.941 143.046C295.892 142.422 295.798 141.803 295.657 141.194C296.655 129.586 294.025 118.269 287.974 107.228C287.478 104.868 286.263 102.73 284.506 101.123C283.061 99.8129 281.224 99.0483 279.297 98.9557L236.167 97.1411C234.525 97.087 232.904 97.5387 231.514 98.438C228.873 100.114 226.954 103.273 226.578 107.073C222.947 119.018 221.735 131.597 223.017 144.039C222.898 145.271 222.95 146.514 223.171 147.732V147.732Z" fill="white"/>
<path d="M207.381 153.174L96.5634 149.87C95.1703 149.828 74.5662 158.159 73.5659 156.863C71.3755 154.026 71.322 149.355 73.4465 146.43L121.857 97.2422C122.301 96.5766 122.891 96.027 123.58 95.6377C124.269 95.2484 125.037 95.0303 125.823 95.001H215.027C215.449 95.0014 215.868 95.0654 216.272 95.1908C219.245 96.1093 221.098 100.072 220.41 104.042L212.887 147.46C212.3 150.8 210.073 153.165 207.504 153.176C207.463 153.176 207.422 153.175 207.381 153.174Z" fill="white"/>
<path d="M323.23 105.322L229.049 98.6673L117.547 99.037C131.262 84.1772 191.547 66.0598 256.112 87.9457C320.704 90.164 325.395 103.474 325.395 103.474L326.201 104.767L323.23 105.322Z" fill="#5D8BFF"/>
<path d="M360.542 147.598C360.304 148.454 359.974 149.279 359.557 150.059C358.923 151.251 358.097 152.324 357.114 153.234C357.041 153.304 356.968 153.368 356.895 153.427C356.003 154.226 354.997 154.879 353.91 155.364C353.429 155.583 352.932 155.766 352.426 155.914C352.092 156.01 351.748 156.095 351.405 156.159C350.939 156.254 350.467 156.316 349.993 156.346C349.727 156.367 349.456 156.378 349.18 156.378H229.962L223.997 156.709L218.361 156.378H11.8198C11.5802 156.378 11.3353 156.373 11.1009 156.351C10.4555 156.314 9.8142 156.221 9.1839 156.074L11.1009 155.786L14.2785 155.311L20.6911 154.35L36.3761 152.002L42.4761 151.089L57.2912 148.874L59.7656 148.506L66.6678 147.47L72.7574 147.593L82.0768 147.785H82.1914L84.3063 147.828L98.4702 148.116L103.674 148.223L141.848 148.997L145.338 149.066L150.542 149.173L167.112 149.514L188.017 149.936L189.413 149.963L211.797 150.422L212.089 150.427L223.507 149.6L234.681 148.794L243.146 148.185L245.876 147.988L245.98 147.983L246.584 147.94L246.98 147.908L250.304 147.668L262.738 146.771L268.276 146.371L270.661 146.2L273.157 146.019L295.978 144.369L302.334 143.91H302.339L305.813 143.66L312.184 143.201H312.189L318.738 142.726H318.743L321.285 142.544L322.259 142.475L329.677 141.941L334.162 141.615L341.861 141.06L344.242 140.89L347.44 140.655L348.316 140.591L348.498 140.58C348.498 140.58 351.175 140.639 354.666 142.624C355.771 143.255 356.816 143.991 357.786 144.823C358.458 145.396 359.098 146.007 359.703 146.654C359.984 146.953 360.26 147.267 360.542 147.598Z" fill="#5D8BFF"/>
<path d="M242.443 156.378H250.523L249.783 155.674L249.403 155.311L249.392 155.3L247.689 153.683L246.334 152.392L245.235 153.518L244.792 153.971L243.485 155.311L243.157 155.647L242.443 156.378Z" fill="#CACACA"/>
<path d="M286.706 156.378H299.13L301.042 155.31L306.751 152.119L308.095 151.366L318.738 142.725H318.743L321.415 140.559L322.801 139.432L324.515 138.039L332.98 131.17C333.214 130.98 333.432 130.769 333.631 130.541C334.092 130.006 334.441 129.38 334.658 128.702C334.875 128.024 334.954 127.307 334.891 126.597C334.888 126.535 334.879 126.475 334.865 126.415C334.773 125.633 334.508 124.882 334.093 124.22C333.677 123.557 333.12 122.999 332.464 122.588C331.539 122.007 330.458 121.742 329.377 121.831C328.295 121.921 327.269 122.359 326.447 123.085L320.238 128.449L317.758 130.589L308.158 138.883L302.339 143.91H302.334L301.224 144.871L290.977 152.994L288.05 155.31L286.706 156.378Z" fill="#FFB6B6"/>
<path d="M329.721 137.63C330.049 137.676 330.382 137.61 330.67 137.443C330.958 137.277 331.185 137.017 331.315 136.706C331.483 136.324 331.763 136.006 332.116 135.796C332.185 135.756 332.256 135.721 332.329 135.69C332.774 135.519 333.173 135.239 333.49 134.876C333.807 134.512 334.035 134.076 334.152 133.604C334.517 132.043 335.688 130.529 336.865 129.361C338.152 128.083 339.526 126.858 340.478 125.301C341.85 123.056 342.235 119.906 339.587 118.032C338.449 117.254 337.083 116.901 335.721 117.033C332.868 117.271 330.509 119.054 328.268 120.783L328.829 119.654C326.414 121.586 323.642 122.997 320.681 123.805C321.194 124.282 320.75 125.236 320.092 125.458C319.434 125.68 318.726 125.446 318.048 125.299C317.195 125.113 316.139 125.129 315.802 126.173C315.729 126.426 315.707 126.691 315.738 126.952C315.769 127.213 315.852 127.465 315.983 127.692C318.362 132.028 321.59 135.813 325.465 138.81C326.326 139.475 327.325 140.13 328.396 140C329.467 139.87 330.378 138.506 329.721 137.63Z" fill="#5D8BFF"/>
<path d="M327.359 146.462L327.916 150.945L328.458 155.311L328.515 155.775L328.593 156.378H349.18C349.456 156.378 349.727 156.368 349.993 156.346C350.467 156.317 350.939 156.254 351.405 156.16L351.639 155.023L351.774 154.345L343.164 151.564L339.288 150.315H339.277L333.678 148.501L327.359 146.462Z" fill="#FFB6B6"/>
<path d="M319.363 135.927C319.785 136.882 320.352 138.158 320.988 139.604C321.129 139.914 321.269 140.234 321.415 140.559C321.686 141.178 321.967 141.819 322.259 142.475C323.546 145.395 324.947 148.565 326.046 151.047C326.958 153.123 327.666 154.724 327.921 155.311C327.999 155.477 328.036 155.562 328.036 155.562L328.515 155.775L329.885 156.379H349.18C349.456 156.379 349.727 156.368 349.993 156.347C350.467 156.317 350.939 156.254 351.405 156.16C351.748 156.096 352.092 156.01 352.426 155.914C352.932 155.767 353.429 155.583 353.91 155.365C354.997 154.88 356.003 154.227 356.895 153.427C356.937 153.059 357.02 152.466 357.109 151.746C357.248 150.67 357.323 149.586 357.333 148.501C357.333 147.631 355.249 146.222 354.666 142.625C354.469 141.311 354.468 139.974 354.66 138.659C355.739 130.558 355.358 118.159 347.737 115.736L342.257 105.905H331.802L330.104 111.034V111.04L329.13 113.98L328.546 115.736L328.421 115.907L324.692 120.919C324.692 120.919 324.098 121.693 323.285 122.915V122.92C322.112 124.668 321.093 126.518 320.238 128.449C319.68 129.701 319.277 131.018 319.04 132.372C318.807 133.564 318.919 134.799 319.363 135.927Z" fill="#2F2E41"/>
<path d="M341.396 95.9966C333.714 101.984 325.159 106.748 323.547 113.337C323.547 113.337 324.513 102.985 320.007 104.947C312.437 108.244 314.998 90.3139 317.121 87.3819C320.659 82.4954 332.591 79.7188 332.591 79.7188L341.055 84.4792L341.396 95.9966Z" fill="#2F2E41"/>
<path d="M328.02 103.262C335.347 103.262 341.286 97.1764 341.286 89.6696C341.286 82.1627 335.347 76.0771 328.02 76.0771C320.693 76.0771 314.753 82.1627 314.753 89.6696C314.753 97.1764 320.693 103.262 328.02 103.262Z" fill="#FFB6B6"/>
<path d="M332.798 84.4689L333.308 86.7662L324.384 88.8477C324.376 88.3831 324.274 87.9252 324.085 87.5027C323.897 87.0801 323.625 86.7022 323.286 86.3925C323.479 87.2933 323.457 88.2284 323.222 89.1186C318.409 91.8857 318.686 92.8659 314.796 92.1603C314.535 92.2212 314.265 92.2288 314.001 92.1827C313.737 92.1366 313.485 92.0378 313.259 91.8918C313.032 91.7458 312.836 91.5555 312.681 91.3318C312.526 91.1081 312.416 90.8553 312.357 90.588C310.792 83.5445 310.277 76.3455 317.118 74.5971C318.781 74.1712 320.51 74.0896 322.204 74.3573C323.898 74.6249 325.523 75.2364 326.984 76.1558C328.444 77.0753 329.71 78.2842 330.709 79.7117C331.707 81.1392 332.417 82.7565 332.798 84.4689V84.4689Z" fill="#2F2E41"/>
<path d="M330.615 93.6346C330.178 91.6725 329.321 89.8342 328.107 88.2524C326.893 86.6705 325.351 85.3845 323.592 84.4872C321.834 83.5899 319.903 83.1036 317.94 83.0634C315.976 83.0232 314.028 83.43 312.236 84.2547C312.856 82.3779 314.113 80.7909 315.777 79.781L325.822 75.3127C330.777 74.157 338.62 70.8768 342.199 74.0181C345.497 76.9037 343.892 82.5523 346.928 85.7158C350.256 89.1827 350.539 93.2821 349.595 95.6399C348.503 98.3676 346.319 102.089 343.593 102.895C343.451 101.935 342.984 101.057 342.273 100.414C342.47 101.329 342.487 102.275 342.324 103.197L325.822 116.681C327.363 115.307 328.676 111.769 329.58 107.783C330.116 105.424 333.31 104.596 330.719 100.592C328.129 96.5878 330.966 95.2175 330.615 93.6346Z" fill="#2F2E41"/>
<path d="M343.832 78.595L343.785 78.6899C343.729 78.8164 343.672 78.9428 343.626 79.0746L343.621 79.0798C343.369 79.1747 343.086 79.0219 342.808 78.7794C342.851 79.3493 342.882 79.9008 342.905 80.4413L334.12 76.9192C335.648 77.1894 335.874 71.6202 336.97 72.6874C337.032 72.7453 337.088 72.8033 337.145 72.8613C337.008 72.5255 336.915 72.173 336.867 71.8126C336.82 71.3602 336.855 70.9029 336.97 70.4635C336.972 70.4614 336.973 70.4589 336.974 70.4561C336.975 70.4534 336.975 70.4505 336.975 70.4476C337.084 70.0503 337.255 69.6732 337.479 69.3304C337.803 68.8318 338.212 68.3979 338.688 68.0498C339.294 67.5748 340.002 67.2529 340.752 67.1101C341.503 66.9673 342.276 67.0076 343.009 67.2277C344.687 67.8781 346.074 69.1362 346.907 70.7638C347.667 72.0165 348.055 73.4685 348.024 74.9429C347.992 75.3299 347.911 75.7109 347.782 76.076C347.621 76.5887 347.348 77.0566 346.982 77.4433C346.616 77.8299 346.168 78.1249 345.673 78.3052C345.549 78.3473 345.405 78.3947 345.251 78.4527C345.169 77.767 345.164 77.0738 345.236 76.3869C344.664 77.0479 344.191 77.792 343.832 78.595V78.595Z" fill="#2F2E41"/>
<path d="M335.324 76.5606C335.335 76.8545 335.37 77.1471 335.427 77.4354C335.431 77.4727 335.438 77.5097 335.447 77.5461C335.807 79.185 337.757 75.7754 339.264 76.919C340.203 77.6123 341.245 78.1461 342.35 78.5C342.396 78.3682 342.808 78.6264 342.865 78.5C342.88 78.4683 342.849 78.0046 342.865 77.973C341.925 77.6022 341.054 77.0673 340.293 76.392C338.878 75.3221 339.079 76.3235 338.75 74.811C338.369 73.0666 336.126 73.8149 337.279 72.9876L337.145 72.7979C336.327 73.3767 335.723 74.2216 335.432 75.1957C335.432 75.1985 335.432 75.2015 335.431 75.2042C335.43 75.2069 335.429 75.2094 335.427 75.2115C335.341 75.6555 335.306 76.1083 335.324 76.5606V76.5606Z" fill="#5D8BFF"/>
<path d="M333.12 156.378H342.679L342.788 155.311L343.164 151.564L343.315 150.091L343.961 143.681L344.242 140.89L344.862 134.736L345.07 132.665C345.203 131.294 344.804 129.924 343.96 128.851C343.117 127.778 341.895 127.087 340.559 126.928C340.365 126.905 340.17 126.893 339.975 126.891H339.96C339.723 126.893 339.486 126.909 339.251 126.939C338.047 127.116 336.943 127.725 336.136 128.657C335.374 129.532 334.922 130.646 334.855 131.817L334.85 131.897V131.902L334.396 138.328L334.162 141.616L334.037 143.436L333.678 148.501L333.526 150.636L333.198 155.311L333.12 156.378Z" fill="#FFB6B6"/>
<path d="M347.305 139.568C347.566 139.359 347.753 139.069 347.838 138.741C347.922 138.413 347.899 138.066 347.772 137.753C347.623 137.363 347.596 136.936 347.695 136.53C347.715 136.452 347.74 136.375 347.77 136.3C347.961 135.854 348.044 135.366 348.012 134.88C347.979 134.393 347.833 133.922 347.585 133.506C346.749 132.149 346.508 130.233 346.513 128.555C346.519 126.718 346.621 124.855 346.198 123.07C345.587 120.496 343.653 118.014 340.496 118.649C339.157 118.941 337.957 119.696 337.099 120.788C335.274 123.047 334.873 126.023 334.517 128.873L334.12 127.674C333.784 130.794 332.836 133.813 331.333 136.549C332.024 136.506 332.381 137.498 332.077 138.135C331.773 138.772 331.115 139.129 330.539 139.523C329.814 140.02 329.088 140.805 329.583 141.781C329.708 142.011 329.877 142.213 330.082 142.372C330.286 142.532 330.52 142.646 330.77 142.709C335.461 143.991 340.36 144.265 345.159 143.514C346.225 143.346 347.38 143.07 348.037 142.194C348.693 141.317 348.376 139.697 347.305 139.568Z" fill="#5D8BFF"/>
<path d="M245.876 150.71C245.876 152.213 246.459 153.655 247.496 154.718C248.534 155.781 249.941 156.378 251.408 156.378H262.743C264.211 156.378 265.618 155.781 266.655 154.718C267.693 153.655 268.276 152.213 268.276 150.71V146.389C268.276 145.474 268.06 144.573 267.646 143.763C267.232 142.952 266.633 142.256 265.9 141.734C265.167 141.212 264.322 140.88 263.436 140.765C262.55 140.651 261.651 140.758 260.814 141.077L249.479 145.398C248.421 145.801 247.509 146.526 246.865 147.476C246.221 148.425 245.876 149.554 245.876 150.71V150.71Z" fill="#CACACA"/>
</g>
<defs>
<clipPath id="clip0_244_1226">
<rect width="361" height="157" fill="white"/>
</clipPath>
</defs>
</svg>
