<svg width="45" height="60" viewBox="0 0 45 60" fill="none" xmlns="http://www.w3.org/2000/svg">
<path d="M7.99206 24.0059C7.99206 25.1093 7.09751 26.0039 5.99402 26.0039V26.0039C4.89053 26.0039 3.99597 25.1093 3.99597 24.0059V18C3.99597 5.85937 11.9999 0 21.996 0C30.996 0 39.7967 5.56641 39.7967 15.7969V24.0059C39.7967 25.1093 38.9022 26.0039 37.7987 26.0039V26.0039C36.6952 26.0039 35.8007 25.1093 35.8007 24.0059V16.1953C35.8007 8.67187 29.0038 3.99609 21.996 3.99609C14.1913 3.99609 7.99206 8.37891 7.99206 18V24.0059Z" fill="white"/>
<path d="M37.9922 59.999H6C2.60156 59.999 0 57.3975 0 53.999V29.999C0 26.6006 2.60156 23.999 6 23.999H38.0039C41.4023 23.999 44.0039 26.6006 44.0039 29.999V53.999C43.9922 57.3975 41.3906 59.999 37.9922 59.999ZM6 27.9951C4.80469 27.9951 3.99609 28.792 3.99609 29.999V53.999C3.99609 55.1943 4.79297 56.0029 6 56.0029H38.0039C39.1992 56.0029 40.0078 55.2061 40.0078 53.999V29.999C40.0078 28.8037 39.2109 27.9951 38.0039 27.9951H6Z" fill="white"/>
<circle cx="21.9375" cy="41.8945" r="5.68359" fill="white"/>
</svg>
