<svg width="274" height="235" viewBox="0 0 274 235" fill="none" xmlns="http://www.w3.org/2000/svg">
<g clip-path="url(#clip0_546_2207)">
<path d="M20.575 215.657C22.1539 216.212 23.8491 216.351 25.4972 216.061C27.1454 215.771 28.6911 215.061 29.9853 214.001C33.2812 211.235 34.3148 206.681 35.1554 202.464L37.6424 189.988L32.4356 193.571C28.691 196.148 24.8623 198.807 22.2698 202.54C19.6773 206.272 18.5463 211.368 20.6287 215.407" fill="#E6E6E6"/>
<path d="M21.3789 231.63C20.7236 226.858 20.0493 222.025 20.5101 217.201C20.9185 212.918 22.2261 208.735 24.8881 205.303C26.301 203.486 28.0204 201.929 29.9688 200.702C30.4767 200.381 30.9443 201.186 30.4386 201.505C27.0672 203.634 24.4595 206.779 22.9915 210.485C21.3703 214.606 21.1099 219.099 21.3892 223.478C21.558 226.125 21.9167 228.755 22.2769 231.383C22.3054 231.501 22.2876 231.626 22.2273 231.733C22.1669 231.839 22.0684 231.918 21.9518 231.955C21.8327 231.987 21.7059 231.971 21.5987 231.91C21.4915 231.849 21.4127 231.748 21.3793 231.63L21.3789 231.63Z" fill="#F2F2F2"/>
<path d="M26.0961 223.973C26.7731 225.002 27.7039 225.839 28.7986 226.404C29.8934 226.969 31.1153 227.243 32.3466 227.199C35.5116 227.048 38.1491 224.842 40.5231 222.746L47.5466 216.548L42.8984 216.325C39.5556 216.165 36.1266 216.015 32.9427 217.047C29.7588 218.078 26.8225 220.557 26.2404 223.851" fill="#E6E6E6"/>
<path d="M19.5266 234.374C22.6816 228.794 26.3409 222.593 32.88 220.611C34.698 220.062 36.6043 219.865 38.4963 220.031C39.0927 220.083 38.9437 221.001 38.3486 220.95C35.1771 220.687 32.0118 221.524 29.3855 223.32C26.8582 225.039 24.8903 227.43 23.2249 229.965C22.2047 231.518 21.2909 233.136 20.3771 234.753C20.0851 235.269 19.2312 234.896 19.5266 234.374Z" fill="#F2F2F2"/>
<path d="M271.978 165.494H98.0356C97.4997 165.493 96.9858 165.28 96.6068 164.901C96.2278 164.522 96.0146 164.009 96.0139 163.473V2.02068C96.0146 1.48498 96.2279 0.971413 96.6068 0.592615C96.9858 0.213818 97.4997 0.000700296 98.0356 0H271.978C272.514 0.000700296 273.028 0.213818 273.407 0.592615C273.786 0.971413 273.999 1.48498 274 2.02068V163.473C273.999 164.008 273.786 164.522 273.407 164.901C273.028 165.28 272.514 165.493 271.978 165.493V165.494Z" fill="white"/>
<path d="M271.978 165.494H98.0356C97.4997 165.493 96.9858 165.28 96.6068 164.901C96.2278 164.522 96.0146 164.009 96.0139 163.473V2.02068C96.0146 1.48498 96.2279 0.971413 96.6068 0.592615C96.9858 0.213818 97.4997 0.000700296 98.0356 0H271.978C272.514 0.000700296 273.028 0.213818 273.407 0.592615C273.786 0.971413 273.999 1.48498 274 2.02068V163.473C273.999 164.008 273.786 164.522 273.407 164.901C273.028 165.28 272.514 165.493 271.978 165.493V165.494ZM98.0356 0.806678C97.7144 0.807375 97.4066 0.935225 97.1794 1.16225C96.9523 1.38926 96.8244 1.69697 96.8237 2.01802V163.473C96.8244 163.794 96.9523 164.101 97.1794 164.328C97.4066 164.555 97.7144 164.683 98.0356 164.684H271.978C272.3 164.683 272.607 164.555 272.835 164.328C273.062 164.101 273.19 163.794 273.19 163.473V2.02068C273.19 1.69962 273.062 1.39192 272.834 1.1649C272.607 0.937877 272.299 0.810027 271.978 0.80933L98.0356 0.806678Z" fill="#CACACA"/>
<path d="M180.227 41.9539C179.863 41.9545 179.515 42.0993 179.258 42.3565C179.001 42.6137 178.856 42.9623 178.856 43.3257C178.856 43.6891 179.001 44.0377 179.258 44.2949C179.515 44.5521 179.863 44.6969 180.227 44.6975H255.541C255.905 44.6969 256.253 44.5521 256.51 44.2949C256.767 44.0377 256.912 43.6891 256.912 43.3257C256.912 42.9623 256.767 42.6137 256.51 42.3565C256.253 42.0993 255.905 41.9545 255.541 41.9539H180.227Z" fill="#E4E4E4"/>
<path d="M180.227 50.1857C179.863 50.1865 179.515 50.3315 179.258 50.5886C179.002 50.8458 178.857 51.1943 178.857 51.5575C178.857 51.9208 179.002 52.2692 179.258 52.5264C179.515 52.7836 179.863 52.9285 180.227 52.9294H218.676C219.04 52.9285 219.388 52.7836 219.645 52.5264C219.901 52.2692 220.046 51.9208 220.046 51.5575C220.046 51.1943 219.901 50.8458 219.645 50.5886C219.388 50.3315 219.04 50.1865 218.676 50.1857H180.227Z" fill="#E4E4E4"/>
<path d="M114.399 94.4536C114.036 94.4545 113.688 94.5994 113.431 94.8566C113.174 95.1138 113.03 95.4622 113.03 95.8255C113.03 96.1887 113.174 96.5372 113.431 96.7943C113.688 97.0515 114.036 97.1964 114.399 97.1973H255.615C255.978 97.1964 256.326 97.0515 256.583 96.7943C256.84 96.5372 256.984 96.1887 256.984 95.8255C256.984 95.4622 256.84 95.1138 256.583 94.8566C256.326 94.5994 255.978 94.4545 255.615 94.4536H114.399Z" fill="#E4E4E4"/>
<path d="M114.399 102.686C114.036 102.686 113.688 102.831 113.431 103.089C113.174 103.346 113.03 103.694 113.03 104.057C113.03 104.421 113.174 104.769 113.431 105.026C113.688 105.283 114.036 105.428 114.399 105.429H218.75C219.113 105.428 219.461 105.283 219.718 105.026C219.975 104.769 220.119 104.421 220.119 104.057C220.119 103.694 219.975 103.346 219.718 103.089C219.461 102.831 219.113 102.686 218.75 102.686H114.399Z" fill="#E4E4E4"/>
<path d="M114.399 110.731C114.036 110.732 113.688 110.877 113.431 111.134C113.174 111.391 113.03 111.74 113.03 112.103C113.03 112.466 113.174 112.815 113.431 113.072C113.688 113.329 114.036 113.474 114.399 113.475H255.615C255.978 113.474 256.326 113.329 256.583 113.072C256.84 112.815 256.984 112.466 256.984 112.103C256.984 111.74 256.84 111.391 256.583 111.134C256.326 110.877 255.978 110.732 255.615 110.731H114.399Z" fill="#E4E4E4"/>
<path d="M114.399 118.963C114.036 118.964 113.688 119.109 113.431 119.366C113.174 119.623 113.03 119.971 113.03 120.335C113.03 120.698 113.174 121.046 113.431 121.304C113.688 121.561 114.036 121.706 114.399 121.707H218.75C219.113 121.706 219.461 121.561 219.718 121.304C219.975 121.046 220.119 120.698 220.119 120.335C220.119 119.971 219.975 119.623 219.718 119.366C219.461 119.109 219.113 118.964 218.75 118.963H114.399Z" fill="#E4E4E4"/>
<path d="M114.399 127.223C114.036 127.224 113.688 127.369 113.431 127.626C113.174 127.883 113.03 128.231 113.03 128.595C113.03 128.958 113.174 129.306 113.431 129.563C113.688 129.821 114.036 129.966 114.399 129.966H255.615C255.978 129.966 256.326 129.821 256.583 129.563C256.84 129.306 256.984 128.958 256.984 128.595C256.984 128.231 256.84 127.883 256.583 127.626C256.326 127.369 255.978 127.224 255.615 127.223H114.399Z" fill="#E4E4E4"/>
<path d="M114.399 135.455C114.036 135.455 113.688 135.6 113.431 135.858C113.174 136.115 113.03 136.463 113.03 136.826C113.03 137.19 113.174 137.538 113.431 137.795C113.688 138.052 114.036 138.197 114.399 138.198H218.75C219.113 138.197 219.461 138.052 219.718 137.795C219.975 137.538 220.119 137.19 220.119 136.826C220.119 136.463 219.975 136.115 219.718 135.858C219.461 135.6 219.113 135.455 218.75 135.455H114.399Z" fill="#E4E4E4"/>
<path d="M136.766 67.1512C132.866 67.1512 129.054 65.9953 125.811 63.8296C122.568 61.6639 120.04 58.5857 118.548 54.9843C117.055 51.3828 116.664 47.4198 117.425 43.5965C118.186 39.7732 120.064 36.2613 122.822 33.5048C125.58 30.7484 129.094 28.8712 132.919 28.1107C136.744 27.3502 140.709 27.7405 144.313 29.2322C147.916 30.724 150.996 33.2502 153.163 36.4915C155.329 39.7327 156.486 43.5434 156.486 47.4416C156.48 52.667 154.401 57.6768 150.704 61.3718C147.007 65.0668 141.995 67.1452 136.766 67.1512V67.1512Z" fill="#5D8BFF"/>
<path d="M76.9063 141.675C76.8722 140.955 76.6807 140.252 76.3453 139.615C76.0098 138.977 75.5387 138.421 74.9649 137.985C74.3912 137.549 73.7289 137.245 73.0245 137.093C72.3202 136.94 71.5911 136.944 70.8885 137.104L64.3704 127.923L57.822 130.521L67.2091 143.358C67.5561 144.52 68.3175 145.514 69.349 146.152C70.3804 146.791 71.6104 147.029 72.8057 146.821C74.0009 146.614 75.0786 145.975 75.8344 145.027C76.5901 144.078 76.9715 142.885 76.9063 141.675H76.9063Z" fill="#A0616A"/>
<path d="M64.2027 140.994L44.4797 115.421L51.8697 92.2073C52.4113 86.3711 56.0652 84.7414 56.2207 84.6748L56.4579 84.5731L62.8885 101.713L58.1669 114.298L69.756 133.779L64.2027 140.994Z" fill="#3F3D56"/>
<path d="M132.697 62.1601C131.982 62.2497 131.295 62.4949 130.686 62.8785C130.076 63.262 129.557 63.7745 129.167 64.3799C128.777 64.9853 128.524 65.6689 128.427 66.3825C128.329 67.0961 128.389 67.8224 128.603 68.5102L119.949 75.7153L123.047 82.0398L135.126 71.6931C136.258 71.2575 137.191 70.422 137.748 69.3447C138.305 68.2675 138.447 67.0235 138.148 65.8485C137.848 64.6734 137.128 63.6489 136.124 62.9691C135.119 62.2893 133.9 62.0015 132.697 62.1601V62.1601Z" fill="#A0616A"/>
<path d="M133.001 74.8719L109.015 96.5029L85.2881 90.9336C79.4245 90.8452 77.5163 87.3301 77.4379 87.1803L77.3181 86.9518L93.9185 79.2185L106.837 82.9505L125.374 69.8959L133.001 74.8719Z" fill="#3F3D56"/>
<path d="M91.4548 228.647L97.8992 228.646L100.965 203.802L91.4536 203.803L91.4548 228.647Z" fill="#A0616A"/>
<path d="M110.328 234.627L90.074 234.628L90.0737 226.806L104.645 226.806C106.152 226.806 107.597 227.404 108.663 228.469C109.729 229.534 110.327 230.979 110.327 232.485L110.328 234.627L110.328 234.627Z" fill="#2F2E41"/>
<path d="M65.6979 228.647L72.1423 228.646L75.2081 203.802L65.6971 203.803L65.6979 228.647Z" fill="#A0616A"/>
<path d="M84.5709 234.627L64.3174 234.628L64.3171 226.806L78.8884 226.806C79.6346 226.806 80.3735 226.953 81.0629 227.238C81.7523 227.523 82.3787 227.942 82.9064 228.469C83.434 228.996 83.8526 229.622 84.1382 230.311C84.4238 231 84.5708 231.739 84.5708 232.485L84.5709 234.627V234.627Z" fill="#2F2E41"/>
<path d="M63.406 137.964L63.9316 174.74L64.4576 223.074L76.0214 222.024L81.8038 155.302L89.1629 222.024H101.101L102.304 154.776L98.0988 140.066L63.406 137.964Z" fill="#2F2E41"/>
<path d="M86.0401 142.903C73.4575 142.904 61.8754 137.212 61.7191 137.133L61.5892 137.069L60.5333 111.741C60.2271 110.846 54.1978 93.1855 53.1766 87.5722C52.142 81.885 67.1368 76.8938 68.9577 76.3101L69.3709 71.735L86.1744 69.9253L88.3042 75.7793L94.3326 78.0386C95.016 78.2949 95.5816 78.7929 95.9222 79.4382C96.2628 80.0835 96.3548 80.8313 96.1807 81.5398L92.8301 95.158L101.013 140.214L99.2514 140.29C95.0287 142.196 90.4711 142.902 86.0401 142.903Z" fill="#3F3D56"/>
<path d="M84.2335 65.5457C90.0965 62.3423 92.2513 54.995 89.0462 49.135C85.8412 43.275 78.4901 41.1214 72.6271 44.3248C66.764 47.5281 64.6093 54.8755 67.8143 60.7355C71.0194 66.5955 78.3705 68.7491 84.2335 65.5457Z" fill="#A0616A"/>
<path d="M68.6313 66.6417C70.937 69.0965 75.219 67.7787 75.5194 64.4251C75.543 64.1647 75.5413 63.9027 75.5144 63.6426C75.3592 62.1571 74.5006 60.8085 74.7062 59.24C74.7528 58.8496 74.8983 58.4776 75.129 58.1592C76.9663 55.7001 81.2794 59.2591 83.0134 57.0329C84.0767 55.6679 82.8268 53.5187 83.6428 51.993C84.7197 49.9794 87.9094 50.9727 89.9098 49.87C92.1353 48.643 92.0022 45.2301 90.5372 43.1542C88.7505 40.6225 85.6179 39.2716 82.5243 39.077C79.4308 38.8823 76.3585 39.7181 73.4704 40.843C70.1889 42.1212 66.9348 43.8877 64.9154 46.7716C62.4596 50.2788 62.2233 54.9939 63.4515 59.0949C64.1986 61.5896 66.7484 64.6371 68.6313 66.6417Z" fill="#2F2E41"/>
<path d="M153.734 234.938H0.402445C0.29571 234.938 0.19334 234.896 0.117867 234.82C0.0423939 234.745 0 234.643 0 234.536C0 234.429 0.0423939 234.327 0.117867 234.252C0.19334 234.176 0.29571 234.134 0.402445 234.134H153.734C153.841 234.134 153.943 234.176 154.019 234.252C154.094 234.327 154.136 234.429 154.136 234.536C154.136 234.643 154.094 234.745 154.019 234.82C153.943 234.896 153.841 234.938 153.734 234.938Z" fill="#CACACA"/>
<path d="M135.628 54.8859C135.272 54.8863 134.929 54.7518 134.669 54.5096L128.167 48.4731C127.894 48.2189 127.732 47.8666 127.719 47.4937C127.705 47.1209 127.84 46.7579 128.094 46.4845C128.348 46.2111 128.701 46.0496 129.074 46.0357C129.447 46.0217 129.81 46.1564 130.084 46.41L135.592 51.5232L146.488 40.6322C146.619 40.5006 146.774 40.3962 146.946 40.3248C147.117 40.2533 147.3 40.2164 147.486 40.2161C147.671 40.2157 147.855 40.252 148.026 40.3228C148.198 40.3935 148.353 40.4974 148.484 40.6285C148.615 40.7596 148.719 40.9152 148.79 41.0865C148.861 41.2578 148.897 41.4414 148.897 41.6268C148.896 41.8121 148.859 41.9955 148.788 42.1666C148.716 42.3376 148.612 42.4928 148.48 42.6233L136.624 54.4736C136.493 54.6045 136.338 54.7083 136.167 54.779C135.996 54.8498 135.813 54.8861 135.628 54.8859V54.8859Z" fill="white"/>
</g>
<defs>
<clipPath id="clip0_546_2207">
<rect width="274" height="235" fill="white"/>
</clipPath>
</defs>
</svg>
