<svg width="322" height="266" viewBox="0 0 322 266" fill="none" xmlns="http://www.w3.org/2000/svg">
<g clip-path="url(#clip0_491_1644)">
<path d="M240.05 255.182C250.209 263.042 262.972 266.767 275.771 265.608C288.57 264.448 300.454 258.489 309.03 248.932C317.605 239.374 322.237 226.927 321.991 214.097C321.745 201.266 316.64 189.005 307.704 179.782L240.05 255.182Z" fill="#F2F2F2"/>
<path d="M115.76 79.0737L52.953 148.21C56.3804 155.648 61.553 162.151 68.0325 167.169L135.686 91.7692C130.135 86.0331 123.309 81.6838 115.76 79.0737V79.0737Z" fill="#F2F2F2"/>
<path d="M115.508 79.1101V38.6831H82.4547V78.9851C93.1813 75.3648 104.809 75.4088 115.508 79.1101Z" fill="#5D8BFF"/>
<path d="M82.4547 174.408V215.774H115.508V174.283C104.809 177.984 93.1813 178.028 82.4547 174.408V174.408Z" fill="#5D8BFF"/>
<path d="M99.1589 177.624C71.0369 177.624 48.1578 154.778 48.1578 126.697C48.1578 98.6153 71.0369 75.7695 99.1589 75.7695C127.281 75.7695 150.16 98.6153 150.16 126.697C150.16 154.778 127.281 177.624 99.1589 177.624ZM99.1589 76.1244C71.2328 76.1244 48.5132 98.811 48.5132 126.697C48.5132 154.582 71.2328 177.269 99.1589 177.269C127.085 177.269 149.805 154.582 149.805 126.697C149.805 98.811 127.085 76.1244 99.1589 76.1244Z" fill="black"/>
<path d="M63.2627 126.697C63.2627 136.203 67.0446 145.32 73.7765 152.042C80.5083 158.764 89.6387 162.541 99.1589 162.541V90.8525C89.6387 90.8525 80.5083 94.629 73.7765 101.351C67.0446 108.073 63.2627 117.19 63.2627 126.697V126.697Z" fill="#575A89"/>
<path d="M99.1589 90.8525V162.541C108.679 162.541 117.81 158.764 124.541 152.042C131.273 145.32 135.055 136.203 135.055 126.697C135.055 117.19 131.273 108.073 124.541 101.351C117.81 94.629 108.679 90.8525 99.1589 90.8525V90.8525Z" fill="#5D8BFF"/>
<path d="M99.1589 133.439C101.907 133.439 104.135 131.215 104.135 128.471C104.135 125.727 101.907 123.502 99.1589 123.502C96.4109 123.502 94.1832 125.727 94.1832 128.471C94.1832 131.215 96.4109 133.439 99.1589 133.439Z" fill="#2F2E41"/>
<path d="M99.1505 110.25L100.39 120.07L101.63 129.89H99.1505H96.6711L97.9108 120.07L99.1505 110.25Z" fill="#2F2E41"/>
<path d="M128.827 128.75L112.651 129.354L96.4763 129.957L96.4852 128.547L96.4941 127.136L112.66 127.943L128.827 128.75Z" fill="#2F2E41"/>
<path d="M151.937 130.955C151.114 130.955 150.782 130.39 150.361 129.676C150.256 129.497 150.142 129.304 150.01 129.099L150.31 128.907C150.444 129.116 150.561 129.314 150.668 129.496C151.087 130.208 151.318 130.6 151.937 130.6C153.995 130.6 155.669 127.177 155.669 122.97C155.669 118.763 153.995 115.34 151.937 115.34C150.749 115.34 149.923 116.072 149.259 117.713L148.929 117.58C149.655 115.785 150.583 114.985 151.937 114.985C154.191 114.985 156.024 118.567 156.024 122.97C156.024 127.373 154.191 130.955 151.937 130.955Z" fill="black"/>
<path d="M104.135 253.393C130.83 253.393 152.47 252.598 152.47 251.618C152.47 250.638 130.83 249.844 104.135 249.844C77.4396 249.844 55.7991 250.638 55.7991 251.618C55.7991 252.598 77.4396 253.393 104.135 253.393Z" fill="#F2F2F2"/>
<path d="M275.086 64.2355C279.208 64.2355 282.55 60.8988 282.55 56.7828C282.55 52.6668 279.208 49.3301 275.086 49.3301C270.964 49.3301 267.623 52.6668 267.623 56.7828C267.623 60.8988 270.964 64.2355 275.086 64.2355Z" fill="#F2F2F2"/>
<path d="M50.8234 2.10963e-05C42.3057 0.00316935 33.9252 2.14314 26.4516 6.22342C18.9781 10.3037 12.6508 16.1935 8.05103 23.352C3.45121 30.5105 0.726219 38.7083 0.126281 47.1925C-0.473657 55.6768 1.07069 64.1755 4.6175 71.9084L67.4243 2.7721C62.0838 0.931784 56.473 -0.00512649 50.8234 2.10963e-05V2.10963e-05Z" fill="#F2F2F2"/>
<path d="M219.691 94.2935C225.822 94.2935 230.793 89.3301 230.793 83.2075C230.793 77.0849 225.822 72.1216 219.691 72.1216C213.559 72.1216 208.589 77.0849 208.589 83.2075C208.589 89.3301 213.559 94.2935 219.691 94.2935Z" fill="#2F2E41"/>
<path d="M201.013 152.704C201.013 152.704 209.877 175.065 210.81 175.065C211.743 175.065 213.143 166.679 213.143 166.679L207.544 150.841L201.013 152.704Z" fill="#FFB9B9"/>
<path d="M214.076 91.6785C214.076 91.6785 216.408 101.461 215.475 103.325C214.542 105.188 217.341 107.983 217.341 107.983H223.873L228.538 100.529L229.471 97.2686C229.471 97.2686 226.672 89.8151 227.138 88.8834C227.605 87.9517 214.076 91.6785 214.076 91.6785Z" fill="#FFB9B9"/>
<path opacity="0.1" d="M214.076 91.6785C214.076 91.6785 216.408 101.461 215.475 103.325C214.542 105.188 217.341 107.983 217.341 107.983H223.873L228.538 100.529L229.471 97.2686C229.471 97.2686 226.672 89.8151 227.138 88.8834C227.605 87.9517 214.076 91.6785 214.076 91.6785Z" fill="black"/>
<path d="M240.201 250.065V255.19L246.266 256.587L246.732 250.065H240.201Z" fill="#575A89"/>
<path d="M215.475 158.294C215.475 158.294 208.944 169.94 211.277 175.996C213.609 182.052 222.473 211.866 222.473 211.866C222.473 211.866 227.605 228.636 227.605 229.568C227.605 230.5 231.803 250.997 233.203 251.463C234.603 251.928 247.199 253.326 247.665 251.928C248.132 250.531 248.598 243.077 247.199 241.68C245.799 240.282 238.335 196.959 238.335 196.959L237.402 182.518L249.065 218.388C249.065 218.388 252.33 239.817 253.73 241.214C255.13 242.612 250.931 244.009 252.33 245.407C253.73 246.804 258.862 250.531 258.395 251.928C257.929 253.326 269.592 253.326 270.991 252.394C272.391 251.463 271.924 237.021 271.924 237.021L265.393 217.456L257.929 169.94C257.929 169.94 255.596 155.965 253.73 155.965C251.864 155.965 215.475 158.294 215.475 158.294Z" fill="#2F2E41"/>
<path d="M241.6 253.326C241.6 253.326 237.868 250.065 236.002 250.997C234.136 251.929 228.071 260.78 226.205 260.314C224.339 259.848 221.54 265.327 226.205 265.793C230.87 266.259 238.335 265.327 238.335 265.327C239.878 265.583 241.436 265.739 243 265.793C244.866 265.793 249.065 266.259 249.065 265.793C249.065 265.327 248.132 254.724 247.665 254.724C247.199 254.724 242.067 254.724 241.6 253.326Z" fill="#2F2E41"/>
<path d="M267.259 250.065C267.259 250.065 262.594 249.134 262.127 250.065C261.661 250.997 259.795 253.792 259.795 254.258C259.795 254.724 260.728 260.314 260.728 260.78C260.728 261.246 261.661 262.643 262.594 263.575C262.858 263.797 263.044 264.097 263.128 264.431C263.212 264.766 263.188 265.118 263.06 265.438C263.06 265.438 275.19 266.836 275.19 264.972C275.19 263.109 273.79 258.916 272.857 257.985C271.924 257.053 270.058 250.531 267.259 250.065Z" fill="#2F2E41"/>
<path d="M219.674 95.8711C225.085 95.8711 229.471 91.4912 229.471 86.0884C229.471 80.6855 225.085 76.3057 219.674 76.3057C214.263 76.3057 209.877 80.6855 209.877 86.0884C209.877 91.4912 214.263 95.8711 219.674 95.8711Z" fill="#FFB9B9"/>
<path d="M215.942 103.79C215.942 103.79 221.54 107.051 224.806 101.927C228.071 96.8028 238.335 112.176 238.335 112.176L241.134 159.692C241.134 159.692 236.002 160.157 227.138 162.487C218.274 164.816 214.076 159.226 214.076 159.226L213.609 132.207L214.542 119.629L213.143 109.381L214.076 103.325L215.942 103.79Z" fill="#5D8BFF"/>
<path d="M205.678 109.847C205.678 109.847 201.946 110.778 201.013 117.3C200.08 123.822 198.214 143.387 198.214 143.387L200.547 155.033C200.547 155.033 207.078 149.909 209.41 152.238L208.011 145.251L209.41 141.058L205.212 122.89L205.678 109.847Z" fill="#5D8BFF"/>
<path d="M214.957 95.8711C214.957 95.8711 214.076 95.8711 214.076 99.132C214.076 102.393 205.212 107.051 205.212 107.051C205.212 107.051 204.279 108.449 204.279 112.176C204.279 115.902 204.279 124.753 205.212 127.548C206.145 130.343 207.544 139.66 208.011 140.592C208.477 141.524 208.477 145.716 207.544 146.648C206.611 147.58 209.877 153.17 210.81 153.636C211.743 154.101 207.544 166.213 209.877 166.679C212.21 167.145 216.408 161.089 217.808 157.828C219.207 154.567 218.274 109.381 217.808 106.12C217.341 102.859 214.957 95.8711 214.957 95.8711Z" fill="#575A89"/>
<path d="M227.954 92.8733C227.954 92.8733 227.605 90.7469 229.937 92.6103C232.27 94.4737 232.737 95.8712 232.737 95.8712C232.737 95.8712 244.866 95.8712 245.333 97.2687C245.799 98.6663 245.055 110.559 245.055 110.559L251.185 133.32C251.185 133.32 259.795 159.692 260.728 160.623C261.661 161.555 253.263 156.431 248.598 160.158C243.933 163.884 235.536 165.748 234.603 163.418C233.67 161.089 223.406 107.051 223.406 107.051C223.406 107.051 223.406 98.2004 224.806 97.2687C226.205 96.337 227.954 92.8733 227.954 92.8733Z" fill="#575A89"/>
<path d="M252.797 136.865L250.931 158.294L250.464 160.157L257.462 169.474C257.462 169.474 258.862 164.35 258.395 162.487C257.929 160.623 260.728 139.66 260.728 139.66L252.797 136.865Z" fill="#FFB9B9"/>
<path d="M212.003 79.1343C212.003 79.1343 209.737 73.2496 213.023 71.3257L213.93 73.9286C213.93 73.9286 222.203 68.9492 224.356 70.0809L222.316 72.7969C222.316 72.7969 231.95 72.7969 232.63 76.5315L229.23 76.6446C229.23 76.6446 232.856 79.0212 232.97 82.8689L225.716 83.3216L229.23 85.3586C229.23 85.3586 216.083 87.1693 212.91 81.9635L212.003 79.1343Z" fill="#2F2E41"/>
<path d="M210.04 79.3672C210.04 79.3672 212.652 84.5841 216.135 83.2799C219.618 81.9757 216.135 77.1935 216.135 77.1935L213.813 76.0342L210.04 79.3672Z" fill="#2F2E41"/>
<path d="M293.923 265.637H192.276V265.992H293.923V265.637Z" fill="black"/>
<path d="M244.4 98.2007C244.4 98.2007 247.199 98.6665 249.065 101.927C250.931 105.188 260.261 126.617 260.728 127.549C261.194 128.48 261.194 141.058 261.194 141.058C261.194 141.058 254.663 137.331 251.864 139.661L251.397 134.071L245.333 112.642L244.4 105.654L244.4 98.2007Z" fill="#5D8BFF"/>
</g>
<defs>
<clipPath id="clip0_491_1644">
<rect width="322" height="266" fill="white"/>
</clipPath>
</defs>
</svg>
