<svg width="38" height="44" viewBox="0 0 30 36" fill="none" xmlns="http://www.w3.org/2000/svg">
<path d="M29.9999 0H20L5.55542 21.1111H15.5554L29.9999 0Z" fill="#BF392C"/>
<path d="M0 0H9.99996L24.4444 21.1111H14.4444L0 0Z" fill="#E2574C"/>
<path d="M15.5556 11.1113C22.3334 11.1113 27.7779 16.5558 27.7779 23.3336C27.7779 30.1113 22.3334 35.5558 15.5556 35.5558C8.77786 35.5558 3.33337 30.1113 3.33337 23.3336C3.33337 16.5558 8.77786 11.1113 15.5556 11.1113Z" fill="#EFC75E"/>
<path d="M15.5556 14.4443C10.6667 14.4443 6.66663 18.4443 6.66663 23.3333C6.66663 28.2222 10.6666 32.2222 15.5556 32.2222C20.4445 32.2222 24.4445 28.2222 24.4445 23.3333C24.4445 18.4443 20.4444 14.4443 15.5556 14.4443ZM15.5556 29.9999C11.8889 29.9999 8.88892 26.9998 8.88892 23.3333C8.88892 19.6667 11.889 16.6666 15.5556 16.6666C19.2221 16.6666 22.2222 19.6667 22.2222 23.3333C22.2222 26.9998 19.2221 29.9999 15.5556 29.9999Z" fill="#D7B354"/>
<path d="M13.7886 26H17.3566V25.048H16.2446V20.08H15.3726C14.9886 20.312 14.5886 20.464 13.9886 20.576V21.304H15.0686V25.048H13.7886V26Z" fill="white"/>
</svg>
