<svg width="38" height="44" viewBox="0 0 30 36" fill="none" xmlns="http://www.w3.org/2000/svg">
<path d="M29.9999 0H20L5.55542 21.1111H15.5554L29.9999 0Z" fill="#BF392C"/>
<path d="M0 0H9.99996L24.4444 21.1111H14.4444L0 0Z" fill="#E2574C"/>
<path d="M15.5556 11.1113C22.3334 11.1113 27.7779 16.5558 27.7779 23.3336C27.7779 30.1113 22.3334 35.5558 15.5556 35.5558C8.77786 35.5558 3.33337 30.1113 3.33337 23.3336C3.33337 16.5558 8.77786 11.1113 15.5556 11.1113Z" fill="#CA9712"/>
<path d="M15.5556 14.4443C10.6667 14.4443 6.66663 18.4443 6.66663 23.3333C6.66663 28.2222 10.6666 32.2222 15.5556 32.2222C20.4445 32.2222 24.4445 28.2222 24.4445 23.3333C24.4445 18.4443 20.4444 14.4443 15.5556 14.4443ZM15.5556 29.9999C11.8889 29.9999 8.88892 26.9998 8.88892 23.3333C8.88892 19.6667 11.889 16.6666 15.5556 16.6666C19.2221 16.6666 22.2222 19.6667 22.2222 23.3333C22.2222 26.9998 19.2221 29.9999 15.5556 29.9999Z" fill="#9C7818"/>
<path d="M15.3246 26.112C16.4606 26.112 17.4126 25.488 17.4126 24.4C17.4126 23.616 16.9006 23.128 16.2286 22.936V22.896C16.8606 22.656 17.2126 22.184 17.2126 21.552C17.2126 20.536 16.4366 19.976 15.2926 19.976C14.6046 19.976 14.0366 20.256 13.5246 20.696L14.1246 21.424C14.4766 21.096 14.8206 20.896 15.2446 20.896C15.7486 20.896 16.0366 21.176 16.0366 21.64C16.0366 22.168 15.6846 22.536 14.5966 22.536V23.384C15.8846 23.384 16.2286 23.744 16.2286 24.328C16.2286 24.856 15.8206 25.16 15.2126 25.16C14.6766 25.16 14.2526 24.888 13.9006 24.544L13.3406 25.288C13.7566 25.768 14.3886 26.112 15.3246 26.112Z" fill="white"/>
</svg>
