<svg width="172" height="168" viewBox="0 0 172 168" fill="none" xmlns="http://www.w3.org/2000/svg">
<g clip-path="url(#clip0_215_1218)">
<path d="M109.193 37.7826H62.8461C61.79 37.7838 60.7775 38.2042 60.0306 38.9515C59.2838 39.6988 58.8637 40.712 58.8624 41.7688V144.84L58.3313 145.002L46.9617 148.486C46.4229 148.65 45.8409 148.594 45.3435 148.33C44.8461 148.065 44.4739 147.614 44.3086 147.075L10.4894 36.5362C10.3249 35.997 10.381 35.4145 10.6454 34.9167C10.9098 34.4189 11.361 34.0465 11.8997 33.8814L29.4201 28.5132L80.2125 12.9562L97.7329 7.58807C97.9995 7.50596 98.2797 7.47727 98.5574 7.50363C98.8351 7.53 99.1049 7.61091 99.3514 7.74174C99.5978 7.87256 99.8161 8.05073 99.9936 8.26604C100.171 8.48136 100.305 8.72959 100.386 8.99655L109.031 37.2511L109.193 37.7826Z" fill="#F2F2F2"/>
<path d="M119.306 37.2509L108.887 3.19778C108.714 2.63039 108.431 2.10274 108.053 1.64498C107.676 1.18722 107.213 0.808319 106.689 0.529935C106.165 0.251551 105.592 0.079134 105.002 0.0225429C104.412 -0.0340482 103.816 0.0262958 103.249 0.20012L78.6164 7.74475L27.8267 23.3044L3.19404 30.8517C2.04974 31.2033 1.0916 31.9948 0.52993 33.0526C-0.0317373 34.1103 -0.151043 35.3479 0.198205 36.4936L35.8074 152.873C36.0911 153.798 36.6635 154.608 37.4407 155.183C38.2179 155.758 39.159 156.069 40.1258 156.07C40.5732 156.071 41.0182 156.003 41.4456 155.871L58.3313 150.699L58.8625 150.535V149.979L58.3313 150.141L41.289 155.363C40.2789 155.671 39.188 155.566 38.2555 155.07C37.3229 154.575 36.625 153.729 36.3147 152.719L0.708229 36.3368C0.554482 35.8363 0.500897 35.3105 0.550541 34.7893C0.600185 34.2681 0.752078 33.7619 0.997534 33.2995C1.24299 32.8371 1.57718 32.4278 1.98097 32.0948C2.38476 31.7619 2.85022 31.512 3.35068 31.3593L27.9833 23.812L78.7731 8.255L103.406 0.707707C103.785 0.591787 104.18 0.532682 104.577 0.532311C105.429 0.534225 106.257 0.808999 106.942 1.31639C107.626 1.82377 108.13 2.53711 108.38 3.35192L118.751 37.2509L118.916 37.7825H119.468L119.306 37.2509Z" fill="#3F3D56"/>
<path d="M32.5817 33.9686C32.0699 33.9682 31.5716 33.8037 31.16 33.4992C30.7484 33.1947 30.4451 32.7662 30.2947 32.2766L26.8739 21.096C26.782 20.7957 26.7501 20.4802 26.7801 20.1675C26.81 19.8549 26.9012 19.5512 27.0485 19.2738C27.1958 18.9964 27.3962 18.7508 27.6383 18.5509C27.8805 18.351 28.1596 18.2009 28.4598 18.109L75.1859 3.79467C75.792 3.60958 76.4468 3.67271 77.0065 3.97019C77.5662 4.26767 77.9851 4.7752 78.1712 5.38138L81.592 16.5621C81.7768 17.1686 81.7137 17.8238 81.4164 18.3838C81.1191 18.9438 80.612 19.363 80.0063 19.5493L33.28 33.8636C33.0538 33.9331 32.8184 33.9684 32.5817 33.9686Z" fill="#5D8BFF"/>
<path d="M50.5012 11.9464C53.4347 11.9464 55.8128 9.56679 55.8128 6.6314C55.8128 3.69601 53.4347 1.31641 50.5012 1.31641C47.5677 1.31641 45.1896 3.69601 45.1896 6.6314C45.1896 9.56679 47.5677 11.9464 50.5012 11.9464Z" fill="#5D8BFF"/>
<path d="M50.5012 9.99686C52.3588 9.99686 53.8647 8.49002 53.8647 6.63124C53.8647 4.77246 52.3588 3.26562 50.5012 3.26562C48.6436 3.26562 47.1377 4.77246 47.1377 6.63124C47.1377 8.49002 48.6436 9.99686 50.5012 9.99686Z" fill="white"/>
<path d="M160.049 154.713H70.2825C69.684 154.712 69.1102 154.474 68.687 154.05C68.2638 153.627 68.0257 153.053 68.025 152.454V44.8253C68.0257 44.2264 68.2637 43.6522 68.687 43.2288C69.1102 42.8053 69.684 42.5671 70.2825 42.5664H160.049C160.647 42.5671 161.221 42.8053 161.644 43.2288C162.068 43.6522 162.306 44.2264 162.306 44.8253V152.454C162.306 153.053 162.068 153.627 161.644 154.05C161.221 154.474 160.647 154.712 160.049 154.713Z" fill="#E6E6E6"/>
<path d="M118.751 37.251H62.8462C61.6493 37.2527 60.5019 37.7292 59.6555 38.5761C58.8092 39.4229 58.333 40.5711 58.3313 41.7687V150.141L58.8625 149.979V41.7687C58.8637 40.7119 59.2839 39.6987 60.0307 38.9514C60.7775 38.2042 61.79 37.7838 62.8462 37.7825H118.916L118.751 37.251ZM167.485 37.251H62.8462C61.6493 37.2527 60.5019 37.7292 59.6555 38.5761C58.8092 39.4229 58.333 40.5711 58.3313 41.7687V163.482C58.333 164.68 58.8092 165.828 59.6555 166.675C60.5019 167.522 61.6493 167.998 62.8462 168H167.485C168.682 167.998 169.829 167.522 170.676 166.675C171.522 165.828 171.998 164.68 172 163.482V41.7687C171.998 40.5711 171.522 39.4229 170.676 38.5761C169.829 37.7292 168.682 37.2527 167.485 37.251ZM171.469 163.482C171.468 164.539 171.047 165.552 170.301 166.299C169.554 167.047 168.541 167.467 167.485 167.468H62.8462C61.79 167.467 60.7775 167.047 60.0307 166.299C59.2839 165.552 58.8637 164.539 58.8625 163.482V41.7687C58.8637 40.7119 59.2839 39.6987 60.0307 38.9514C60.7775 38.2042 61.79 37.7838 62.8462 37.7825H167.485C168.541 37.7838 169.554 38.2042 170.301 38.9514C171.047 39.6987 171.468 40.7119 171.469 41.7687V163.482Z" fill="#3F3D56"/>
<path d="M139.599 48.9443H90.7323C90.0986 48.9435 89.491 48.6913 89.0429 48.2429C88.5948 47.7946 88.3428 47.1866 88.342 46.5525V34.8595C88.3428 34.2254 88.5948 33.6175 89.0429 33.1691C89.491 32.7207 90.0986 32.4685 90.7323 32.4678H139.599C140.233 32.4685 140.84 32.7207 141.289 33.1691C141.737 33.6175 141.989 34.2254 141.989 34.8595V46.5525C141.989 47.1866 141.737 47.7946 141.289 48.2429C140.84 48.6913 140.233 48.9435 139.599 48.9443Z" fill="#5D8BFF"/>
<path d="M115.166 33.2648C118.099 33.2648 120.477 30.8851 120.477 27.9498C120.477 25.0144 118.099 22.6348 115.166 22.6348C112.232 22.6348 109.854 25.0144 109.854 27.9498C109.854 30.8851 112.232 33.2648 115.166 33.2648Z" fill="#5D8BFF"/>
<path d="M115.166 31.1875C116.952 31.1875 118.401 29.7381 118.401 27.9502C118.401 26.1623 116.952 24.7129 115.166 24.7129C113.379 24.7129 111.93 26.1623 111.93 27.9502C111.93 29.7381 113.379 31.1875 115.166 31.1875Z" fill="white"/>
</g>
<defs>
<clipPath id="clip0_215_1218">
<rect width="172" height="168" fill="white"/>
</clipPath>
</defs>
</svg>
