<svg width="45" height="60" viewBox="0 0 45 60" fill="none" xmlns="http://www.w3.org/2000/svg">
<path d="M7.9921 26.0026H3.99622V17.9991C3.99622 8.00349 11.9997 0 21.9953 0C30.9948 0 38.7991 6.79652 39.7951 15.7961L35.7992 16.1945C35.0024 9.19874 29.0027 3.99589 21.9953 3.99589C14.191 3.99589 7.9921 10.1948 7.9921 17.9991V26.0026V26.0026Z" fill="white"/>
<path d="M37.9902 60.0001H5.99969C2.60143 60.0001 0 57.3987 0 54.0004V30.0016C0 26.6034 2.60143 24.002 5.99969 24.002H38.0019C41.4002 24.002 44.0016 26.6034 44.0016 30.0016V54.0004C43.9899 57.3987 41.3885 60.0001 37.9902 60.0001ZM5.99969 27.9978C4.80444 27.9978 3.99589 28.7947 3.99589 30.0016V54.0004C3.99589 55.1956 4.79272 56.0042 5.99969 56.0042H38.0019C39.1972 56.0042 40.0057 55.2074 40.0057 54.0004V30.0016C40.0057 28.8064 39.2089 27.9978 38.0019 27.9978H5.99969Z" fill="white"/>
<circle cx="21.9367" cy="41.8942" r="5.6833" fill="white"/>
</svg>
